<mxfile host="app.diagrams.net" modified="2024-05-23T07:31:55.143Z" agent="Mozilla/5.0 (Windows NT 10.0; Win64; x64) AppleWebKit/537.36 (KHTML, like Gecko) Chrome/124.0.0.0 Safari/537.36" etag="NYzzA1R0OqZk5ck-s3gM" version="24.4.4" type="device">
  <diagram id="6a731a19-8d31-9384-78a2-239565b7b9f0" name="Page-1">
    <mxGraphModel dx="1434" dy="772" grid="1" gridSize="10" guides="1" tooltips="1" connect="1" arrows="1" fold="1" page="1" pageScale="1" pageWidth="1169" pageHeight="827" background="none" math="0" shadow="0">
      <root>
        <mxCell id="0" />
        <mxCell id="1" parent="0" />
        <mxCell id="46P4NmY_MCMuAy0jAjQl-1779" value="" style="shape=image;verticalLabelPosition=bottom;labelBackgroundColor=default;verticalAlign=top;imageAspect=0;image=data:image/png,iVBORw0KGgoAAAANSUhEUgAACCMAAAWyCAYAAAAgGLhdAAAACXBIWXMAAC4jAAAuIwF4pT92AAHMmElEQVR42uzdTW7jyLom4LsEL0EraGgDDWgJXoIGvQAtgfM70fAOtQShRz3UErQEooHqNJxtJGHYsGFktjoji65yOvUTJIMUfx4CDy7uOXUyVRTFj4x444v/OBwO/wEAAAAAAAAAkIqTAAAAAAAAAAAIIwAAAAAAAAAAwggAAAAAAAAAgDACAAAAAAAAAIAwAgAAAAAAAAAgjAAAAAAAAAAACCMAAAAAAAAAAAgjAAAAAAAAAADCCAAAAAAAAACAMAIAAAAAAAAAIIwAAAAAAAAAACCMAAAAAAAAAAAIIwAAAAAAAAAAwggAAAAAAAAAAMIIAAAAAAAAAIAwAgAAAAAAAAAgjAAAAAAAAAAAIIwAAAAAAAAAAAgjAAAAAAAAAADCCAAAAAAAAACAMAIAAAAAAAAAgDACAAAAAAAAACCMAAAAAAAAAAAIIwAAAAAAAAAACCMAAAAAAAAAAMIIAAAAAAAAAIAwAgAAAAAAAACAMAIAAAAAAAAAIIwAAAAAAAAAAAgjAAAAAAAAAADCCAAAAAAAAAAAwggAAAAAAAAAgDACAAAAAAAAACCMAAAAAAAAAAAgjAAAAAAAAAAACCMAAAAAAAAAAMIIAAAAAAAAAADCCAAAAAAAAACAMAIAAAAAAAAAIIwAAAAAAAAAAAgjAAAAAAAAAAAIIwAAAAAAAAAAwggAAAAAAAAAgDACAAAAAAAAAIAwAgAAAAAAAAAgjAAAAAAAAAAACCMAAAAAAAAAAAgjAAAAAAAAAADCCAAAAAAAAACAMAIAAAAAAAAAIIwAAAAAAAAAACCMAAAAAAAAAAAIIwAAAAAAAAAAwggAAAAAAAAAAMIIAAAAAAAAAIAwAgAAAAAAAAAgjAAAAAAAAAAAIIwAAAAAAAAAAAgjAAAAAAAAAADCCAAAAAAAAACAMAIAAAAAAAAAgDACAAAAAAAAACCMAAAAAAAAAAAIIwAAAAAAAAAACCMAAAAAAAAAAMIIAAAAAAAAAIAwAgAAAAAAAAAgjOAkAAAAAAAAAADCCAAAAAAAAACAMAIAAAAAAAAAIIwAAAAAAAAAACCMAAAAAAAAAAAIIwAAAAAAAAAAwggAAAAAAAAAAMIIAAAAAAAAAIAwAgAAAAAAAAAgjAAAAAAAAAAACCMAAAAAAAAAAAgjAAAAAAAAAADCCAAAAAAAAACAMAIAAAAAAAAAgDACAAAAAAAAACCMAAAAAAAAAAAIIwAAAAAAAAAACCMAAAAAAAAAAMIIAAAAAAAAAIAwAgAAAAAAAAAgjAAAAAAAAAAAIIwAAAAAAAAAAAgjAAAAAAAAAADCCAAAAAAAAAAAwggAAAAAAAAAgDACAAAAAAAAACCMAAAAAAAAAAAgjAAAAAAAAAAACCMAAAAAAAAAAMIIAAAAAAAAAIAwAgAAAAAAAACAMAIAAAAAAAAAIIwAAAAAAAAAAAgjAAAAAAAAAAAIIwAAAAAAAAAAwggAAAAAAAAAgDACAAAAAAAAAIAwAgAAAAAAAAAgjAAAAAAAAAAACCMAAAAAAAAAAMIIAAAAAAAAAADCCAAAAAAAAACAMAIAAAAAAAAAIIwAAAAAAAAAACCMAAAAAAAAAAAIIwAAAAAAAAAAwggAAAAAAAAAAMIIAAAAAAAAAIAwAgAAAAAAAAAgjAAAAAAAAAAACCMAAAAAAAAAAAgjAAAAAAAAAADCCAAAAAAAAACAMAIAAAAAAAAAgDACAAAAAAAAACCMAAAAAAAAAAAIIwAAAAAAAAAACCMAAAAAAAAAAMIIAAAAAAAAAIAwAgAAAAAAAAAgjAAAAAAAAAAAIIwAAAAAAAAAAAgjAAAAAAAAAADCCAAAAAAAAAAAwggAAAAAAAAAgDACAAAAAAAAACCMAAAAAAAAAAAIIzgJAAAAAAAAAIAwAgAAAAAAAAAgjAAAAAAAAAAACCMAAAAAAAAAAAgjAAAAAAAAAADCCAAAAAAAAACAMAIAAAAAAAAAgDACAAAAAAAAACCMAAAAAAAAAAAIIwAAAAAAAAAAwggAAAAAAAAAAMIIAAAAAAAAAIAwAgAAAAAAAAAgjAAAAAAAAAAAIIwAAAAAAAAAAAgjAAAAAAAAAADCCAAAAAAAAAAAwggAAAAAAAAAgDACAAAAAAAAACCMAAAAAAAAAAAIIwAAAAAAAAAACCMAAKT3119/zX9aHHHj/ACgjgAQUQtmJ2rBzPkBAEAYAQBg/IODtz9lP+1+2v90iFSU/5vNT6swqOicAqgj6gjA5GrBTRkwCLVgW97bDxXsyv9dJrQGAIAwAgDAsAcLw6TR+qe84iBhrG05qWS1E4A6oo4AjLMWzMvwwL6lWrAv//y58w0AgDACAED/BwvX5SrUQ4fCIOLS6iaAUdSRzRXqyE4dAehVB4RVi2G0U/IymCCkBgCAMAIAQM9Wr+46Hiw81Yp7bQARQB1pUEdMRAFcpxbMykDaoQc2tvUBAEAYAQDgugOGiyusWKoygGiFK0D/Qwh9rSNrdQRgciGEY51zbOEAAIAwAgBAhwOG856sYI1a4eo7A1BH1BGA3tWCmzL4dRgAQWcAAIQRAAA6GDTMBjJg+NFem1UAdaRhHbEyFiBdLbgtA19DqgXh8658fwAACCMAALSzinU/wAmkj6xuBVBH1BGA63ZD2A68Fmx1SQAAQBgBACDdoOEy1cqlr1+/Hh4fHw/Pz8+H19fXw9vb2+Hz8ePHj1//XRD+2W/fvh3u7+9Trm41eAgwsTpyd3eXcv9wdQSgXigtT3EvDu8GRVEcnp6e/rnfHzve/7vwz4V/PtSQhF0SdMwBAEAYAQCg4aBho31cw+RPGPg7NUBY5QiTS2Hy6eHhweAhwHDqyCZFHTkWOqh6fP/+XR0BGGAo7cuXL7+CZS8vL7/eCZoe4c8JtSVBUG3p+wUAQBgBAKD6gOFN3Qmk98HCFBNHl4IJDTomhMHQW981QKt1ZDvyOrLwXQNEBRFqd8MJwYE2j/DnNwyprX3PAAAIIwAAVJtA2teZPArtsFOsVqpyhK4LDVquWs0EoI6oIwDt1INa4eYQSAvdbLo8wt8X/t6atWDj+wYAQBgBAKClCaQwcNf15NGxyaSarVZNJAFcuY6EdtnXriNhdaw6AnC9IEIIhrXZFSc2lFAzoCaQAACAMAIAwIVBw0ottUN76xAC6NMRVtXWGDxc+P4BktSRXdU6cu2Jp0R1ZO77B/inFiyrdsYJW+f06QgBtfC5bNkAAIAwAgDAFVYvhVWsfT3CxFbF1a2FiSQAdUQdAeg2iBC6EHS9JUPsETr21OiSsHQdAAAgjAAAUHPQsI8rl04NHj48PFQZOMxDe3HXA0CtOrKqUkfCitMh1JGKk1B7dQSYeC2Yl+GswYfSPh41OuYIpwEAIIwAAPBh0DB6Aqlv7bQvHd++fasycLh1TQCoI+oIQOVacFOGe6Pul0MIN388wuet2C1HOA0AAGEEAMCgYeyg4RAnkGpOJK1cGwDqiDoCUKkebMcaRHg/Xl9ff9Uy4TQAAIQRAADiBg3XY59AqjGRFFYyzVwfAOqIOgIQVQtuxx5EeD/CNkPCaQAACCMAAFweNFxMZQKpxkTSzjUCoI6oIwBRHXKKKQQR3o8KWzbYrgEAAGEEAGCyA4f7mEG0sPpnTMfXr19jBw+XrhOAs3Ukn2Idub+/j60jt64TYAK1IKpDTghzjel4fHyMrQUb1wkAAMIIAMDUBg2XMYNnYZBtbMePHz9i93rNXSsA6og6AnCyFsxiakEIcY3xqBBynrteAAAQRgAArGadwKBhOF5fX2MHDjPXC8AfNSSqJXeYpBnrUWHPcF12gDHXg03MVj3fv38fZS2oEE7buV4AABBGAACsZv1gLPt7nzqKooja59U1A1C9jox58un9CC3HdUcAJlwLoroiPD09jboWVAinLVw3AAAIIwAAuiKMtK12g5VMVrUCqCPqCEDFrghj7pDz8YjcrmHjugEAQBgBABj7oOFtzGrWMMEyhSOs1LKqFSBtHbm7u1NHfrd37QAjqwVR2/WErdGmcIROQJHdEWauHwAAhBEAgDEPHG4vDZI9Pz8fpnSESbOIgcO56wdAHVFHAH7VgpWuCL8fkVv3ZK4fAACEEQCAMa9gutgVYWpHmDTTVhUgqo7MYroiqCNHrV1DwIjqwV5XhN+PyO4IuesHAABhBABgrIOGS3t8Hz8i9vwuXEOAOnJ5JewU60jYkiKijpiAAiYTTJtaV4T34+HhQaccAACEEQCAyQ4cXmytHVb0TPEoiiJm4HDhOgLUkfP3yjAxP8Ujsj23CShgEsG0qW3X8368vLzYqgEAAGEEAGCyA4dnB8bCSp6pHm9vbwYOAdQRdQSgYTBtitu+fTzCdkUXasHedQQAgDACADC2QcOFFUyNBw53riVAHVFH1BFAMO200Clmykdkx7Ub1xIAAMIIAMCYBg0zrbWbDxy6lgB1RB1RRwDBNMG0U0fkVg0L1xMAAMIIAMCYBg7PtlO9v78/TP0wcAhwto7s1JEkdWTuegIGXAtWgmmXD9v2AAAgjAAATG3gMD83IBZWc079CAOnEQOHS9cToI6oI+oIMNFasD53jwvb1TgOh69fv16qBVvXEwAAwggAwJgGDrVTjTgi9vu2iglQR9QRdQTQJeeIh4cHheAQtW3PzvUEAIAwAgAwlkHD+aVJpNfXV6OGcauYDBwC6og60qSOWA0LjLZLzuPjo0Lw83h6errYKcf1BACAMAIAMJZBw4W9XeOOMIAqjABQvY441BFAl5yXlxeF4OcRAnrCCAAACCMAACaRTCJVnUTau6YAdUQdEUYAhBF0yWkSRvhp5poCAEAYAQAYw6Dh6txA2JcvX4wYlkdYzWUVE8AfdSQ7d1+8u7tTQMojojV34ZoCBloLboQR4o+IMMLCdQUAgDACADD6SaSwv7UjfhWTawpQR9QRdQSYYC2w9ZswAgAAwggAACaRTCIBqCPqCEC3YQSHMAIAAMIIAIBJJJNIJpEA1BF1BEBnBGEEAACEEQAAGg0cLq1iijuen5+vPolUTvoVEQOYp+Q/zTu8vuY/7X3e3n5e59jn/SzcX7KUYYS7uzsFpDyenp4unn/XcPfXsNrs86rNSc7xf7/0z4VAluPwK5QhjAAAgDACAGAVkzDCb8fj4+OlQcN9B5MdhwSKLga4y4Ftn7f/n9c59nmPydSRq9SRnWu4+2tYbfZ51eZkn1cYIeKI6ZLz08y7KgAAwggAwCTCCFqqXmcS6ch3VSQc4N53cG3lPu9gPq9z7PPWXqEvjBB/FEXRdRjBNdz+Z1abfV61OdLLy4tCcLBlDwAAwggAwLTCCDOrmOKOsO/5hXO1bfF7ukk9INzydeXzDuzzOsc+b93PG7OqVh3pvo64hjvZOsk59nnV5gpCsNcRFXAWRgAAQBgBABhVIOHsYFjY49px+LXv+bVaQhuQ93lNePi8ff68l/6s5+dnRaTjOuIaFkbwedXmvoURHh4eFIKfx7dv367abQ0AAGEEAICuwwj7cwNiYcBs6kfYqiJikHXZ8veUshV0fu3ryuft1ed1jn3eRi3uL7X5DtsTqCPd1xHXcCfPUGqzz6s2/+vx3H8fAlmOw+H+/v5q3dYAABBGAAC4Rhhhe25ALAyYTf0Ie9xGDMAuWv6eslQTNKGtegfX1TzRJI3P2+7ndY593sYr9NWRZHVk7hq+zjWsNvu8anOSz/ufl/6579+/C6b15P4FAIAwAgBAV2GEzMDh+SOs6u3D3q7ld9VkwHjfxcD2pwHu3Oft7ed1jn3eY5NJWRt1JEzATPmIaMt9cA1f7xpWm31etbn5OS7ZtqfnAWcAAIQRAAC6DiMsDByePyL2+d65lgB1RB1RR4CJ14OzwZyHhwfBtB4EnAEAEEYAAOjVwOHXr18nO2j49vamnSrA5TpyMAGljgCTrwVbnXJOH1++fBFMAwBAGAEAMHBoq4ZqK5h++q+yTfPS9QSoI+pIjToydx0BI6gFK51yjh+RWzSsXEcAAAgjAABDGAi8CRPj5QR5GBS8ufDPLy8Njj0+Pk5u0DCs3IpYwXR0v+pL5xxgZHVHHalfR3LXEDCS9471pVpwf38/yTBC6DQnmAYAgDACADD0wcDbnzZHtl0ozg1ulYOIZwfHwmTK1NqqPj09VQ0ifD7n4buYuTaBiUxGXawjUztCACOiXqwrnOOVTjxAj+772aXt3o55fX2dVC0InYEizotgGgAAwggAwKACCJUGuMo/w6rWD8fd3V2TMMJH4dwuXK/AyOvRxa0aQshrKkeF7jqziHM7PxE0VF+Aru/1s8h3j5NCl4ApHZHb9diiAQAAYQQAYHABhM+WZ/7Mhe4I/x6Rq1mr2oXvzjUMjLg2qSPV6sgu4ryG1cf5pcBh2R5dNx6grXv8Iia8rDvC78fb21vsObHFGwAAwggAwCADCB9lF/6OS5Mdh6IoRj9oWGE1a125FtvASGtVrsvO3y25I+vIMuKcLivWmH25nYOJLSDVO8gu9fPw/f39JMIIoQtETBc11xoAAMIIAMC1BgDnMZM7kVYpJjzCCp8xHw8PDzHn8v8k+k4y1zkwopqljsTXkTzynGYNasxW+A1ocD/PWwznjn7rnvDvF3kudLUBAEAYAQC4yiDgTcNOCJ/3lr6J+DvzKa9kenl5id7yIuEqsbnrHRhR7VJHGm6d9Ol8rhJ15FFrgC6D0P8zZuuesYbTKnTI0RUBAABhBADgaoOBq4TbAswj/86oVa1j3K6hwqBhXp6rWdkOW3cEAHWkch3pOJhY2LoB6Oh+k5XPyUVMOC1skTa2I3J7Bl0RAAAQRgAArjogmDUcCNzXac8cu+L/+fl5NAOGYRA0DIZGntfbT4O2y7IVtjACwN/3xr06ctai4vlMtVJ55foEWgpC55/fO2LfZb59+zaqIEII20Wes7XrDgAAYQQAoPerS4+1+6w60XFk0uMwpX2/wyBo5L/z7sJqslWNbglL1zswsvq1iLn/jalF98PDQ+w9f9vwuSAXfgN6FITenXqWLZ+No+5ZT09Po6gFIWSnWw0AAMIIAMBQBgRvKkw65OUA4k2ivzubykRShSBCEdtKtWxNu474/nLXOtBhTVmW9/dV25Mg5T1QHalZRyJCCbsak4bCb0CqIPQ2JvwcG04bQ7ecCkGE3zqtAQCAMAIAcM1BwfmF/VZ3bQ1mxa7wH/JEUoUJpNqTOOUg7ObI9xj+/7nrHGi5jlzlHlSGH9SRFsMA5XdbZZugmd8E0DAIval6L4kNpw05kFAxiLB1vQEAIIwAAPRpYHD2aSKpKAf1Zi3/vZeCEL9NJL2+vo55Ammb6Jx2tioZmHzduHp3lqp1ZEiBhB8/flStI5sOnhPO/f17vw2g5n27aNKBrUo4bYhbNlQMIuTeAQAAEEYAAPh98vwwptVMYQLp/v6+yqDh3qAhMID79U0ZdNr3qXW/OtJdHSmvgezIROJWVwSgRj3Jynv4TYI/MzqcFoSwV7jXjizcrCsaAADCCAAARwYP11Umkvo8eBi6N4TVtwYNgZGFxrYVAwgfZepI63VEEABQr/7eWib6/hlCX33tmPP9+/eqobTWw38AACCMAAAMefBwU2Ww7e7urlfbNoRJraIoqg4YCiIAfb4vzyO2YYixUkfUEYAOA3TR99EQ/urbtg3h81QMpQkiAAAgjAAARA+g3ZSDaFnZvvRmQv/um6qTXA8PD79WDl3zCC2/awwYBosRXbP/tNr1O4ZR/K5nVdpdX5gsv1FHWqkjgggACQIJ710Srh1QC3//169f69Tate8dAABhBAAgZuJnfWTyZ1KTDXUmkt5bbnc9mRQmj8LK2pqTc2MJIsxPXLObsfw7wkRr0iZBECG/Rv2aUB0RRABShqCzMd1X6gQSghAG6DqU0CCEIIgAAIAwAgBwcaDsNmIv7twkWPwK15eXl9YGC8NEVWidWnPyaFQTSOUAdh4xGbm2nzkM7vfdpCvC9tpdUprUkRBKaLuOPD4+qiM68cC1f0vZiXv9bizPbXUDCe+dEkJgLGyh02YgrUEIwdYMAAAIIwAAFwfTq+zFfTuxc5Q1WZEb2l2/Tyg1HUR8e3v7FUAIQYeGq4T3E19xtp/a1iMw4Bp1GPrvu2kdCWGB1HWk4aTT6OpIxe9TJx5o/jualb+ZS4Gz/Yj+nRdNtx0K7wAhONC0e06oJeHPCbWl5hZvH+99gggAAAgjAABHB9LrrtbMJni+bhPtWf5rdVMY+AurUUMr1HcfV6q+/2dhkDD8c2HSqOFA4eeVwjcj+36yIa+cBs6GEfaR2zD0uvOJOjKqa1InHmg2IV/pHWSE72D7FPfiEFQL4YRwjw/3+vf7/ntQIQQO3v+zEGYL/1z45xt0w+nFFkgAACCMAAD9X0HedAAsm+i5m5XtYg8Dthrpd7MyoAqTu/cObiV6+e+yH3ANKcZaRyo+R+nEA/UCWbWeo0caaloP/J3i4af/5toGAEAYAQD4uAonTzT4tJz4uVylWt3aod2YJ9rLQd0i0USbCSPobx3LSsuB/7tkA60jM9ehTjxQI8DT6B1k5F0i8oEH1G5d5wAACCMAgEHAm4STHrnJ2n9Wt24HMki4nMh3kipws3LfANQR+4HrxAO9eC7bTuA9bYgBtcl3zQMAQBgBAEg7cG7w/PSKpl1PJ4+yKQZHyhV4WwOqgDqijujEA4MPQi8mFFDbDDiQsHNPAwBAGAEApjsgmDUcLN9owRk1mdSHFa65yaPfBsJXNfZntwIYUEfUkS5WfOvEgyC0rizHQgnrHnRKKGo8QwuuAwAgjAAAEx0QXAogdDqAmF1h/9et7ytqYDef6r7EkDjosyzvdSuT1urIxJ+vdOKBtEHorWDob7V233Et2Jd/702pzt8v2AsAgDACAExwMCsXQLjKysmspfbb79/X0kRgrdXHmxMrzkwMwenfzu2J305hJWTrdWTfUgcEdSTdc5ZOPFA/CL0XbrsYUluVQY2ipTBa+PNnJ+5vdbaP2Pg+AQAQRgCA6U1oFAIIV58Ez8pzvqswmLgv//msHNydOZ9JB8uzkslUiA8g/DGx7XypI+jEAxWC0Hn5W3E/qvdetyzP365CJ528/OfXZfhgXuHvrBVI8H0BACCMAADTXLmXWY3Xy+9mUTIpDgwhgGCVtzrC5fCITjwIQv8ZhF44R63fe97dJPxzlzUCCULvAAAIIwAAAAgg1AogmFyF+Ek8nXgQhGYM97JKW0A4bwAACCMAAABMd+VqnmjP6ZVzCgCTeHaIDS/unDMAAIQRAADAKkGmeS0WiYIIRcpW0ADAKAIJOiMAACCMAABXnAR6b9m7MokDkx24tX8y17oeV4mCCLm28wAwyffZ/YVnBMFbAACEEQCg40GbU/tyFyZzYPQDtnnEpO76p5lzRgfXZNYwhLA3yQAAAgknnhM2zhEAAMIIAHDdAMIfE5HOF4z2PrCsMdGrawp9uib/mVzQyQMGEzgqPgVfM3Vl0pPGurLR5jPF9qdd+X9vnRcAAIQRAKAfAQStLMEq9Iv77bo30NLEVF5hKwaTmDCOmvO+PdDMuZr0O4mubAAAgDACAEwkgPBR5lyCMMKZbgkmj0h5Xc4v1Kyd1Y0wyKBRodOJdxJd2QAAAGEEABjPZE6eYKIxWDmnMNr7RIp7xN75JPG1Ofs0aRX+71rwBQb7m66zBYvg0XRD0UvnDwAAEEYAgHGsPruk0AIbdEcwcQDAlWpNrsZMIoCgKxsAACCMAAADGQRcJZpczO3bCpNatdqkm8rWeQSgxWdTz6X9/o51ZQMAABBGAMDqs+g94K1Ag+mGEnZ17h3OHwAnakuqrl06dvX3+811ZQMAABBGAGA6k4l1Bv9CS9WFcwiEe0HodiCMYIKpbLmdlZYmiYArr5y3an487x66XwAAAMIIADDy1Wd5OcFkcgk4dj+ZlUGlix1VnK/RhVFO7fltsghoOnG9bTBhnTmPvftOswQhhKVzCQAACCMAwHgGBUMb9lvnCqgQcspOTE6H+8nMeRpF8GQduXI5d86ABHVlVW4PVmXi2qT1eMIIO98nAAAgjAAAwx0Y3B3Zg3Vt0hBoOHm0/NC23wr5aU4GHpw/4AphKEGofn5/txVryNbWcAAAgDACAIxjcHBpn28AjtSGJm3SC+cRaOn+dGqbmEIArtfBtphQ20YoGgAAEEYAAAAY54TRPHIbhosTSs4n0GGodiVU2/vvanakK9t7iCTz/THiIM7KfQoAAGEEAADAgPmfK41rdUWwshWAM6G3TGc2JvJc9bkjyN65AQBAGAGAaw1U3BqYA2i04vJj224rLaufw1WCIEKuTToA4Lnq13PpsWelvWclAACEEQDoMoSQnViJakIHIH6VZXFmlb49qOPOY9YwhLB0HgEAz1R/LSKenTLnCgAAYQQAulrBe3Jyx/kCuBjqyiMnzMN9d+G8nTyXyxohhJ0QAjDBuvO+B7z7H3DsPrGu8BwlMAsAIIzgJACQdIXEpspEj/MG0MoE+q3z1yjYsRXsACZ4nzzWiWeQ2wKV9/xl+dlXtjWCq4QR3u8hgk0AAMIIANBoMOK2nPyq3Pra+QM4e3+1tUD7E22fu0tYwQcIbA10W6Az28QVtoiDpIsQqj6XboWCAACEEQCgzordvMlEmfMIcPY+u2pwj/0YSjAB8+85/byV0CBX/QK08Fx/GOq2QJHbxHn3gHS/uU2NZ9JC5ykAAGEEAIhdWZonmCDLnE+Aiys8iwT328KKfwDO1JtsiNsC1dgmbun7hmTPqOuaz6VrIVAAAGEEAOhiYswABEB3AbCN8wlAwjDC1bYFarBNnDA0pA8E1XlOFQwCABBGAICjgw1ahgNc5/67LPfbrR0Ccx4BOBN86/0zfoJt4la+b2hlwcLWlo0AAAgjAHDtVVNbKyAAkgz4hmDYvup9uIf/HsuyrmRCagBXvy/v+tr9rOE7iM5s0M095LZiF0XPfgAAwggAcHQ1UpVBv305aWbgDyD9PXlW7rubD2UF2of9vQvtswF6V1P2CSb9V4k/11xnNhjUfSQ22LRwzgAAhBEA4NhK1jxisC9Mjs2cM4BeTPJfdRKmSmjCdwlw9Wf9ptsCZYk/U9YwhLD03ULn95KY7R2NFwAACCMAwMnVScWRtqcbqxsAenGfvv2w/cHyGt1pGmwnYdIIoD/BhKvfx2uGEXbqCfRi3ODU/WPjHAEACCMAQMzgZGagD4AP9aFXK2oBSHJvj+1wk7dUV2JryFY4Gnp3//gcSNg7LwAAwggAAABVV7/lCfb1FkYA6Pf9/tS2QEVbWwJF1I6Nlu8wiIUMq2t07AIAQBgBAAAY9iBzkSCIcGhrIguAVu7/yy4mGE9s1VCU/7mJTQAAAGEEAABgpJNRq0RBBF0RADhVa+Zl+CArQxBCCAAAAMIIAHSwGnX5YWDOilIAuq5F/9UggBC2dlg6jwAAAAAgjABAPyZ+Tu3VGuzsmQpAh6G4/1sjhLATQgAAAAAAYQQA+jHhM/tpXa4ivTTJs3fOAOigNi0rhhDefvpfP906fwDUqDu/bdfgnAAAAAgjANBsxWnYi3tfddWp8wdAB3Uqa7BFQ1F2+RFMABjW+8n7NnHhPeXmyjWnKP/zG98PAACAMAIA8StNt00meJxHADqoV6sGteqj0PVn7pwC9DqEkB3ZJq7o4v5d/v0xAbeZ7wsAAEAYAYDjg2zzyG0YLtk4nwB0NDlUJAokFFa2AvTuPj8rJ/nP3evzjsLa0e9CPy18fwAAAMIIAPw+oZMnmsyxIgiAoQXpgpVzCtCLe/uinNSPvX8vW/48dbYF2tkKCAAAQBgBgOqrfbS5BqCPdWzfsI5lziXAVe/lt+Ukfq/u3zXDCB/fkZa+XwAAAGEEgCkP/BlgAyBFPbkpgwGhrqy63vqgxmrazlbWAnA2UJb3NUxWduFJ0YFH6A0AAEAYAUAYoULrURM3AHwMARRHtu+ZX+Hz3JS1LXZyq/A9AnR+r0611c68p+9LV/msQOfPm7vS1hgJAIAwAgDHX6JvKwyghRfshfMGMPnaMftpHTGRlPegxu2sVgXo3SReMbRuA33v4gB0eg87tUXYvuvuYAAACCMADOFF+tKgWljxOnO+ACZfL1ZnBl97uwXCh/DE58mvne8WoPN78mrI28SVoYSdMAJM9h62vPBbF0gAABBGAODTy/T8RHvtzEs0gAHXsjPO4FeCloGKZVnflr5fgKvci0exTVy5TdF2SOE8IMlvP+Z3X9iaBQBAGAGA4ytes3KiRggBYNp1YVajC4KVoAA0XVU8qG3iynq56fO2RUDS33xsZxSBBAAAYQQAAODEQGuKIMLBICwAR0LQo9smrvz3yk50nFMLYVqdEXRFAQAQRgAAABKsWtUV4fLk1MrWEAC/3RtHu03cpy2BVjrOwejuX7c1nok9AwIACCMA9Hbwaua8ANDzFV+/taI24Hpxsm2tvgPukbaJAwZ7/9rUeEbeOHcAAMIIANcejDvW1tPKUgC6rkl1Qgg7IYQ/6noesRf6rfMFADC45zyBBAAAYQSAQbzEzsqX2OLCS+vK+QKgo8HVKoOqYUJ94dz9cR6XFbtJaOUNADC8572i4rPz3jMfAIAwAkAXL62Likn6wnkDoKMwwj5mZZetBs6ex6xmh4lwXufOIQAV6868rD2ZTkXQ+W8vr/i8lzl3AADCCABtvajelq2sK09QOH8AdFSrZidqVVFOcljN1V4Y4eOqOZNJQFchtOWHiWyBqHHUnKIMuC2cI+jkPrqtsr2Z8wYAIIwAkPrldFkjLa8zAgC9WWUphFD53B0SyE0MAi1OnmUnWozvdL8Z1PcYU0vWvlPoTRhVGAEAQBgBIOlkRJ5gMmLjfALAoJ4BdokCCYUgCJDw3jQrV8xf2ud873wNJvRetfPOSl2B1n6Ti4j769a5AgAQRgBItUqlSDQJYRULAAxvwm+fKJCwck6BBBNkG9vETXYl9tEJUVsCwVWeAf3uAACEEQCSvICutGcGIFG47X0/b6sZh/fd3UauQj4ncz6Bmveh27qdWpy/ybxz7oXfoZXf5+bI+I4gAgCAMAKAVSoA9GoVa3GkY46g2nAnBesEEzwTAFXvN8uG28VpIz6c0FuKbnw75xNa65Kw8OwOACCMANDWAKD9OwGoOmC5jphAyp2vyQQTfNdAlXvLvGEIQQhqut+5yVIAAEAYAWBgq1TyiG0Y1tpiAky+Xqwu7C1romiawQRdMIBrrJLfO5+DDcPntgQCAACEEQCmtUrl2MRCmHBYOEcAk5802Jo04Mh1kemWBNS4f6xSBBEEpUdRR3aeKwAAAGEEgGmteM2sYgWgrAkpVq6aNADgY33JGtSUrXeV0V0Pi4qhR98/AAAgjAAAABOdKLK3MwCXVsRX7YKgC8v4r4tZ2Znv7PaBzhUAACCMAAAAw54MSBVE2DmnAHyqM6EjW35p0vmnta0YJnt9ZCe2ERRwBAAAhBEAAGDAkwCrREEE+3mT+tqclxNUtpSCcfyej002h5XxC+eIMpSwLO/5OmMAAADCCAAtDLpkVn8A0HEdarJFw/tE0q1zScJrMnTr2J253kxcwnDfe1YCRgAAAAgjALQ/GLcoB9SLI4PtmXMEQEf1aCmAQM8mK/cR16GW7gAAAAAIIwB8Wum3jtgz9eB8AdDh5G8ugECPrsc6W4Ro6Q0AAACAMAIwyUH1VeQqv4+Wzh8AHdWqc3t5CyDQ9fVYNNg6ZOsZCoCKz0CZ7UMAAABhBGBogxrLckC87mB65jwCcIXwnMF4rn0tbho8P33cxmHufAJwpt5kZ7pBLZwjqP3bui3Hw3aCogAAwghAOysr8gSD6CvnEwCY4LPUrGF3hI8TSrZugNMBtGU5GWubE6b6G4gJtoVtFmfOGUT/rjZnttVSawAAYQQY0GS3lV79ffHKDZ4DI5wYtDoMEO5EHRnHatXNia15vGMypd/CsmI92QvuJBkvWTiHk/5dCSQAAMII0KOXs6wcJNpFrgwrPrQ/y7zgDWZAQ1thoA/3rkU5uLoua0nsBOCulJWTG1aNWbEKbTxb5ba9GnUd2aojVwsg/PEe4nwxod9F1qC2aDt/Okj4/vy6KyeeY4Meu7KGLI2HDPoa2EaOX/qOAQBhBLjCC9u6wota1fR++LNvneveD2jkBjSADuvOqhz0S1138nLC49YEeu3Vw2srVuFoKKHOPcuzlToigOA3A8d+IysLCZI8ty7LCegicS0oyj93Jag2qGtiV+H79W4DAAgjQEeTDXkLA3jnHvY3Hvh7F0bYGfQDOqo7q47rzvvKMYG4uEmjrRWrELUCfxs7SeScjaKObNSR1gMIuokwxd/LTaIJ9HxKwakP3bt2HdeCffn3Cqn1+/rYCMABAAgj0I8Boq5f2k6+yPlOWvl+q0zQLZw3oIOJu00P6k5uu4Gjg7lVJ/bUDfh3YnxjxZ06wj+dKlKFRFbOKX47uvCcWVBTXLkWvC+y0S2hv9dJ7vcDACCMwPUmqfMeDOLZGqD9iaU8YnWXF2egi8mjXQ/rTlF2kbmZ8HczbzCxZ8Uq/PnslX2YHDFJoY54/2h2bp1Xpvg7Wjb8HWUjPjezngTSjK2Mu0PCxnkDAIQRoNmEw66nL26fOyVYbZnuOy8MmgIGDC9OeCwn9t0sy3rb5Lyp1UAXdWQ7gDoiVP1vbUl1PnUTwe+p3vhNNtLzkfWgE0LU+TfWIpAAACCMwFRXqKwH8NJ2LFnuJS7N978qX4rtawh0de9ZDWTA8KPd2Fc0lbUgSYDDdQ6oI9OrIy3XGKEOON4Zpkoo63aE//75wGpBPrbvYaKBub3xMwBAGAHiV8bnAwwifFytauUlwLBWse4GXndWI34mSHWeDLAC6sjE6kiLYYSdEAJE3Rsvre7OR/bvvB5wLTiUn99k9rADCZnzBgAII8Dl1URJXqK+fv16+Pbt2+Hx8fHw+vr6j7e3t8P3799/+8/CP1MUxa//TcqXON8pQO/rzm2qVaz39/f/1J2Xl5ff6sznuvP09PTrnwt158uXL6nqznZsg4eJuiLkQoLQ68BR9t4NSx05XkeOvb+oI0m/v6rnSE2Bar+zmxNbFhRj2d6kDF7sU9yL7+7uft3bwz3++fn5t3v/jx8/fvv/w38f/rmHh4df/7uE25DadqZ/z0uxzxo75wwAEEaA0w/Xm6YvbCFQEF7Imh7hzwh/VhgQTND2VKocYIQBuDD5EyaNwoRRGBhscoSJpjCxlKDujGrwsGEYYWvVKgyuk0AxpL2rmwamelxHZhObJM0jt+Ob+f1C49/bsrx3rsYyVlJuy9AolBbCBCFYEIJnTY7wvw9/TvjzEnTM0VVsmIEEYQQAQBgBTryQ1k6QhwG8MPjW1hH+7BBMaLDiaHB7tp1YuWAVECAAVw4Whomjto4wiBhWODVY3TSmVWZ19kldCQLC4J/9i75P/qojo5vgyYcejgEG8az6WzecEBxoGkY7dYQ/N/z5DUNqgr3De4bKnCsAQBgBEgQRQjAgDLC19dJ26kUu/J01Qwn5EAb0PuzpWNh+AhBE+DP81nS1UtUjDCDWnEwaUyAhj6ixaytWYVDP/1XuZ5u+BWLVkdGv2M7K7RuEEIDkQYSwBUOKjp5VjvD3NdiWdOX7Hsw46t45AgCEESBBECF0KegyhJAwlNDbAb2yrWD0oKrrF5hSECGsYO168ujYZNKY6k6NFavFiVXTOvbAMH/Xdbc/u1VH1BGAIQYRQjCs6xDCsVBCzU4JAgn9vAa35fPRTicfAEAYARIEEcILU5vbMVQ9woBijWR5r7ZsKFf87LTqAwQRjg8YttlGu04YLgTyJhpIuCm3X8jUIBjF/XjboGV0fq37QJ06cu2Jp891JHRnEEgAJlZz5h+6niwT/HmVgwhhQUufjqenpzoBNc/gAAAIIzDeAci+vbh9fokbWiChfHnOGwwCZ65jYGB1J6u6ivWaXXjOHSEgUXHwsLCFAdCze/Jtg+fQqzyTltvBqCMAw6k1sxOLL2p32Cq7Sg52Uc3nBTY1uiQIJAAAIIzAIF4IowfywiBZn1YTnTrCy2XFAb3NFVcE5AkGfrXoA4ZUdyqtXgohs74fYYKr4uDhXttOYKjvBBfM+1ZHwpYIfT9qTEJ1VkfKbjjLMki4Ur+AmveRfWS3nXVM4KoMNxSx983QiaavobSPR8WOObrlAAAgjMB4VkGFtqZ9TZAnmhhaHbp/GS8SDPgWBgSBAdWdeey9bygBuI91p+Lg4cY1AfQ0MNbbjl3qSHd1pHxfyY6cb5NfQJ37SZ0ulkcDUFW3Gu1zd89jRwjRVdwuyZgQAADCCPTyZTA6RR4m9YeQIE8QSJh3eP5XCYIIuYFAYGC1Zx87gTSkAFyD1UzLhBNE2zrtbQHOhBJ2fQojVJl8mlAduW3pPXFz4V0x9zsBKt5bmizG2H58bq7SzWcI3XESBBKEnAEAEEagly+CuzEHEWoGEvYdnv8s1Ys4wEDqTjb2CaQaE0mV9v2OnCBau96AhPfuRfnsefX9q2MnnyZYR24Sftcbe5UDLd3DN4kWZPyPsQcRagYSbl1nAAAII9C3lU5RA3lh/9KhHxUDCVmfvoOYFoUAA6g789j73dAnkGpMJG1TTxC55oAW7uOziPtQro6kOx4eHpLVkQvn9rZvXTCA0daRFFtV/hjj1gwJAgm28AQAQBiB3rwA3sS8AI5hRdHHI4Qqwr9T6lWqDb+HPCL1v+7i8wC0fM/bTWH1UoMg3CLxBJHVqkCbz7DZkfeJos3tw9SRenUkIhydN5gQXPlNADWCZXmCQMJZIRQ8pqNCyFmHNAAAhBHoxctfNrWBvPfj9fW1V/vtlS/ixwZyN/b9BkZUd5ZTHDSsGITLE08QWa0KdBFKWJbvFq1274qtI0VRqCNx53OdYLLPClyg6X29lVDC0LcaPXVUCKdZzAIAgDACV33hm8W8vISWoGM9wiBlW6uLGgzkrsqBXCtZgTHWnnyqg4bheHl5ie5mkHC1mNWqwOTqyFiPCi26lxHn8jbRnu1z1yaQKJSwSxlGGFOHz5rhtI1rCwAAYQSu+aK3idmeYawTQu/H3d1d63uvAhC/mnWsg4bvR+S+3/870T66VqsC6sg060gecT63DUMIwtNAG/f6RcP70y+Pj4+jrgVPT0+6IwAAIIxAr1/ubmImOca4PcPno8J2DV7gAFpezTrGttqfjxDyi1zJZLUqgDryx1FhRezywvmsU1t2QghAR/f8Wcwimql1yPl4fP36VXcEAACEEejtS93q0gtLeKmZyhG5usgLHECzFU6T78bzfoSVWi2GELYmigB1RB0JwYEL4fSqtWXhWgSucP+/KbeyfF9Q8/8u3bPCopMpHBUW1+iUNt7fxa7kHRAAEEZgeKuKpvLyFo6wuiim1bVrB6B23dlMvZXqx6OF7gj7MmhooBEYax3ZqiO16sjszCTGPiaQrUMc0KNasLSw5vfj27dvMbVg5foZXRBhf+a90DshACCMwNUfWude3mq/wEkZA9QbLLGa9dORoDtCCBauTRIB6og6csb6zHmdlasp/whhl6stTWYAfasHewtrfj8iF9fsXT+Tei4SSAAAhBG4+kPr+tKLyvPz8+TCCG9vb1HtSV1DAOlXME1pNev7Ebmq9ceRCaKNVtmAOqKORNaRPDKsnpWWJjCAntaC2aVacH9/f5jiERYURYxnzV1Ho/o9XOzu6jsHAIQRuOYD69ktGu7u7g5TPcKL66UHetcQQOW6c7G1dljRM8UjsivPf75PELmeAHVEHalRR0xGAGOoBSsLa44fLy8vtmoQRhBIAACEEejNw+rFLRqKophsGOHp6SnmYf7WtQRQqfYUtgY6fkR25clcR4AB99MeHh4mW0dCO3ITUIBg2t+mtl3PxyOiU87OdTS5MIItZwEAYQT6mSQPEyNTPSL32lu7lgCi687CCqbzR+hIZOAQQB1RRwDqB5ynHEwLR0ynHNfRZMMIAgkAgDAC/UmST3mLhvcjYqsGg3kA8XUn01r7/BE6Ehk4BKhfR6a8EtYEFDCRWjAXTDt/RG7VsHA9jeY3sakRSNg4dwCAMAJdPKzm5x5Mw0DW1I/Hx0eDeQBCcH0bOLTXJ6COHBGCxOqIOgKMvhYsBZzPHyGYZ/s3vwuBBABAGIE+PKhKkl84IvddNZgHEFd39kJwSQYOl64nQJj6T6G7zNSPyK3mbl1PwIBrwVrA+fIR0enTRPQ4u4YUFQMJ4R39xvkDAIQRaOMB9eJ+q2Ei3qTQD4N5AB2F4J6enowaHqL2+7aKCVBHhKlPHl++fFFHgDHXgt25e9zDw4NCcIjatmfnehrl7+Pm0iIAzwUAgDACXT2c3kZsP+AwmAeQqu7MhODijq9fv16qO1vXFDDBOjJXR5LVEathgdF2yQnbbTpsO+p38temQhhBMAUAEEaglYfSTFu7ZIN5wggACTryhG40jqiBQ4NFgDoiTH3yCNtVqCPAiOuBLjkRR8y2o66n0f9WlsIIAIAwAr0NI4QJeMffR2jxZ4UqgEkkYQQAdUQdAeh3GEGXnPgwQuhe55qaRGepwiIrAEAYAWEEg3kAk1+V4fj7CKu5rGICqPb+orPbv8fT09OlOlK4poCB1oIbYYS4I3SdiwgjLFxXk/nd7G3dBAAII9D1g+haGEEYAUAIrn+HlqoA6og6ApNcvbyvsMf7Z3n4Mwb0eYs6q7Ft/VbtEEbg8OcCgW0Yxyz/763zAgAII9DmA+ju3AtJ2GfUIYwAYBLJJBKAOqKODGQid2cit9VVtU3O7zXOcRbRmrwX57i8Hg4JFF2c44Sft3J7eFv2CCMAACCMgM4IwggAmEQyiQSgjgy4jgxsInfW8LNOZiK3wWfeDGyyPBvSOS6DGqk+735gn7eo+HfrjCCMAACAMAIG84QRAPij7qzO3Uu/fPmi4JTHy8uLMAJd/jYXH2Qf7D6wgrj7FblWEFd8f7m7u1NAyuPp6anR5N8AJ3I3JnJb/8zFwM5xMZRzXHadOKQ05s8b8/eHQJZDGAEAAGEEhBEGczw8PAgjAKSZ8NRSNU0Ibl/x3JvI7f9k+dAmnq0g7mYi1wri3z/nrTrSTZh6SBO55ec1keszf+6U4ZoY8ecVRog7YrrkhN+Ld1UAAIQRsLLoykcIZvRhYBuwgrijSdFWPrMwQneTSCZyBztZPsSJZyuIrSDu7ByrI93UERPPv9yYeB78Zx7a5015H847+Lz7a9aNS39m6DLmsPUbAADCCFx/Qs3KosgjBDOEESb127CC2ApiK4hb+Mwxn80qpugQXJUwgoncYU2WD23iue1JRpN2VhCrI+3Uka2J56t2cthPvDYPbbI87+h9Y2hBzOJaYddLz14hkOWI2rJHGAEAAGEErtsu++3tbfIvbz9+/Ih5eb43kTuOyX0riK0gbvH8DnFSNPlnvvT3PT8/GzVMGIIzkWuyvIuJZyuITeR2fA2rIx3UkQFO5O6G9Ax/7Ylck+X9+7yJAtD7K7zn59d4z7/0mw9bbToOh6IobDkKAIAwAlcNI9wYzLt8RO6xZyJ3JJP7VhBbQdzy+R3cpGjqz3zp+w8DZkJwUSG4pYlcYYSeTDxbQWwFcaefVx3ppo4MbSK3vBevG37mTrubXXMi12R5Pz8vlb7btW1HLx9NuuQAAIAwAp0M5n379m3yL28R+62ayB3J5L5JO5N2hwG3rh5QGGF77u+6v7+ffN0Je9xGfC+LMQZqTOQO8vNaQWwFcaef99JqWHUkuo7MI68LE7lAH8eyVpfuQSGYNfWjL89FAAAIIzDtF7itNHnjJLmJXJ9XGMEK4j593iLxZ84Tf77MwOH5I6Kd6iH1Oa9g19HziYnc/n9eK4itIL7K51VHuq8jAD0cy7q47ejUO32mDjgDAIAwAq2lyd/e3ib78hbZ4tRE7rgmnq0gtoK4zc+76+Dzppx4Tj4xauDw8hGxz/eu5nXR9F4RViPfmMgdxwriM59390H2weKdZ2hMQE2vjgD0sB4cdPpsFkzr8tkeAABhBKb78ja/9HIStimY6hEGMk3kTu7zWkFsBXFbn7ezidxEE8+tTYxe+rsfHh4mW3dCADDiu1l7hgFMQKkjDepI5joCRlALzm7b8+XLF8G0K2/bCQCAMAJEraqe8lYNFbdoMJE7gs+bcCLXCmIriK0gPn0+t5e+4+/fv0+y7kSuYHJdASagbNXQpI7MXUfACGrBSqec40fkFg0CzrT127wt3/l35f9dOi8AIIyAh8TNpZeU19fXyb28hYmwOhOjP//vrHwpztp64B7RRG4vPy/Q+j1hqSvP8SOs4LoUzHINAerI5Qmop6enydWQEMCIqCO5awgYSS2YXaoFYYHJFI/QIUgwjSv8Jm/OjDHvbQsCAMIISKx6gft0hP0FI17elofLXQCK8mHcSlaAfwcpDrry/H5Ebg20cQ0B6sjlCSh1xEpYYBL14OK2kGH7mikdkQtrBNNo4/eYRSw0EkgAAGEEJvzAmOuOUPnl7fD5ITriPIb/fh0GUF13wMTrzlZb1d+PiH1drWACUEfUEYAKnXLCQpMpHZELazLXDy38Hnd92oIVABBGYHjp1Ul1R4h8edscOY9Vtx5YSQUDE607tzGrWqey53fkalYrmAD+rSNL3RH+PcK2FDHvH64dYGS14CZm/GUqi2sqLKyxQIZrhREEEgBAGIEJPzDOvMD9fYQWfpEPz/OqA6JnbD9v+QAwgdpzsSvP4+Pj6OtO5B7fB3UCGNHE0bIMQzcK5qoj6gjAmT3qJ7e4Jvx72vaNK/4Ws4pjoZ5LAEAYAS9w01ylen9/H/PAvEvw0H1qGwfpYMCq1g/CCp8xH0VRxK4e0UkHGPI9f1G+bxSpVsfFtOcOk/RjryORXd101wEmvbgmdJAZ8/Hy8hI77rRw3dBi4HQvkAAAOAk0foELkyZjPcLKqbovbzGDoRUCCSacAN0RJrCSKXQciqwNmesFGOj7xTriXp/X/PNvjoQb1JEWB/vLc74qg9gmEIDBLK4ZczitQoecneuFPvwedesAAGEEPDBefFAMieuxHRW2Z9g1GQyVDAao3h1hjG22KwwaCqkBQ1sVt+pqZVxsIHjqdSTRdzs/0dliY6Ut0IPw22Gq4bSHhwddERBIAACEERjU4GERkygPk/djGsgLW1BEPiDPLwzQ5QnCCFbAAlOqPfspBuEi93QVUAOGFC7bXuP5N/b5O3QRGNMRub1ckjpSvifmEeG50Alj5jcBXKEOrafY7bNCh0+TvfRy4cGn5wjPEAAgjMBEHhajVheFwa8wiT+GIEKFgbx13wdjAQZYdxYx98YxBeEi9/fWShUYwj386mFcdaT9OlJjQmFfvlfq7AP0anFN8Pz8PIpaEP49Iu/JhfsxAwkkCM0AgDACE3pY3E8lkFBhIK9ym+wGbWpvXYeAlUzjnEiqsHrpbDcegB7cu2cJtymbN/wsm9g6MvQ9wyu8vxSpVhiGsEiD73aryw/QUV26jb03DT2QUGGr0WDVYiAxK7nPc+46KYTxAUAYAWo/KA45kFBhIK/x3nrlYO06ZuWYaxCY6EqmfOyBhKenp6sPGgIkvHdvEgURsi7rSHh/GWodqfj+skr4Xa8SfM+FDnBAB7VpO/ZAQqhh4Z3oWpO75fjW7sR9ftN0/IxJjzNvnS8AEEZgWg+K0QNOQwskhM9aYa/u5NsmlK1kNycexA3QAVMeoDiMNZBQcQLJihBgCPftJl0R8tSrKGO3a5hIHdkmPrc3CbtgbPx+gD6EnIcYSKiwNUMr2zOU53cfWefXqTr0MJrf5qVrR4cNABBGwGqn0+7u7gYxoBfasobwRF8mhMr9097b2mnHDQjCVZhIenl5GUQA7uHhoeoEnT1dgSEMKNeZiN61OdCsjrRXR8rQYJ4okGDVLNCHVdi/FEUxiCBCxe3eWrnX1qz/+7I+e8fx2zwXSNg7RwAgjICHxKgBvdCCuq9HGGys0Mru/YXJyxJAT4NwfR88DCG9igG4QjANGNB7QpWV8tuuJqDHVkdC6LtPdaQMU++vvTUHQMS9Kvq+FLpn9rXjZ41Q2qHl4F+TTjlbq98pf5/bMqS6KxdoGX8FAGEEBBLiXy7CS1LoQDDwFzcTQgDXqz27KvfsPu7/XWPlUnDr+wcGdK+O6UKwuUaL5qrvLyOqI4sOz/GiavBDGAHoYZ3qdcecGotqgnWfQn9nuvgYcwMAEEaAf140ZlWTz+FlKQygXfsI++nVeHEbdRChDJisyuSxRDowiiDc++rWa69oen19rbqK1f6YwJDv1/+fvTuKkey67zufhzxsHgLMArsveVg39iEPGyRpYIHNw1pyy3YiOdaQ7VgOBxlo3RzKXDuhk4IMEbS1Hla4oRMOzHXLJqEgFukWYS8pgVw3iUDyQOC6LZCYhSFIzd21Nib50MLC0WAGAxZEEsMdk7nb/2LdUbHZ3XXr3ltV99zzucAXtsiZYc+tW+fcc873//sPT3iXXmmFm3lk6fd6OGcLB/IdgGWNUXMfnEdKwqoLbOK/X6OoZiwBdnGP8JS9N9XwAAAAZATg9mJjvc5iIzbSQghYhYRQcxOv7yLCcZ/jaLJAtykIIHkhoZThln2YFIdHsXFZcyOOiAAgdXH5tujalYMF88hK7vlmhXSjA98bAF0XEoI33nhj6VJC/Pfiv1tzLtgplru3dNCCkDDwjAIAAJARgMYbeqWUEJt6i1zIxYbhW2+9VVdCyCUR4aDCPSAmAOjSuLVbZ0yPw6TYyFtk7HbMOyG/Rbx3g3mHiAAAi51H9no+j2x28L6HoLJ9ggQtlhvAKsalQd0D80goWHT7hhDSGkgISxURjtzXrYZSwtDzCQAAQEYAWtvQm+7JGtJAG2JC/BmxgVczvm6a/b7Hw00WifNubhITACRbzTQ974QQ18aBUnlwFJuFNdoAOZABAPNINvPIZO24NUnNGIjjBpDYnsiHimyinU9bYkIICPHnNSio6Uw6zuTe7kmIAwAAgJuANhca2y3EsY0XXSESxOZeLOhiMXZcJGr8s/h3Qfza+D0tLNhuG+Q5bIyd0NOXmAAgi83D6UrXiMGOuSQOg2JeOUmOm5534tCoQeVqdgIcAAe/5hHzCAB0cC5oq73AeC4ImSCKbWKsP0lYi38e/z5+Xfz6Bi15jtun2ejY/d2YI9nuwDMJAABARgBmLTI2j4neTIms4rGbxBIeXTCq5gWwws3D/YTnnWDbZwlgAe/kOyLxl3sItUKGPksAaCzv7SY+F+x1WUqbtOvZkRIHAABARgByXsTFwm0tw89q1KLIoRoLwKrGsmGC885B1yqXAPRSQFB1WG0e2TaP9PrzHUzeFbbcEwA9K7CJn3eQ4NptdCR1c80zCAAAQEYA5l1gbCRSZTTKeVOq5WqwgWcfwIrHs71E5h1VrACWKSDox2weyfkzPS4hZNvBF4BTDst3EhERHOIDAACAjABMqlBGXd3EU83feDNbRCyALo5nBzYMAXhn885W8x5vdXwesX6pfqA463OMRL9N9wtAYoLanmQcAAAAkBGAD28EdWVT74CEoMoOQDaHSXsdkd9ICADaOBRp612ajJDePKKSv96aZp414sAaEcAxY8lGh5ISdkkIAAAAICMA1Q+6V7Foc1i+ODHhwP0C0OEDvJ0VpPTsTw6yHGwAaEPsbXMMW3dfzSMZfG7DBukTviMAjo4pa5Nx5WBFBTWENKCdd+oNUg8AAGQE5JeWsKiNvVEpINjAW7iYMLJhByCxcexggZGpA5uFAFoeuwYtjlNSEcwjZIQ5ZBD3EsAJktpwMk4sSkbbts+y0M9uaIzPbg96++j3zL0BAICMgDwXBFuTl8O9OQWF0eT37Ew27yzYFv95bU0Wb+JMAaRc3bQ5Gcv2ahwslfPOUGUFAIeq2c4jWy3MIwPzyMLWK21VJVtfAphVaT2cFMTs15ijdye/f9P+ykLn7L1TWuqZh/v9+W+f8v0zxwMAQEaAF8YfRmgdg4ohAMAi5h7zDoA+HKraXDeP5L6OPGgxdc8BIYA6RTfHzQUOP5c/H+xXlM+2zdW9FFEkhwEAQEYAAAAAALRwqFr2lnZwCt+d9w8C2xISBu4pAGQjde5LAu2VIFo1sYqIAgAAGQGAzUS9/QAAQLbvQaMZG6ib7hVw7Pdnc5IUMmogI6iaBIA054Cm7a527UFlISOUSUg+awAAyAgALB719gMAAFm+D60dOVAdiRMGliYmOJwAgDTH/UFLCTn73rmS/PzP1BRQpGIAAEBGAGDhoLcfAAAAgIWLCQfuFwAkvac0aklI2HNPk3wGtmt81iPFTwAAkBEA5LVJqLcfAAAAgGWLCfG/190jAEh6jF+fFLG0ISSYE9IUUnZqft7b9hcBACAjAOj/omGotx8AAACAJa0/tiZrEIIzAPRvfN9vKCMM3cukP/86n7l9RQAAyAgAyAiV2jiw1wEAQFvVVeVh5dA7BgAAQFLvchsNKuXJCGl/9us12nYcuHcAAJARADCXqwoJKpsAAEDTjeuRjWkAAIBeCKbDOVs4qJLvx+e+rz0HAABkBACYXiS01dvPohEAAMzzHrI26RU7813E/QIAAEj2nW/zkD0V8ll95vOkY2y4ZwAAkBEA9HuBsN6SkKBqEQAAVBEhBzUqpkiPAJqMOUPjCAB0RkQ9moQ1Uh3fy8+7ahrrmvsFAAAZAUA+i4RdMgIAAPCeAaAn0vVxB15RrbnpHgHASkWxrYkoNtD2M7u5eJod9wkAADICABWLVbGhBwAAjtuAbCOBaeB+AphzTTNr7CEmAACwnDn5uD3GffcHAAAyAgALBr2cAQBAk43HUQsiwkjFHIA5x5+tGuMMMQEAgMXNzZGEsTdh6P0eAAAyAgAcXTRsTDboRqKTAQBAhXeHQQsiwoEewgBqHng0EaCICQAAAAAAMgIArLDSaDjBAQEAAGj7MDAkhC33EcCSkhEIUQDQ73mhbEk69I4JAADICAAAAACQ52Hgng1iAC2NQXstCQlaxQBA2vPB+jEpnyOtAgAAABkBAAAAANKuQDuoeNi3Gy2h3DcALY9DwxPazM3LwP0EgF6+j5atedbcLwAAQEYAAAtIkXoAAKRfiTaNzV8AyxiLtuaQo45j6D4CQLLjf9WxfoccCwAAyAgA4CDjqL1uoQgAQLfn8bXJnD0SiwugA4dSddo3kKEBIM1xf1izbdim+wcAAMgIAJBPIsKsKqb499sqKwEAAABUWGNsTNrDVDmUOnDPACDZ8X7QIBXngIwGAADICACQR/XSPIvF/cliU7UlAAAAgNPWGmVyy2m9xNfdKwBIusBl1EBImN5rUgADAADICADQw4XjsMFicZfFDgAAAKDCYdXwSDuZHQdPANCLMX69QuJmpT0m9xMAAJARAKB/i8ZBCwvGcW9q9xMA4LBtnDg0lCIEAACAzN6Ft5pKCe4jAAAgIwBAPw9O2ojUC/bcUwBAhnPpxqTCdyR+HAAAAKSEv9gjIwAAADICAKBcKLYVqVdo2wAAyGTujD7o2xXmzwP3CwAAAJkKu7tkhN59psMJG+4JAICMAACYd1GxeUJl5zwM3UsAQE/nyTOT9gv7RD0ASE6+Lg9PjMkAsHyJd6fCO/O++9XpddBxn+GO+wMAICMAAJYtJtjcAwD0bU7cmreqi6gHAJ05ADsuKnw0ERPOuE8AsNQD7eEJ+0wxVq+5T51eD50okfjsAABkBADAssSEA/cLANCzSto22hgN3E8AWMmh16wkm9FkneMQBQCWOz5vTSXWrLsvnf/MdivMp5vuFQCAjAAAWKSYMLKABAD0rJp21IKIMFJ5CwArO+yaZ7ze0f8aAIBj59Q9iXAAADICAGAVi5HSZB84aAEA9GyO22lBRDgg6gHASsfyOmP3nupOAADmSkY4Oo/aIwQAkBEAAAAA4JQNtyapCLFZt+U+AkBShyfHCWXGcgCA+fT9lFRSNgCAjAAAAAAALWy2nalxaLUvKQgAOjeeb7WQciN2GgD6844/mCR8ks3mv391kuPcZwAAGQEAkNziZ32ycLR4BAAscqNyv2LFz/Yha+4bAHR2TN9vSUhQ4QkAae8lHU0+G032lsjE1ddIdYSEHfcYAEBGAACksOhZm/SdK45ZPMbCZsN9AgCYdwAAx4zn+9IRACDrQ/SDU8b38v2eYFztfm7VaGm3494BAMgIAAAVqgAAHF9FJZEHANJfT8ThyS4ZAQCyPDyfp4qfdFxtjXQw5zy66d4BAMgIAIAubx7q3Q0AAACgjbXFoEZaAiENANIc94c19pT2HJ5Xmk/nkfx23TcAABkBANDlRU6TSNVdm4cAAAAAjqwx1ibJarOqOw/cLwDISkaYTuC0n9TO/d1zvwAAZAQAQJcXNwct9HmNP2Pd/QQAAABwZL2xMYnnHh3TS9waAgDSHd/X7SctZQ4dSUYAAJARAAApL2y2W1g8lpuJWjcAQHrzQNnve6gNDwBgwXOO+QYApCPYT5rvHq/NaIG05T4BAMgIAICuH0KNWhISBu4pACQz/m+qVAUAAADQkmx2YD9pofd455j7tuPeAADICACAFBY06y21axi6nwCQpICghzcAAACANqSEPftJC7u/G5M0imDDPQEAkBEAAKklJMSicbeBjLDlXgJAsgKCMR0AAABAW4fmu9YeAACAjAAAOElMGMzoSXcca+4fACQtIKhOAgD0bU5cn6oiddgFAMsdg9dOaC/wAdwrAADICACAvBeO2xXaOBy4XwDQiQOXNtru6NsKAOjDvDg8Zn4bTQ7GNtwjAFhq0cvwBFmaBA0AABkBAIDbMXvHVdrG/153jwBg5Rt8o5ZEhPhzzrivAIDE58VZ893BRLxec88AYGlj89ZUYo29JAAAyAgAABy7gCwXjwMHVgDQiXF50JKIcGBTEADQk/XKPPPfvrUNAAAAAJARAAAAAHz40GXYMAkhkm823UsAgHnxL3ZDZnAfAQAAAICMAAAAADh0mb8ClIAAAOjzvDiQFgQAAAAAZAQAAKpuKJ6ZbCoOVSoBwLFj5AEBAQCA2/PiqAUhYaR1AwDYTwIAAGQEAEC/F47rx2wmlodqG+4RAMwcKwkIAIAc58WDFoSEgfsJAL1bIw3JZgAAkBEAAKha7Rv/fvuQNfcMgDFT1Q8AAFNzY7Qy2m0gIwzdRwDo5X5SKW7bSwIAgIwAAMh883CezcL9yUEcwx0AAADAUWFvf871BbkPAPq/nyR5EwAAMgIAINPF47BBFdOuzUMAAAAAR9YYa5NktZkJbO4XAGS1n7SXa4u7ydy4M7kH9tMAAGQEAEA2i6FBC31eR+JVAQAAAByz3tiYHL4c11N83T0CgCyLWw5yOow/paXFvuRRAAAZAQCQw4Jo1IKQMDbc3VMASxizhkfGLVUlAACkMY9vTeZxbd8AIP0xfb2FfaSDHMS0iZR3WoEPOQ8AQEYAAPR+AXnQkpDgQBDAIsaptROqKo9Wlay5XwAAAACwlHXaXktpm2d6fI827KcBAMgIAAC8v0DarHDYN4uhewmg5Y2bnTnGoH33DQAAAACWJo3vtyAkDHp8j7bnuA87nisAABkBAEBMYHIDWM4YVKvKxv0DAAAAgKWt3c5M2vDsKmxpLCOUiX9aGQEAyAgAAGLCcb3+3C8ADcebrYZtY0buIwAAmHq3iJZ0wwnEaQBYvJgwqJGWsNXje7JRs3XFumcKAEBGAAAQEyyUALR3UHDQQrznjvsJAAAm7xfDEw54Yj2z4R4BwELH4LVJKsBB7oUtc7YelD6KPn4HdvvcjgUgIwAAsNgK5uHEehchB6BJ9cyoBREh/ow19xQAAEzeL2a9OxxMDsq8PwDA4tMBsi1smcxJ24R7ZDwGlG04d+0hA2QEAAAAYNmL0kELIsKBdBYAAHBEnJ63RzfJGgAUtixayqiTCLjt2UFPZIRSQtpwXwAyAgAAALCsRemwgYSwK7oSAAB4vwAAJJSSsFtjbjrT8b/X2kS22JgSTqYp/51DaDICyQYgIwAA0OmX1/WphYwNQkDlonsIAADalhGm3znW3E8AwALmqc052xVudOhnX5+syXcmc2XdNot7k/l60/o+SxmhfNeScgmQEQAA6IxhvXfC4mWHWQ0kXxlyoKczAABo+aCkaIE99xMAsOS9rs7JCJMigp05BYq559yJ5GDdn4+MUO7tDtwngIwAAMCqDyr3K/aMd1gJpHtgMCIbAQCAjqUjFCr2AKAX683OpmxODuBnzUVrK7pvixYQThMTtjy/WcgI022yJGQAZAQAAFYmIxRi3IEsvusDbVgAAMACqjkPGhyIDN1HAOiVmDaa/PMzHfo5108pxNle8s+yOUdiw6Lp3GeFhckI5eetIAUgIwAAsJKX1iYLl10HmwAAAAApoebhChkBAPpZ3FKm8a116GfeX5WIEIfAHZIQSAl5yggrEXAAMgIAAPgrDSuZpts4iFgFAAAA8l5bbEyE5arrCGIzAKQroVUd6zvTInAyT20s6+A9ZIwOSwjH7e1ter57LyOUqbf2cQEyAgAAS3tp3W7RpGZRAwAAANYYa5PDp1MPPdwrAEh2nB/W2Dfay+mwe9IqcZSIiHA0BdX+Xr9lhHIfd+AeAmQE9GtSWJ8yLzcnL2zDiUVa/vMN9wrACsanMy0ujrzEdmsDeGOKY+cdC8ylfs+GU9+1zkVWAsAp65cN6xcALb0DTW+Aq8hL4/ObngsGU/PB9D/3TguQEeatwN/q+di5sDSE69ev3+bq1auLbN0gJaHfMgL5BCAjIPGXjVI22Kt5wDea/N7tyZ9lUQdgGQcObbRrGLqfK/n8ykOi3Qaf497kcHzLvLOQqsDRKXO+jXgAXZlH9hrOI9vmEQCn7JVsTcaagU3vzq4JB5N31/2ac8H+ZE0yIKwBWYwZWn4e/17duOAnJIM33nijeOutt4p33nmneO+994pZV/y6mzdvFqPRaCwqtCQlbHveey8jlHtT5m2AjIAEXr6GDRZrVRd02w4sACxhg3C3wVi15V4u7YB7sOC+gweTjUgmfP0NiJ2q99o9A2AeAQCsaP23s8AY8dFkfblFQAEcgva95edkrKt9L65duzaWD959992ijSsEhpATQmpo+BntGcN7/z0knwBkBHR40TZYsIBw2sbe0EsAgI6NcSP3bikL270VzDujiRCn0nX2Z7RZ8zMi8gAwjwAAlinNrqKP+Y7KS6B3guu+lp/je7Fd5+/+/e9/fywLtCUgnCYmvP32203aOuw7i8hCRig/awWxABkBHXjJWtWi7aSFnE09AIse97YrxDYP3a+FiSHDltpotMGeDcQTD/gOtDgB0OF5ZGQeAYDs31f3OzIXHJBxgd6lrOzmuh6eIxXxAxLCD37wg0rtF9q+GkgJhIQ8ZIRSJh+4vwAZAat5sdrpyKKNlACga1U0e+5P7w+PHCa1WP3Qx0oQAOYR8wiABApKRrklTU6Suw46OheQEoD+vX/WSRLeSvjvPPd5wTKSEKpc0RIipAhCQr9lhJBeRqNR3Xl61+cNkBGwvAF90OFNvA+ZpCYIAEusrBnaPMpuw/A4Ge5Mxp9ToUcmAPOIeQRAJ8fC9VP2ckZ9L+qY/P33EpkL9kRCA72UwaqkbB4kfmZQeayLNIJ33nmn6NIVyQw3btwgJPRcRogrnr0a8kn5zkQiB8gIWPDCbT+RhdtRs9wEAQBpVhHsJjjvZBnf1tJndWDjFYB5ZDyPbPoMAbQ8Hh7MIUVt9OzvP0xwLigmB5cOuID+jcknpWyOUl0PTwp0Ko9vceC/ipYMC0xJ2PVspyUjNJBPbs/R7jdARsCKzcZ5uX79+phFL+J8lgCQVBXrwlJ4rl27Np53alrQ4tuO/8ya3iupIgDMI2JAAXTgkGiqOn8z8b/3Qotqoqo35oKavcbnqbgl6wL9Hp+Hk733MwmPtZXfu6cPg7t83bp1a953fWcPickIDeQTczRARkBXq4ligRaD/c2bNytFMMWEH782fk+LooLYJAB9G6MHfWsPMakAauWgKPrAvf322+N5Z5Z1H/NO/LqYd8KMbumAKYtK/8mzWGdOHpiXAZhHzCMAOp0McJDiWmNywDdqQziIfuZxUBFj/Ky+5vHv49fFr4/f15KoMCLuAujwXkDldmjxXp3SFe//sSaYY7yWbpagjFCu5eb8rKcZuPcgIwArMshj8y0WXiEUtHXFgi42BBsu5kY29AD0ZIwendDrdSPhRWyjPq5x+BOL27bi/mIxEguVFuadraL/GxD7FTezt/vcjxiAeeToPNLS+sUhFIAm4+MgJzmqaVuGOIwImWCWeFD1ij8n5pYWCm12PM8AOjbe7vRVRKgpJIwUXKQpI5RXrN1qztF7PnuQEYAFxysdTUBYxstFSA4NFnKjvvVABMA8T/nQd47D7GOrlWKzcNH9BuNAKSS7BpuHfRcS1k5Y9I362HsYgHmkjlhtHgGwwjFy1FKF/pmO/1136hbUxAFEWwLCaWJCHIQ0SM8hJADoyni72XcRoaaQsOv5SFdGKNdtNefpkXQMkBGABYsIIQZUab+wiE29BlKCDT0AKY7TW32Kw697gBSHR6tY0MYGYoPDpK1M3iOGfWsfAqB/IoJ5BECGez0HLQgJgw7/HXfqSAhxMLFoIe24g60GUoIWpABSKJLphYgwPW7PMWY7kE5YRig/70jNq/mutG2eBhkBaFlEiE28NlsxNJESavb1saEHILWxukns6G6Xxr06B0ix+IsK1lVfcZhUU4Yz7wCAecQ8AmCVYvNug/XEsC8iQiQhLFtCOElKqBMH7XkG0NI8MJrsM50pWt6XinG2T1ckZlZtbeRZS1tGKK9YNzYQB7UKBxkBaENE6MLC7ehVYxE3MjEASGy8bqvn60ZqB0hhJXdt3gkhr8bCxEESAJhHzCMAVj2GDmoky2x18O8yl4gQhSyrSPacdcBVo8Bmx7MMYI6xcm3GmF+2WFyr8OeMqoy1fbzicDpleY+M8INlzdGdT5QCyAjodLRSWU3UtYXb0QkiEhvmFBLWPAsAEhqz2+j5utLNxFkLhKN0oYr1tIqmGtWtG0t4TjYnVQ/i4QBkt9F0dP3S5YjYmikJG54DAC0eUG1X2RdKXdSONjldk9Kmryj6mTcK2jMMYAES785J75pVBLB49473275eFeP7R/Zi+iEjNJijb6cZeRZARgDm3MgLC6zLC7fpg6E5+/rouQcgtTSbNnq+rmRxNNnsrHyAFJJZCtecC5OFiHBTm8mjI/8tVbQA+jQPbs/TVi6VeSQOyQjVAFY8vm5MDppGXa/ynIi3lcfNVPqWx885Z2KO93wAVWSEuoeom0f2G5IuJmlLJK44TktH6JGMEFcU6NZs2zCa/i4BZATkOEAP+2KQt7ChJ+IOQGpj+OYpm4Wd3LyaZ9MwFQHu6ObhPCJcy/d1VxUtgEzmPvNIy/MIABwz3m5N9oyGXWtvWTUmPIV0z+OukOjmOOzQfhRAlXGzaavPrSrnCH1tz3D0qtiu4cCz1y8ZIa4aRbAfSDRSEAsyAnI13iuLCKlecwoJDDUAuYkJm0v8GSu3mEjxAKnmQdJ2w/s5mCMlw0IYQOpz3Zp5RMUVAFRN+EwpZa2hkEBOA7BIGaHkvVm/JjX5q8lVsU209JqeyQjTQkrNlIR9EiHICMgtnumg7yJCDSFBPycAOYkJB0v+uXb7foBU8yBpY877uF6lT6OFMIBcD5/MIwDQ67lg0HcRoaaQQE4D0Hg/pgnXr18vcroqvq/vev76KSOU83SsPWt+ZwY+M5ARkMPAPKy6kdeXaw4hwUsCgBzEhKXGeVaN1Y7NttQPkKYt6TYTCyaxiPsNNwhsUgJIeT6bOc5FhVJf5pHYLFMRCwD1EnL6Up0bBx1zvOuveU4AnDJ+HixSRsgpFaG8KqYjGJt7KiOU12g0qvu92VMYCzIC+v7ykdVGXlzxd5nDVFNdBKCP43/Z42+wzJfdqmk8faheaiDCDZsKhMxrAD2evyq1+cl8HjG+A+jLeD+YvP9uHfPvK6WDhRTcp2uOtJw9zxGAJRQ5HHuOkONVsQjFe3rPZYS4Qsap2bZhpHU4yAjIOpapbxt5cb377rtVJwULOABYchpPbLL17ZpDhDu2TdCkJUNbGwRaEQEwj2Q2jwBAQmP9+glpbiEgbEyYOR7euHGjlwdec8hpimsAVBlzNxq0f+y9BDbPu7oUZjLC9PMQ7yE1v0fb1nMgI6BvLxozB79FD8yrvG7evKmvNgB0rJq1r5uGcc0RrTqsewBXpRXEMttyAIB5pBvzCAAkNNbPSlK7mVvC59EDjopx4IprAMw7/g6btnDo69hb5apy+OxZy0NGKK+Qc2qmJOzbuwMZAdmkIkTlTd+v69ev670KAMtZ1O5WidXu+8K1Yt/vD1W1NpQRykoycW8Aep2KYB6RjgAg+bF+qw0BN4pP+nxFBLR0BAALHIs3Zx3mHkfss+d8VWylY1zOSEYohfI5WoZr7QEyAno1GK9VGexicdP3K9o1WMABwELnnPWqZn0ucX4VK5mGDTdmCQgAsktF6GN7hqPXHBWxNq4A9FI8yzkhZ/qq2K5BOgKApmcI21Xew3Nu0TD9ni7BjIxw0jUajeq+2+wRzUFGQKqD8fasQS4WNblcFauL9HQCgHqHR5VEhDhYyeWqaMsfHHM/DwgIADKdT7bMI83nEQBIYLwfNJURougkl0OvitHPa54tAC2MzzNbPkcFeO5XhQp4ZwyZyghxRfFvzbYNI3t9ICMgxcF4ZPFmAQcAS5IRKr1Y51DNOn1VbBO0WXw4ZWJEQACQ4Xyyn3sk99GrYjqCdDcAvUzCUVjz/lWxuGbbswWghfF5ZnKNq1L1u3bQGcsI5VlUpDjVfNfZlpIAMgJSGYg3Ld5qL+BEnQLA/POOVIRjropVrTsnbNAOJhsBW54xABnMI2vmkfbmEQBIYNyv3OYt58Ka8kCjSjWl5wpAC2PzzmljTRRcuKq9o3ue8pYRyivamtRMSQhRf93nDDICkn5xyDVSKRasVQZ6zxAAzD3v/F9SEY6/KlS12jgEYB6pENltHjGPAOjl+L81j5QQVYY5XlFQJCkHwKoPd3Msbjzuihh+6ctkhKpXnMNVaO2hcBZkBCQ5EJ8adxeDX65XxXgcMTgAMN+88x9mja1R0ZPjVTGVR/sFALnPI6e2aIhqEvOIAygApITc2vVMH2Ro1QDA4W43roqJNd7PPa8fuCq09ziJPedVICOgi4PwxqwBLOJhcr0qRp1ueZYAoPK8c0ZroJOviqk8Ng4BmEfMI+YRAA4VZohpOV8VknIkfQJoOg5LKqt4kRHICHWuSNWo2bZhpJAJZAR0bRAe6q/X2Fzc8SwBQOV5Z1MF0+lXhTg2G4cAzCPmEfMIAIdgxLQTr4oVlSonASxsHI6DVBcZgYzQ/HyqYnr3sRK6uR5kBCQxCOfcoqG8Kgz2NvMAoEUJLtdo7fKqErHtWQJgHjl1jHQAZR4B0O+5YIOYdvpVsUe5qkkAZIRuyAjGYzLCqVekl9dMSYgWh+ueAZARsOpBeHTaYBUbWblfMdDbzAOA5bz8X79+Pft5p+LGIWsegHnEPGIeAUBMIzg3Ofwaep4AkBEWf1VonWM8JiPMvG7dulUlBe8kBp4DkBGwqgH4DJPcZh4ALHnuOSDBtbJxaBEBgEyd6CbSoq+KrebMIwBSngt2pHzOvkLQmzEX7HmeAJAROrHH42yBjFD5qtiK6dh5X9sGkBHQyVi7sK1clV4YtjxTANB8sfr222+bdIpK/b5Z8wDMI2Rq8wgABwrH8MYbb5gIqh1WaDsKgIxARvDukKDUHt+vmm0bRtqCgIyAZQ/AW/qtVrtEKQFAK/POusVqtevGjRuqmACATF37Ug0LoOfzgZScCpe2owAWPBYfGIvJCGSE1V2RiFdh//AktqUkgIyAZQ3AQ7F2rW3mXa056JfEy9v6kg8E9/28nf15R8sWXCbjwcgz4edd5DNc5RDJ9f4Vi6AZ9+qmZ3ihP69xws9rbu7gM2EeaXUe2fMMG4fNze5xD54JgvMpV8W2o55h75eeCT9vsQjICO9fIUsb1zo9riX/vIZ8WDMlYX+ZzxfICCAjHEscwLvevyLib1EvZkcm6/UlvVT4ebv/8y4tcWPWWOCZ8PO29Qw7RGr1EMkzvJxn2D2u8fO+9tprxYsvvjiTb3zjG29dvHjxMz/5kz+5cYTBIcNT+DeH7BzyR4fsTfhRc3P/n+GIkzSPpCEjeIb9vOZmP+8SnwkywuJkBM+w90vPhJ+3Ns4WWhuLjWuLH9eSl2dCeqnQqu8kBs5LQUYAGSGdQ6E22F/C537g503m5x0taSwYeSb8vMt4huPl9rRfHxav6/0rep57hjvx867kZ75y5cr4sP6xxx6bm9/8zd+8Ojmw35k6qK/D6JAiMb5kbu73OCHZrfr19ttvrzSa2zPs5+3b3Ozn7fwzQUY44fIM2/sxN/t5VzEOB9H22NXauYJxbcHjWl+SPEajUd17sKdtA8gIWNRgvUNG6JyMsOhNwTN+Xj+ve+znXdXPS4JbjDnvGV7sz7vIn/nw8PzMpz/96U+GRDAcDosLFy4UCQoAXWNgbu7vOGEeaXce8Qz7ec3N7nGfngkpOQuVETzD3i/dYz9vLaKnfe7XjRs3PMMJ/Mx9kRFiHVizZcNSEjhARkCeMsLeaQNQWFSu5csIizTQFvSy6ef14uaZ8POSEVYoI3iGl7Kp0vhnPjwkXz9kc5JaEMkDB8SBhfC6ubm/44R5JF8ZwVzn53WP/bxkhNXKCJ5h75eeCT9vHSL1Mfer5sGwcY2MMPfVIBVhVyoCyAjQpiEvGWG0hM995OdN5uctljQWeIb9vEt5hs07C5ERPMMLfobn/Zkj7eCQjajQn2qVQBJYHm+Ym/s7TphH0pARPMN+3q7Nze5xFs/EB3j33XdNBO3KCJ5h75eeCT9vLd54442sx+Bbt24Z1xIZ11KWEeI5i5aFNdMQBs5KQUYAGSE/GWG46s/dz9upn3dvSWPBnmfCz7uMZ/jwf2+pYqp2Ven17Rleys976s98ePC9NpV2sCvtoBNcNzf3d5yIjZLTfm9UHbkqr18OPMPmuj7Oze5xts/EBwghy1WM49E9w/Z+zM1+3lWMwyVXr17NehxuUKluXFvyuJaqjPDWW2/VTd/Y15YBZASQETp2xb2YMXj/f03txmW8VBz57Ed+3s7+vMXkZerMkn7eMy28vHkm/Lwzn+HD/71BRmjtEOkvPcMLf4Y/8DNPpR1sSzvoNP+3ubm/c515pNV5ZM8z7P0y9bnZPfZMkBFOv+Zs/eYZtvfjmfDz1uEdY/LJV8gYmX3nUhzXkpQRQji8ceNG3b/vtvNRkBHQGRlBZdFcMsLQMwUAM+edmYdIIlUr2/N7nqnFIO0geUae47znkdiUcZlHAPR+Pjh1jIuUMdfqW/YAyGI8XteqoZEQ5lB4ec/qXl9khHi2aqYhhGiy4XkAGQGd28xzvX9VGNzJCAAwe95ZY8y3JsHteqZaEQ8i7WBrKu1g5DA/fTzb5hFXpXlkxzMFIOH5YL+vfZ/bvCqk5JA4AbQxJh8Qhj98hYRR4XB40zNERpjnatD6Y3dZiRUAGQFzywg284pxlW6FwZxRBgAtVDFFrzMXCW4B0sHaRDwo0w72UzhUP3/njxaf/Sf/bS0ubv3d4suD//pDxD+/91N/LznB4O///b9f3HHHHcXdF+4hI5hHzCPmEQDmgj1tR1s5CJOSA6CNMXm7bxH4SzpPOPD8kBGqXrdu3SquXbtWNw1h4BkAGQE28zp+3bx5s8qgvuZ5AoDmVUy5xvfVWLSy508WD9ZTTDsIgeDSL/yt4rn7/6ti/1//58WbX/yrRfHEX6lN/P74c+LPiz83/vxUxIOf+of/sPgn/+R88c/u++Xiid97qtj/P/+f4v/9i+tjvvHin5ARzCPmEfMIAHOBtqMVrgqHFlJyACwlvSzG5ZzSESqmImjRQEaodMUZXc22DLF2Xvf5g4yAzm/m3bhxI/vFW5XoG88SAFSed3ZOG0+vXr2a/bwTPW4rLCiyX0wcHjqfmUo72Ekl7eDOn9oYiwGRUvDSv/wvi9d/8683kg6C+DPiz4o/M/7sSFRIKe0gpIOHHnq4eO5/e+G2dHASZARM4iXNI83nETI1gJTngq1Z41yIWTlfcehXYS5QKQlgKQe9OaUjVBSDvY+TESrN5XE+V7MtA9kFZASkcyjEJq9kkou1A4Dq887AxuHpVwWDPrverlNpB8OU0g6iHUKkEoQkIO3g5LSDeSAjwDxiHgGAEHMlfbYipm14ngAsSxLL5T09WgVVuBe7nhsywmlXtE+vmYYwMr+DjIAkXxSiTUGuV0WT8d9M7qOoUwCwcdj4qrDY6K0EN5V2MEg17eDy5/+GtIM50w7ICDCPLH0esfkJoA/zwUjSZyMxzTsTgLbH5YNZ404c1Pf5qtjumQxGRjj1qpLUfdI675AzPm+QEdDFQXhmT6ec+67GRmaFQf6tI+bZDjEBAOpvHEYiTa5XxYVrL+JUJ2kHm1NpBweppB1c3Pq7t9MOrv72X5N20DDtYB6+88p3q/xsNnbMI+YRsdwAMk/6DHLqTz59xd+bmAZgBeNypXSEvorDUdRYsZJdyjIZ4djr1q1bVVK6T0pDsMYDGQFpW4sxiea6gIueszUtNGICADTYOIwX8ByvKhVMURWcmHRwNO1gL6W0g8f/2d8cpx2EMCDtYDFpB/NCRkCVeSTXVg0Ve4queY4A5HDolWtSTsUWDX8U99CzBGQ7hp6ZjKPDSRu0My39uftV9s37uOczxyHyumeQjHD0ineWmm0Z9j1TICMglYF4e9agFguZ3K7oy9NARCAmAMDJ886mVJ4PXyH+VZhPDjouHqxNpR3sppJ2EFKAtIPVpR2QEbCIA6gc55GKLeb2Oyir1WUwmW/qsD2R4+pSZ377y0P+te8w0OpB2qljXhSY5HjNWVU5mhxGinUG8hk7h8ckjY3aONCM9gNVxp4Yn/tU/FixsCTY8RySEY7uBVYUyo9j22cLMgJSGojXLeA+fEUPqxZlBGICAHxw7hlJ5fngFQufCnPIsEOHSOVB0HYqaQdBmXYQooC0g+6kHZARUGMT1TxSbx4ZtDz2j1IZ/zvEH/oeA63NB7uKa1orrCn3qqTnAP0cL9cm3/HRoosfqqSYla3V+vC+XjGNphxniV9khA/M2TXTEOJZsu8BMgKSHIz3LeBaWbzNy4EYHQCZzjszF6dd6Ne2TBO64gJk6ZuDk7SDjZTTDkIWkHbQ7bQDMoJYWPNIt+aRVMf+RPhPh/yIsQBYTlJOHHYprJmbHYccQG/GyY2qcsCErWWIwyUxZmUiIhQKE8kI09doNKo7R++SWkBGQK8XcDmlIywwFYEVCQAVU3niUCWXnt8Vq1n3liAexMHTVmoVryEGhCAg7SDdtAMyQjZj/+YJFVlzx8JWiYDNaR6puJm126exP3EGxgRgOYlrORXXLKCwZs/hGZD0e/deje/9sMX/flFVSEgxIWFOEWHXc0lGiOvWrVvztlOaXjNbQ4CMgP5HneZSXXTz5s2qE8D/0eICz0QCwELgGKJvWt+vij2+izark46peN1PJe0g5IAy7SCkAWkH/Ug7aFlGsGmehoDQOBa2yjwS/Vv7fsWGVpV55Ktf/eq5FMd+MgKAGXPBMLfe5Cdd8fdcYKrnlucNSKbg8KALe9TRz77qfze1lg0VC0qmx1CFiGSE4q233qrblmFfujbICMhqAdf36qI54k13pu7ZqIWF3dAzCCDDeWejyhgZFT59viqm8RzUvc+HBx7rk4rXYcppByEOSDvob9rBPMS9mHHfvFelIyA0ii6tku6W6zxy5cqV4plnnikee+yx4r777it++qd/+i8JAJ3ik8YKYLnFNZEg0+drzoOxJmx77oDOpk8edC29d550hhCqQrLt+tlByM5z3lOHyJnLCPHcRLGVeRdkBGCOBVzqvZxOu+aYFNaO2QjdbfCyxzAHYDFwigjX10qmsKLbmicODzbOTFW87qRS8XrnT23cTju4/Pm/Ie0g07QDMkLWAkIjQXdSJZJtRWzMkS+++OJYOhgOh8WFCxcc9KeBcQpYcnFNn+W0qgk5VebMZSe2AVjenn6F6v31Bf1sc409sU/S1bG2Rry+Pf/MZYR496iZhjAy34KMgOwXcH1s1zBHn6ftGS9Ygzlfsg48ewAynncqpSP0sV3DHJuGe0VP0g7u/dTfGwsCIR5IO5B2QEZQhdWSjJDNPPL6668Xly9fLr785S8Xn/3sZ4s777zToT4ZAcAcB3F9lJzj71OxPcPtiucWYtz1Pge6NQYOutyGZbJemEuWiGLIrqQzxzhbM32GiJC5jBCpTHXnWa09QEZADgNzpQXJzZs3e3UgVNFQqxxXFekJk95YB6KaAODU8XI3NxGu6qbha6+9VjzyyCOD6C09STvYk3Yg7YCMQEboWRVW4w27qvGvXa2yOnq9+eabxf7+fvHcc88Vly5dGosHDu/JCADaOYzrW9rnHAmfw2Pu2dY8EerTeOaA9IoLjxY9LPOwvI6QUO4DrVIii+LFisIXEYGM8IGzphopGuVZ0cDnBTICVKkeMcq73sepyhWW5RxROYMG93Q6tnY0+d9rnjkA5p2xvFVpURoLwT6ICMctSqK/9wsvvHC7v/e5c+eKVNIOLm793dtpB1d/+69JO5B2QEZw8FO3KutMbvNIpB289NJLt9MOzp8/n+TYX5fp8T/+dwhsj/+zvzke/0NsS+Fe/IN/8A+Kn/3ZT43Hpt/6rd8p/vc/fsk4BaxuXqqUUhn9vvtwzdG3/KDCntUuGQFIduzbmrPiemNFP2ctISH27ZctJTSQEIgImcsIIcDXbMuwr2gVZASoUu2pkHDSgVDVmGwAwPIPtFIWEsp5J/p7P/nkk+P+3iEepJR2EIdEcVh09BBJ2gFJgIygCmuVPWpTmEfKtIPHH388mbSDtsf+IKS1+HNCZAihIcSGVMb/kM4uXPhMcf/9vzoe/41TQOfmpfWqc0HqQkIcdswxz25UvH9rk8KZmQcmnjegc2lls5KOO1EUNxmn9+uuG2LsXlRacxQsxoF0AwmBiJCxjBD7fXOkFVVuCw6QEeAlJnEhIV4w5hARRlIMAGC1C4MUhYRYxJYVr7/+67+eTNpBpBGUFa+RUiDtQNpBl/jc/Q/M+uz0Me5mFdZx79exKbrZt3lkeuy/ePFiMmkHbY/9fUs7IE0B/RPlUhUS5uxdvl3U2xMcnlDBvGd/DOisjDU65n172LXe85MxZq+JzBznETGGxzt97PHXvd55551iNBrVjdQ/eq83PIt5ygjxHNVMQ/DcgIwAzGOUx2Abg24qV8gTc04Qm4l/lmcm1WJDhiaAjo9Vo1SFhBQrXoOy4jUSCqQdSDtIgd957IuzPk9pVh0UmBclIKx6HjH255N20LKMoPoJ6IjknJqQMEdrhsYJBpN5dWuylzQUHw2ktf/bNQnhmJ93u62Wb7HPf/369bFYEIfKkR4TZxUlkaYQ/zyI6vUW5IOj8fokrUxlhHjmaj43u13/jgJkBHS22ikm+q5f8fIxp4iwnfhneJIZu8O8A5CyCLeqzcOoeI3Dp9wrXqUdgIyAU941lyYgHPPzbMwzj8TmUZ2x/95775V2kFnagXEK6K8sF4dSy+xFXueKny8O2uYUAB1yAOj6eL0xj0zcQQimmcoIUexaU2qJ533gMwEZAfjwQL0zz4AadmEXF3HxM9Uw1XaL/i/ADyYmKoMTQJIiXLz8N4nlm1Xxevny5dsVr3feeWcyFa+RTFBWvEZigbQDaQdkBCxw3C57TI9WISC0PY8Y+6UdGKeALGS5D1XVLqoPedMrqnrn7GE+kmIAILH96+3EJIR9RX75yghRkFuzLcO++RlkBKBFIaFri7gaC7dycjiT+Oe2VePvPGDPA+jA+DWcd95pks6TcsVrHD6VFa+RViDtQNoBGcEhH6rFvr722mvFiy++WDz22GOHh9b3F5/5zGeyHPulHRingJ4LCcW8yWtdKbCpWVRTaM8JIOGUhL2OSwiq2jOWEWJejkJcKRoAGQGLHbD35x1kI0JuUdWqVa74b8/ZT683IkKdw7xj+hZZwAJIRoQLQioIAe206/XXXx9XvIZ4kFLFa1SkSjuQdgCHfKg3j1y5cqV45plnxuLBfffdV5w9eza7sV/agXEKkLq2HNG5jevtt9+uW3W51YPP7AN97z3HQJbj9kEHJYShAr58ZYTYa6w5L4+kaICMAMy/GNitM2GHEBB9dBKQEHojIrQgI0y3cTBhAkhGSChluLCVy7SDS5cuJZN2ENWoZcVrVKlKO5B2AId8c76vb03eAbNMuzr8/M8csnHI8JCdc+fO3chx7Jd2YJwC8KGDrVEd0TmkgGUmJcR/r0ayZ59EhOPaa5Ttn+xNIYV38eExz3DZItdBdnpJCQdShMkINVOKymJPzw7ICMAyD4bKw6FFLuTiz24QlVNMJqUzPfqs1lt8+WKjA+hsNVNUvL7wwgvJVrzG4ZO0A2kHqMbTzzw785nKdKNu54TN+972pDz8rNcP2ZyIB3uHjHIb+6UdkBEANDrkrpyUEAcRiyqyiYKa+PNrVlyW8/1mTw5yDyocDMah7prnGh16dtdOeBf/UAGc+1X7/g6XmJZQClCb7n/eMkLM+9euXdPOAyAjIOWK+5AGIvauyWIuFmylgNBg0Vay47OaOYky+QCstJqp7O/95JNPFsPhcCwepFTxGtWp0g6kHaAZ33jxT8gIP9yU266yad+jtINBpB1MxIPkxv4QBqQdpJt2MA9PPPnUrHsy8n4HrExI2G+yNxKpBSEO3Lx5s1GhTcQ9x59T85Dj6OH8+gnz50YFBhN+NAUJ/ZhkUxXL6IIQXPm5dd9aGccHk4rzUYsCwv5kbUVAICOMrzi3qnnetN/nggCAjIBVDOCbbU36MbBHakIsxGLgD8EgFmbTxD+Lfxe/Jn5tC/LB9CH7Viaf107Dz0w6AoCVVbx+4hOf+I+pVLxGZWpZ8RoVq9IOpB2AjNBixeBg3oOUxNMODnIb+6UdGKcALERoG/PpT3/6k88///xLIThXISToSF87iS9+8YvFv/23/7b43d/93THx60t++7d/uxgMBsW/+Bf/Ysw//+f/vPjlX/7lsVBdhcNWQ8sew9845EcSLabZtWeFJe+x1mof4P4tRE7YnIwfO5PPZe+E/e/9qX9ftrXbcB/JCNMyQoiGDZK3t91rgIyAxVVkrbp3U1PrcT3Tl+Y6YgI7FMCiNgnLqpztXCtepR0ADvlmVAru9k0oTXHsD6Qd5Jl2YJwCkllP7KQ0p3SQN1b4vjNoaZ9vzXcCC3wnb9QqwH0EuisjREFszQLYEbEFICNgeQuGUWIiwtBnN5eYcOB+AWhhk3BtquJ1N5WK1xADyorXEAakHUg7gEO+JVb6HKT+3mvsl3ZgnCIjALnPKYlx1woToNrYW9z3XUFH38ntrQIdlRGiDVODZB7tggAyApa8aNhJQELYZUnPLSaM9DoCkFvFa8gC0g6kHfT5oCx6mj84fKi4+8I948/97Nk7xv/7z1/7nkO+7iSQtSX7DpY89m/lPPZLOwAZAch7PdED9npw6LvlO4SOSTJLfScHMJ+MUDMNwXcaICNgxRunXZQS9sTlzB09VvbPYvcBmFWdtDFVnbSfSsVrHBBJO5B20HdevvKt4ulnni0eufTo+HOe9UyEnNBlIaHKIV/0h+7Bu9hOi5skZ4z97Y/90g5ARgAWNqdIO1gtf9SDOPxd3y20mAbcxvu4hF6gPzLCvsJNgIyA7kkJq27fsENCAICFVbyOUql4DUmgrHgNeUDagbSDPvKdV75bPP/C14vfeeyLlcSDk4jf3+W/Z4W/w0YP3qXbeIc+aGOTxNgv7QBkBCD39URmbHesUKbWAZLvG1p6BocN38WldAD9khG23U+AjIDuxlltTYyxZQkI+yr6AaDRJuGZPlS8hjgg7UDaQV+J9II48CrFg2iz0NYzFH8eGWHl789N25JtNRz7d3Ic+6UdoC0xLAdpCuhjgg7GDDv4brQxeb8hI2AVQkyddF4SAtAvGWGk4BUgIyCttIStyQJi1HKPnt2JgLDmXif7fKxPjOOhl3ZgqRuF65PqpGFK1UlxOBSSQBwWSTuQdpBLpW2IB5+7/4HirnPnFvpskRE6ISMcLFLGNfZLO4BxCsh9PYF0ZIRjUlhnvhf5bmIF7+W7DiuBXsoIu4peATIC0pcTNieHzzuTSWFvxibr3mQCGE5+L/mgv7FnI202gIWlHSRT8RoHQ2XFaxwYSTuQdpADL1/5VvHEk08VDw4fKu6+cM/SnzcyQmcqAKtEv26f9j5s7Jd2AOMUkPt6oo30naOkIi8fJzOH0Dbj1+0kckA8PKHQac9eIRZQPDWa0SLYMwf0T0aI7/3A/QPICAD6Yxk33mwH8KHqpE1pB9IOkIZ48PQzzxaPXHp0/Ll34TkMAcIhXyfekTaP2fg8UdY8Zuw/kHYg7QDGKSDn9LSgyZxSzishM5fzSkoyczmvhMxWziuRtDXj9+4ltp+0NZWyue77iwWncoym3smHqqWB3soI++YUgIwAoF8vA1uLjCEGMqlOGkyqk/ZSqniNDb04MGqySSjtAKn1EX/+ha+PN4Hjcz979o7OPp8O+TqXkjAsBQRjv7QDkBEA64kPzilNE3TKeaWUmWNeSU1mjnklZOZZ80qfZAQAABYgI2y7ZwAZAUAeLRrm6dm05T4ik43CtVQrXmMzr6xOik0+aQfSDnLgz1/7XvGNF/9kvOH7ufsf6LR4kJqMUOFebhn7+zP2SzsAGQFYWHpalnNKH9MO5oGMAAAgI5zYlsE7OkBGANDTl4FBAxmBtYi+bhSW1UnbqVQnBdIOpB3kTIgHTzz51Fg8uOvcuU72PC438uO7lbKMUKGdxXBBMcCbk0SnM8b+D4/98VxJO5B2gMoywqZ3XlhPLDZBJ6e0AzICAACNZIRdKcwAGQFAv18GzhzTD7ku7EWkXPG6m0p10vShZmzuSTuQdpAbL1/51lg8eHD4UHH3hXs6u5l/0nc0NvfJCJXfUzaP9IctKya2jP3SDqQd4CQqzA1D78KwnmhvTsk97YCMsJJ9rMEk6VNaJwCkKyPE2n7gHgFkBAB5vBCsH3LQgoyw636i49VJWzlXvEo7QKriwdPPPFs8cunRKofgK08lqbKZT0aoJSDUkiCN/dIOkCerSHCBtIMc5hRpB2SEjuxfjY45zNpRILNUGWRrIoMMVDMDqCkj7MeY7v4AZAQA+b0YbE1ikWoLCe4jOlKdtDFVnbSfSnXSaZXUOW0QSjvIl++88t3i+Re+Pt6kjefg7Nk7Otk3OYSeEA8iWaSuGERGqC0gTHPQt7G/7jMl7QAgI8B6QtrB6tIO5iHSvWb8/CPfw1MPwWcV0sS/3z5kzT1byP0fniCDOFDs53y4PpkP5+GTE3Gv5EfcSxwjI2j3DJARAHhBuB15t09GQGJpB6NUqpPiMLOsTnrzi381yw1CaQd58+evfa/4xot/MhYPPnf/A50UD2JTf/q72nRDn4zQioBQXLlypXjmmWeKS5cuFbmO/dIOgHbGqUmF7VDUt/VEzusJaQfLJd5/Z/29fDdPLaCZZ49qX+V+K/d9rcI7+4ED+hMpW/nUZXcyP9WhCzLdfzrkX/sukRGm5CUpNgAZAQCOXXRsV2zjcOCeYUGLvTNT1Uk7qVQnHe0b36TiVdoB+tBuISrBQjy469y5TlcTtrGpT0Zo3h7qtddeK1588cXiscceK4bD4eFBw4Uit7Ff2gGwuHFqIiAUor6zXE9km6Aj7YCMkPj+1LBJW1HS2dz3e2MyJ1a9x1s9nTcGKe1DdZgf9b3KXkbYJYcBZAQAmGchMjohCk8sG9qyzLcmG4XJVCeV0e1tHGRKO0DfEhAqHAqt9LC4jRjjnGSEB4cP1e51PElfGp2UdhDiwX333XeYlHG2yG3sl3aALh+chUwWSTbRSqcPMsLhGPNvqojWor6tJ1KdU6QdkBF6uic1aNJW1N7VXO3T9mrc22Hi88bm1LxxQB5ondd9v7IeV4y7ABkBAGovTm5HmjIbkWPaQZOe8dIOoDp1uVHGIffEd3bZ4kEfZYQ4kKwrI+zv7/9qpB08+eSTyaYdNB37pR2g6yk2Tz/z7Fg6uvvCPcc+B/HPQzTr8t8jUnhOe5YPx56XRH1bT/RlTpF2QEbIrKXoqAUhYWQ8P7ENxkGD+zpIMO1gjySwNN7wPQMAMgIAACzzY6qT2optl3aAXA+1VlVV2Nbm/qpkhC4f9FWVEYz90g7Qbb7zynfH4sEjlx6dWxyLX5+yNHX+/PkDUd/JryekHUg7ICNkWl3b8MA8mYPzxO5p5wSPw+/S2tS8sSvtgIwAAGQEAMA8JnzY2pvuB8u87eqksnI6NgqlHUg7wHI2W5v2UY4N/hB9mnxvl00cRMz6u8W9S1hGeCO3sV/aAVIQD6LFQnx/47M+e/aOxs9OCGeZygiivq0nFj6nSDsgI2DhVfxD97G1tImVz4dT88a2tIPO8h985wCAjAAAqSw2R0fM6x1iQics82QrXptEtks7AJYnI8Qmf1vV6l0gVRkhDjR/7fO/ntzmV5tjv7QDdJ1IVokxJA7ko13BXefOLeR5SlmaOnv27LdakBFEfUtPazynSDvIc4yucH83jBFz7RPt1Ri/Jdy8f/8GDSWErRXuQ0k7SIsD3zkAICMAQNcXSBsVNgKJCSzzY/vEN62alnYALFdGmO6lHN+9ppv8ZIT6n98TTz5VK8K9D2O/tAOkNNbGd/XB4UMLEw96mOASB1fDloQEUd8ZrCekHUg7aBMywsL2jHarjt3u2e37Vmcu3FuGhDCZN7am5o2RA/208Z0DADICAHQ9Nu5gzgolYkJGlnnIAWV1UtODS2kHwPJlhOmN/td/86/3TjzouowwHd++yCrqLo/90g6QCtEa4elnnh1LQndfuGelz16MGSnLCKK+rScWNadIOwAZYaX7R2uT/aDTxu1t9+oDc2DV+S5kj40FzRsbU/PGft8O4WO9W4VUxOfj5o6f/ulPkhEAgIwAAMnLCE2iU4kJPbLMpR1IO0DPeuJmIB50SUaIP7c8yGyrb/yyxv5Lv/C3pB1IO8iKUhTqajpJX2QEUd+trieyS9CRdgAyQqf3kYZHWn0u5DA9g/222FNba7E9z9ZUe55RimuRpi0D4/eXc0f8uX0ohKm09vedAwAyAgB0fIE0aiFCNSqe1jOtTkrOMg85YDqmvUm1tLQDgIyQm4wQh5jTPeNXXUG9irFf2gFS6yFeJpSkIgp1WUYI6aruhrio7/6uJ6QdSDsgIwCVWzWMJv/8TM1548zUvLGTyrwx3S6wrdS++DPKuSP+7L4WwpARAICMAAB9WBzttNTTdVR3MZXIRuF6qmkHbVjm0g7Qm0OpVw+Ky9/44+K3th8b89LLf0pGICNUim1POe2gSYWRtAOkJh5My0JdbI0S71CzvkddlhHa2BDPNeo75fS0NqtWpR2AjIDM9tzWJ/LBcJIUdKbGPlRSaQchKse8EftH0g6aF8KQEQCAjAAAfen7N2pJSBj0YJMwectc2oG0A7zPt/f/rPjD3X8/lg4Gg18pNn/mHxU/+qMf+RC/9vmLZITMZYTpA8wHhw8lk3bQZoWRtAOkKmY98eRTnf3eTn9HpzfjZ71f9V1G6HvUd6rriTYTdKQdoMMywpZ9IHR43hhM5o09aQf9TjsgIwAAGQEAcjW1D1qQEYaJph1kaZlLO0BfxYNfuPcXD6uiP36seHAS8fvICHnICH/wv35lnHaQUmR72xVG0g6QItNJJV0VhqrG1pMRepmelnXVqrQDdIX4LGd87kN7QL3Yw9oqkwYSnTc2p+aNg1Tmjdg3KueNpu15ck87mPcduMLPtW5sAAAyAgCktKDbbSAjbHV0sXfUMs+up560A/SJaK3w+3/wleLh33hkLB7MIx2cRMgLfZMRmh4s9FVGkHYg7QDd5zuvfLd4/oWv326R0lXxIN6r6nxPyQjSDlKtWpV2ADICOrBvtXdMy9BhF9uGppx2UL7jxFpC2sHqC2G0oAEAMgIA9HFxF5Gpg0P255ERWObtWebSDqQd4H0uf+OPWxcPTiK1vuizvldtbBylwvQGV0riQZsVRtIOkCoxnoV40OW0krKKPMTONsZWMoKqVWkH0g5ARkCtvarhKXtSISXsRCvSFcwba1Pzxm4q80bsF0k7SKMQhowAAGQEAOj7Ym/tkO0KbRy29dRbrmUu7QB9FA/+3e/+XvFrn79YnD//6YWKB6nLCFU2JPoqI6S4wdXm2C/tAKmLB3GYHYftn7v/geKuc+c6vzG/iHGs7zJCvKensM557rnn/s4hf/SlL33p5nA4LP7pP/2nf5lj1aq0A5ARkFDRzKhisUxICRvH/P6yvcOgbpLC1D7Udir7UNOJTm2JldIOyAgAQEYAACxq8bcxWdRNLwB3jy7yWObtWubSDtC7w6hXD8biwW9tP1YMBr+yEvHgOOJnIiN0h1THvjYrjKQdoC8CQhyu333hnk5H2LdRSZ6DjFAlmaeLG+JH1hN7n/jEJ/5jjj26pR2AjEBGSLyt6LytRKOlw/90zD5WmaSwPmPe2Eh5HyrWUtIO+lEIQ0YAADICAGAxPfWytMylHaBvfHv/zz4gHmz+zD/qhHhARuhm2kFqY19bY3+5yRebhrHJJ+0AfRIRuiQhlOJBG5vzucoIKWyIq1qVdgAyAhkhuxYNdTmYmje2puaNUSrzxnQbqaZSpbQD714AADICAPRNOkg+7aDJRra0A/RVPPjD3X8/Fg9+4d5fPKyO/nhnxQMywurSDqZbDKSYdtD0EDM2+SLtoNzkk3aAPvPEk0+t/GA3vm/xvevSWBgHB6f97PE9syFuPSHtAJifaAE049nbtR+TrIwwaCofvPLKK8WLL75YPPbYY4ci7f2H4tOFZNYi00Jl0/caaQdkBAAAGQEA+pp2kLxlLu1A2gF+yEsv/2nx+3/wleLh33gkCfHgvsPnmIyw/LSDFFsMtDX2SzsAKlWothZl38b3dlnEuEBGaLyekHYg7QD4EJEsM+OZ3LNHk6yMcOaYVgsncuXKleKZZ54Ziwf33Xdfcfbs2STGzKPvNNIOFMIEd507J/UFAMgIAIATeurt52SZSztAX4lD+mnxoMvSwcc//omxePDEE08W3/zmN4vvf//7RXmREZaTdpDKoXubFUbSDoDlyQjTVeUptaMhI1hPSDsAyAhoLCSsR2uFaengtddeu512MBwOk0k7iPVCOW+0keIk7UALGmMEAJARAKCP4sH6pDppmGNPPWkH6LN48O9+9/eKX/v8xeL8+U93Wjz41Kd+rnjggV89Vjw47iIjNCfVQ/e2KoykHQDLlRGmN+rbqA4kI3RLRphaT2Tbo1vaAbrKN178k3GrnQeHD43HpEcuPVp855XvkhHQhX2ozcFgsPtLv/RLt1JLO2jrfUbagXdqMgIAkBEAoG+LvTNT1Uk7qVQntWWZ92WD0CIPR/nzVw/Gh++/tf1YcuLBt7/97eLNN98s5r3ICP0/dG+zwkjaAbB8GaGMtI93r3gH64N40EcZ4ezZO2Z9llt9W09IO5B20GdevvKt4ulnnh0LB3dfuOfU5yF+HRkBS9yHGkzmjb2U5o0Y56UdKIQhIwAAGQEA0KO0g7YscxuEyEE8GAx+pdj8mX/UafFga+vu4uGHHy6+8pWvjsWDti4yQj/TDpqO/dIOgNVtnMaY08ZmPRmhcxviu7muJ6QdoOtEusHzL3x9LB7USa8JGenPX/seGQGtpx1MzRsHqcwb022jmkqU0g5ARgAAMgIAsMylHdggRBJ8e//Pij/c/fdj8eAX7v3Fwyrpj3daPLjvcFH9hS98oXXxgIzwk+Nxrg+VNW1WGEk7ALq1cRrfxZwkhIxkhGx6dMe8Gn8OmRmdFJIPpYEQD+KAPj7rCqkmlYj2DWQE1NyLKvehtlNNO2jaCk/aAcgIAEBGAACWec8sc2kH6DMvvfynxe//wVeSEw++9rWvFa+++mqx7KtvMsKsGN1/deFvJ1dZ09bYL+0AICOQEdqNcJ8+0Pypn/qpJOeUpmkH5bwSf2Yq8wqZOS++8eKfjL+nn7v/geKuc+cW9lzFf6Or9yDGqlk/v32ipexDrU3tQ+2msg8Va6Zy3mijZZS0AyxRRtg29gAAGQEAlm2Z7+RmmUs7QC7iwcO/8chYPOiydPDxj39iLB488cSTxTe/+c3i+9//ftGFq28yQh8qU9uoMJJ2gL631In/G/+MjEBGWEYVdRxmRtXzg8OHkpln2q5aPZp2kMq8QmbOTzwov6uzBNWcZIS4L2QEaQdVKOeNKF6RdiDtoOtIfQEAMgIAsMxrWObSDmwQ4mTiMOrf/e7vFb/2+YvF+fOf7rR48KlP/VwnxYPjrq2tu0/9u3T9sK/s8VtWvKVSmdpWhZG0A+TeUifmBDICGWFRc8oiq6i72qNb2gFSIdJJnn7m2eKRS492QhIiI2S9D7UxtQ+1L+1A2gHICABARgAAlnnSlrm0A+RSBZuSePDAA786Fg++/e1vF2+++WaR0hXSRCoyQlnt1pVN52VXGEk7gJY6xxMCQ0p/9xjDZo0ZZITFywi5zynSDpAS06JQV7+vZIRs9qG2pvahRqnMGyEtl/NGk/Y80g5ARgAAkBEA5GCZZ9VTT9oBco3f7iqRIvDwww8XX/nKV5MUD1KREWLDebq/77JjdqUdSDtAWi11UmvXMGvjNFcZIQ7FZ40xOaUdtFm1Ku0ASa0PJq1RSvHg7Nk7knheyQi92oc6k2raQbxDlPNGiMzSDqQdkBGMaQBARgAAlrm0A2Qbv9118SAO6afFg75eq5YRYnN0OmI3lQ3ntiqMpB1AS53mhMxGRkifGEubygh9mVOkHZCZc2JaQO2iLFSKQbPW6GSEZPeh1if7UMOU9qFCKot5o2zPI+1A2gEZgYwAAGQEAOhJT702LHNpB8ilCnbevt+rFg++8IUvFF/72teKV199tcjpWpaMMF3lllraQRtjv7QDaKmzOGKeISPkJSOknKDTVtWqtAOkKh5Ee5QHhw918nsb8s70d3T6gDe+Z6f93hiLUpYRIg0go7SDnVT2oaafyRDNpB1IOwAZAQDICADQM8tc2oENQqw+frtNPv7xT4wP35944snim9/8ZnbiwbJkhJevfGtcmZpavG4bY7+0A2ipQ0YgIyxORsgxQUfaAVKlfB8sk0q6+j2N71WVVijxXjdrfOry51Hhfmz0bB9qU9qBtAP0m5DbZjxPI3vzAEBGAMAy741lLu0AOcZvpyYefP/73y9c7coI02kHXa1wW+TYL+0AWuqQEcgI7XHlf/4vkhlDF1W1Ku0AqRJpJc+/8PXbImpXD3pjvV73e0pG6PQ+1GCyD7WX0rxRPo9N2/NIO0DOaTta0AAAGQFAv9MOsrTMpR1A/HY3+dSnfq544IFfHYsH3/72t4s333yTZdCyjBDVbdObzKmlHTStMJJ2AC11yAhkhPZIdUxts2pV2gGSXSdMyahdfSc8mnbVxrhFRuhEu8/pfaiDVOaN2Dsq541ZCRxVC2GkHQBkBAAgIwDoW9pB0pa5tAMbhEg7fvsoW1t3Fw8//DDxYEEywkc+8pHiox/9sWJjY6P42Mc+Vtx117kipwojaQfQUqd7yTYx5pMR0iTVmGhpB2RmfPCwJ8atz93/QHHXue69F0aBwPRhbxNJiIzQmb2och9qO5V9qOm2H22kHaReCCPtAGQEACAjAECVtINsLHNpB8g1fjsl8eArX/nqWDxwtXu9/vrrxc///NahePCx4sd//MeLn/iJnyhyqjCSdgAtddJoqRP/joyQRtpBijHRbVatSjtAn9IPogVXl0WhGG8WJR6QEVaSdrCbyj7UtAATz2FbaQcpFsJIOwAZAQDgJgDojWXeVsWrtAPk3Pe76/HbcRj1hS98ofja175WvPrqq0yBlq/9/f3iueeeKx5//PHis5/9bJFThZG0A+QiHvS1pQ4ZoXuknHbQRtWqtAP0XUS4+8I9nXoPbOPAl4ywWhlhsg+1lWraQRstP6QdoMuH+k88+dRYQovPOXj6mWfJCAAAMgIAlrm0AyD9+G3iQfvX1atXi5deeqn48pe/XFy8GIeT54ucKoykHUBLnf611CEjrI5U36mPxrZLOyAzozpxILWqlJKmrRbJCCdz9uwdsz6DQYv7UBtT+1D7qcwb06kb0g6kHfSVl698aywahHgwSzyLX0NGAACQEQD0pqdeE8tc2gFyrYJNse/3cfHbrmZpB5cvX0427aDJ2C/tAFrq5NNSp28yQmwAz9w4XWHaQWrv1G1VrUo7AN7nc/c/sBTxIN7f2qg2JyNUI36+GZ/LsIW0g1Eq88b089ek3Ye0A3SZ77zy3fF75yOXHq0yBhxLlxMS4u/XxRY0AEBGANCXtIMkLXNpBzYIIX7bVT/tIMSDMu3g3nvvLXKqMJJ2AC118m6p0zcZoVIV14LTDqYP3VNMO2hatSrtAGh0aN0oqaTJwS8ZYTUywuG/OzO1D7WTatpB08QNaQfounjw/AtfHydwxWddIQ2lElrQAADICEAeaQdZWubSDiB+u/tVsMSD5aQd3HnnnUUuY7+0A2ipo6XOcVf890/7WUPgICP069D96Jwi7cC8gjSSEWKMaTPqnoywfBnh8P+uT/ahhintQ5VpG21IL9IO0Pn9o9e+N36fDPEgxuy7zp1b2HNFRkCK/MVf/MXwkHX3AiAjADjZMt/NyTKXdoBcq2BT7Pu9qPjtXK8QOMq0g0uXLiWbdlC3wijltIPNzZ+RdgAtdZZ4xdwz6++Qu4yQ6qF7m1Wr0g6AdojDrXnbpMR3r0/iwXGEHHXavYjDwMRlhKspjJnTwks8d9IOpB3kQLw7PvHkU8WDw4cWKh6QEdAjGWHvkNEhA/cDICMAuYoH2Vrm0g4gfjut+G3iQXvX66+/Pk47CPEgpbSDNsb+1NMOYpOvTDuwyYc+ttTpmnhARpgtI6Qqcx3tEV+3alXaAbBaGSG+c00PgFMkxp1Z3/OufqYvX/lW8fM/v5XMO/j0s9ZWiw9pB0iF+L4+/cyzY/Hg7gv3rPwZJCMgYRmhmLB7yBn3BSAjADmkHSTTU68Ny1zaAcRvP9J58aCsgl12329pB/2uMEo57aDc5Iu0A5t80FKHjNAFGSFVmavNqlVpB0D3ZIT4LuYmIqQiI5TR7WUFdYU0hE7NG2XKRpP2PNIOkBLfeeW7xfMvfL145NKjnf2+nj17BxkBqcsIxSQlwbMAkBGAXqQdbEo7kHaAvKpgU+z73cX47ZTTDl566aXbaQfnz5+XdiDtAFrqaKlDRmhFRkgt7aBp1aq0A/RNWos5hIxARljGIWZ8XrGvsezo9rbSDpq095B2gKTmh0NZaPo7G4f8qayhE5cRNp1dkBGm2HZ/ADICkFLawWCSdrCXi2Uu7QDit8Vv55528Nxzz43TDkI8yKnCSNoBtNTRUoeM0O5GdLyPphaVfXROkXZAZsZsaS3mk0hOIyOQEdrqF9/l6umTnpUY68v2PNIOiNA5iQfxvY3x9HP3P9BJWSj2dWN/N6TSlGWECmPi0JkGGeEI+4esu08AGQHoiniwdiTt4CAXy1zaAcRvv7+hmJp4kGr8dpeuq1evJpt20HTsl3YALXW01CEjtN/zN+eqVWkHIK19ZPzrYo1BRiAjzJt20NUDzNMONWO8jyIWaQfSDnJjuj3K3Rfu6XQLraNJVim0oCEjoGUZoWzbMHCvADICsGzxoEw72E4l7WDaMpd2YIMQefT97mv89qquMu3g8ccfTybtoK0KI2kH0FJHSx0ygqrVNnt0SztAH6W1ttJyYg4iI5ARjps3nn7m2dvzRiqR7dIOpB3kTsim5Xe3i+JB+T2tKgeREZCpjFCye8gZ9wwgIwCLTDvYTSXtoA3LXNoBVDKlF79NPGg/7eDixYvJpB20MfZLO4CWOlrqkBEW16M7x6rVVNMOynklZOZyXjFu4ri0nEWM+fHnkhHylRFi3piOa+/q4eVx88b0gWaT9jzSDpAq5Xtfl2XTpm20yAjIXEYoUxI23DeAjAA0STvYSjXtoK5lLu0ANhTbrWRaZt/vXOO32047uHz5srQDaQfQUkdLHTKCHt0Nq1ZTTTuIeaWUmWNeITNj1dIaGSEfGWG6Yjq1tIMQl8t5YzrCXdoBslljvPa9D7TX6uL3NyTQ6e9qKi1oyAjouIxQsu3eAWQE4DTp4EcmLRZ2DvnjQ/ZTtMylHVj4oJuVTOK3u5t2EOJBmXZw7733ZlNhJO0AWupoqUNGaFdGSLlqVdqBtAOcPnd0IS2HjJCPjJBKex5pB9IOiAff+8C7XxeTrqbf89oSD8gIICPMZP+QdfcQICMAR0WELx3yn/pumUs7ANKN3yYeNL9ef/31D6Qd3HnnndlUGEk7gJY6Wuq4ivE8OuvzCEGx7z2626halXYA0hoZYRaRCDPrQDsnCaF8H48xOCXxoKygLg8ypR0QofE+8Q7YZVGo6fc1NxkhZJIZP/+OMxQywpxE24aB+wiQEYBSRBj0seJV2gFsKHarkkn89vKuuHdl2sGlS5eSSTtoo8JI2gG01NFSx3X6NeszineH0yrecuvRLe0ApDUyQpMWNbO+p32UDsr38diPSel9fHotUrdnvLQDEBGWL5k2TbYiI1RL84nWzc5RyAg12T3kjPsJkBGQ3iSwdsjmIcPJYB6TwsEpA/7B5NfsTn7P1nRMzuHLxPdTtsylHQDpx28TD5qnHYR4kFLaQRsVRtIOoKWOljqudmWEj370o8Wj/8sXOt3jt0rfX2kHZGakK62dRqxxyAjdSzso92Ni3ExlPybmjenYdmkHRGjM15ZrVeJBfM+aykJkhHoywmc+85k3Ds8TdiZnCxsOl8kINVISNtxTgIyA7ssHg4lMMGppAigngd2ULHNpB0Ca8dv6freXdvDcc88lm3ZQd+yXdgAtdbTUcbUrI3zkIyEe/FixsfGx4mMf+1jxEz/xE1lVrUo7AGmte9JapOXEWmHW7yMjdCPtIJX9mHLeKA8wm/SLl3YAVB/b2hZNUxgnY4yY9fd6+cq3kpUR7rvvvpMKIHcmhY/kBDJCFbbdV4CMgG4N9GcmAsJ+ywP+h+iiZS7tAEi777f47eZpBy+99NLttIPz589nU2Ek7QBa6mip41rsnJJbj25pB8hBWuu6eBBzR5W0HDJCdw7UUtyPiZ9zei3SJLJd2gGwPBnh6Hc35bSYWX/XuHc9kxGOi+PfcrZDRpjB/nRqNwAyAlYzwK9PjMJiWfzsz/5so5fGc3d8pJFlLu0AOP5wqsubisdVMrmapx2kckjURoWRtANoqaOljsuc0mbVqrQD9H3uSDEtZ965g4ywmljxFPdjynmjadW0tANguTLCdMpV0xYpZIROygjTacxDaQn9lxFu3LhRXLt2rW5i98A9BsgIWP7AvrEg02wmv/RLv9RsETRZCF797f9M2gHQEl3aZKxayeQ6/bp69ertytSLFy8mm3ZQp8JI2gEk2/xi58UDLXUk6KQyp0g7AGmtv9IaGUHawWkV0/HzSzsgQiMtGaEUh5p+f8kIyckI0+yQEvorI/zgBz8o3nvvvWI0GtV9PnY9HwAZAcsZ0NeWnYRwlHiZaOXQ/pBH7/1vpB0ADYnDK/HbaV9lZerjjz+eVCR20wojaQfIuUe3ljouc8rxc4q0A2kHIK2REZYrI6QqbMXP2kaP+NQLYe79H39R2gGSH9uiIKHv4kHfZISnn3l25s/f4PxBUkKPZYTyunnz5riArebzseF+A2QELG4wH0wG26IPMkJKSDtAl4kNSfHb0g66XmEk7QA5iwe//wdfKR7+jUc636NbSx1zSkpVq9IOQFojrZER8hC2Yt4oY9pj3mhyaKkQBtCChoywvM+1hXOIA4fO/ZUR4oqUhOvXr9d9Prbdc5AR3AS0n4awt2oJIRcZwSIPZIQPiweuepWply9fvl2Zeuedd2ZRYSTtADkz3aO76+KBljppzyk59eiWdgDSWjeltS6k5ZARZovAqacd1O0Pr+0n+taOJ4j/n4xARshMRrh96CwloZ8yQnm99dZbdZ+N/UPW3XuQEYDmA/hmW2kIsckcpln05ImBP6Jw3nnnnQ8Q/yz+XRC/Niqu+iojWOSBjCB+u63K1DgkKitT77333mwqjKQdIPdNwVI8OH/+050XD7TUMacsc06RdkBmxunSWoppOV2U1sgI6YrAMb6X80aM+9IOFMJgdjueSMmJOYSMQEZI5XNtUPHu0DkzGSGuW7duFdeuXavbtmHg/oOMANQfvIdN5YMbN24Ub7/9dvHuu+/WXuDH740/44033hj/mffff/9Mkz0WlBZ5QLdkhK5VMqV4vf76671IO5i3wkjaAYgHfzweaweDX+l8j+4y2YZ4IEGny1Wr0g6QW1oOaY2MUIWXr3xr5hj01c/9SHIicIzxMW/Ezy3tQCEMmrfjSU1IICPkKyNMHzJH5XsLckIcOm86N+qnjFC2bYhC2prPx64EDZARgPkH7p26E3NM7CEPLOp64oknZm5QlgvFWCBa5AGrlRHiYEr89nxXbMCWlamXLl1KpjK1jQojaQdQjXRyNVJXxQMtdcwpXe7RLe0ApDXSGhmhOimnT0o7UAiD5bTjiXmGjEBGSElGOHrYHGLCcWnMc7Dl/KifMkJ5RXp37GXXFFY2fBYgIwCzB+wzk9ihuQfbSC5okoBQ9YqN1CoywvQichGLR4s8oJqMEJVOrtlpBzG2pVSZ2rTCSNoBiAd/VrsaaRVoqWNO6XrVqrQD5DZ3pCQe9FVaqyIjxGfW9TSE51/4evE7j31xvLeRyrgZY3yM9eW8Ubc9j7QDaMdTj5TuyXde+e7M71QTeYmM0F0ZYZbwGC2jG6QlbDtL6q+MUIorng+AjIAOiQgxKC9DQqgrI5SEGV9nYWmRB8xe7M5aqLp+WJn63HPPjStT45BI2oG0A6hG6nKPbuKBtIOuVq1KOwBpjbTWlWvWfYm1UpcObp548qniweFDyYgH5bwR432M+zH+Szswd2D17Xj6lvrSZGxJmVnv0DFndDYZ6rXvzf5cD9dLVa6QEmomJew4U+qvjFBekaRRU0iIc7Z1nwvICMCHB+vdeQbUmKRjsl72VVdGCGLjc9aLikUe6prWsbkTFSXl5k7wufsf6LRJTEZY7BXiwT/+x/+4+IeHG0g5VBhJOwCWV43UtnjwzW9+U0udDqcdvPTSS7fTDs6fPy/tQNoBSGsrnzuk5XRXRoi1aZl2EOvRu86dS6Y9j7QDhTBIox1PzFtkhPSZJWbFPJL051pRRpg+dK4RzT9wrtRvGSGuW7duFdeuXavbtsEzAjICMDVQ78zbkiGialZxLVJGiIWfhQ6qxljGxs7dF+6ptLHw9DPPkhEyux599NFeVxhJOwBWW400L9Ey54EHfrUXPbol6PSzalXaAUhrpDUyQv20g0cuPZpUm4Vy3oikAmkHCmGQXjueLqW+kBHICG3JCHFF+nONQ+ct50v9lhHiirOw0WhUNyUhioDP+IxARkDug/RgnsHz7bffXulin4yAZUVYhkBQ9s5sWk1y9uwd4wgxMkIeVyTHRGVLHyqMpB0A3axGqtKjm3jQ7Xki1bSDplWr0g5AWktDWiMedEtGmE7iSzXtINIKpB2YO5BuOx4yAhkhBxmhvKIQc87DZnH8PZcRyuvmzZt1EjTKlIQNnxPICMh1gN6oOmDGIBuRNKu+Ll++PPNlg4yAqv3FjlaShDSwqI2IvqYjkBE+fEVVa4oVRtIOgHSqkY6KB1/5ylfHh0eu7l1l2sHjjz+eTNpBW1Wr0g6Qq7TWdfEg5g5pOd2VEUoxfhlr1LbnjZCXy3mjTnseaQfQjqcbqThkBDJC7jJCXFGQOedBs8r3DGSEMiXh+vXrdVMStn1WICMgt8H5zCEHKYkI5YYuGQHztlYoq0geHD60svjKrr/EkxHauxbdoqFphZG0AyDNaqTpHt3Eg26nHVy8eDGZtIM2qlalHSC3uSPFtBzSWvdkhKNpB1VbAHZh3ogDrHLeCKFZ2oGxEf1qx0NGICOQEWoJCbvOnPKQEcrrrbfeqisk7EvTABkBOQ3Ou6mJCE1lhLDrZy0qLZzSbq3w/Atf7+xmDhkhnysOChdVYSTtAGhWuRobg10XD8pNwVI8ePXVV532dDDtINK6pB1IOwBpjbRGRqhyYBeC/HQbwFTSDkIuk3Yg7QD5teMhI5ARUtjHnDWXxnqtjWtOIWHg3CkfGSGuODe7du1a3bYNnheQEdD7gXkzRRGhqYwQL5ezfq/FVBqtFaY3clLpl0lGyOuQqunz8q8u/G1pB0DLIkIXNwhPqkZydSftIMb0Mu3g3nvvzaZqVdoBco/QJq256sgIH/nIR4qPfvTHio2NjxUf+9jHxu+4KYybIZaV80YIZ9IOzB3Iux0PGYGMkMI+5qzk21jDtXXNISTEAfOa86d8ZIS4om3DaDSqm5Kwq8UHyAjIvj3DO++8k+QhHxkhfcrIyieefCq5XplkBDJCGzJCuSkYFUTSDoDmxOFSStVIruVfr7/++gfSDu68885senRLO0COlawp9e4mrXV33vixH9sYiwc//uM/nsy6tEw7iLWEtANpB9COh4xARiAjVLvmOGzecQaVl4xQXjdv3hy/q9dMSdjwGYKMgL4NysMqg+CiB2cyAsq4yrJP5oPDh2a+SJIRyAg5yQgl/8Pmf1/8y7v/jrQDoAHL3kRsWo3kWtwVn0WZdnDp0qVk0g6mq1alHahYRf8jtIkH3Zs3nnvuufG8kUp7nnLeCFlA2oG0A2jHQ0YgIxyVyX7ukx8lI8x5Xb9+verhsoPlDGWEMiXhxo0bdVMStn2OICOgT6kIo1kDX0ysKR/ykRG6RwgHz7/w9fGL7Ofuf6C4+8I9SYsFZfzxdN/lWRv6OcsIuW2kti0jSDsAmpNaNZKr3bSD2IhKKe2gjapVaQfIOUI7xd7dpLXuzBsvvfTS7Xnj/PnzycwbIQqU80YIBNIOjIvQjoeM8D6z2rsel0jZB6bbedYRkckIxx80V6x833MWlaeMUF5vvfVW3ZSE/UPWfZ4gI6D3qQgxSL777rudrkqoa7SSERa8Afja98bSwdPPPDt+YY2Xwlkv/Cls6kz3zjzNlo5Dg9P+rLgfuR7y5XY411cZQdoByAg/rEYiHnS7ajXFtIO6VavSDqB3d54R2q523tlj3ijb86SYdlC3mlfaAbTj0Y4nJxlh5qH14ViYuniwiHE9isnICB++IopfOgIZocp169at4tq1a3XbNgx8piAjoNepCGFtdf0iI6yW77zy3bF08MSTTxWPXHp0/PJ39uwdSR+yxoZOWUlSN/o4fi8ZgYwQ19WrVyula0g7ALotI6yyGsnV/6pVaQfGJfQ7Qpt40K1383LeuHjxYjLzRqwXpteo0g7MHdCOZ1lXCBKn/T1C9CAjrI7YsyzFg0WuCbq+j7kqGSGuijH80hEylxHKazQa1W3bsBtnej5bkBGQ2mC8NWuAi0V6ClddGSFe1mb9XoduP+TlK98aSweRcvDg8KGZL3mpVJFMxx7X3dAhI5AR2hinYvG4ailB2gHICD/cGNSju9tpBzlVrUo7QO4R2in27iatSTtoKsdPtwCUdmA8hHY8q7xifjvt7xafARlheeLBtIy8zPG56/uYsVd96tx6+B6wqCtSpSseJq85lyIjxPXOO+/UbdswkrIBMgJSG4z3Zw1ub7/9dq9lhGDW781x4TvdWiEiuO6+cE/S0kFsuhzdzKlTfUhGICMsa5yK53TR1a3SDpA7s+JZY5PQpWp1FT26pR1A724R2q5680aIB+W8kUp7HmkH0g6gHQ8ZgYwwa2yPIqouyMhd38eMfexVyQhxvfHGG1UOkredS5ERyuu9996rmqrhWQIZAckOxOt9SUUgIzRPO4iXtXihvOvcuaSlg+kDgCb9MskIZIQujFMhzMRmorQDgIygarWfVavSDiBCO50IbeJB9+aNy5cv35437rzzzmTmjThQaiLISzuAdjza8ZAR+icjxHyQwrqAjNBKOsLI2RQZ4egVbdJrpiREsfG6zxpkBHR5IN7uSyoCGaE+kX6QonQw3VohNmIioqyL0WlkBDJCG+NUbDhKO8CyUnFK/vy175ERyAjSDlqsWpV2gNwrWVPs3Z1ahHYfr7I9T4ppBzHWN12vSjuAdjza8ZAR+icjpCqVkRFaTUfYdD5FRjh63bp1q7h27Vrdtg0DnzfICOjqQHxw2iCWWrXHrJeleMkjI3z40CmV/spNoo7JCGSEHKSp+w/bqUg7QKVDoUPJIMb/J5586tRUnLNn7xgLa2QEV+5Vq9IOgHwitIkHq71ef/318bwR4kFK80aM89IOpB1AOx4yAhnhOEJGK8f3FITkn/vkR8kILRwoVzg83nE+RUY46RqNRnXbNuwecsbnDjICujQIr80avMLiS+maVSFx2ktkrjLCI5ce7VzVSJMNnC4Sf5/T/u5x2EdGICOQprAIvvPKd8fSQSzGY7yPTYMYc+Ydo59/4etkBNfMtINcq1alHUCE9g8jtLsuHsQhSp96d/cl7eDSpUvJzBulLF+2BJR2YO6AdjxkBDLCUfFgem2QYsu51IuquiAjlGvkGWcvB86oyAinXe+8807dtg2RkrDhswcZAV0ZhLdmDVwx4KV0zeovTEaY/8V7ERUjZcRxvJzXqTZMjfg7zrovZIR8LtIUFsHLV741FgZi0f25w4SMtsf2Pie4kBHqV63m1qNb2gFUsv5pkr27c4vQ7uq8UbbnSTHtoEzok3ZgHIR2PGQEMsJxYlnMFV1fG0wnz86S6fouI8S+3DKuOOCucGi85pyKjHDa9d577xU3btyom5Kw7fMHGQFdGIR3+tSioamMMKuKLTZvyQjzb/g37Y9JRiAj9O0iTaFpa51om1C2Vrj7wj1L27wgI6hazalqVdoBiAfpRmgTD1Y/bzz33HPjeWPWe29XD2jqCvPSDqAdj3Y8ZIR+yggho6UkJU+vh2JPdt52t6nLCFGoMeseLeOq2KphyzkVGaHK9dZbb9VNSdg/ZN1zADICVjkI7582UIVxldMh36zNgr5WhTZp0zC9aVNWi8z7gktGyFtGiA1jMkL1cWpWJVWfq9ez2tx77Xtj6eCJJ5+63VrhrnPnVr6hQUbI5/rSl750eLj38SyqVqUdAB+M0Na721U37eD8+fPJzBtlUl/d9au0A2jHox0PGaEfMkKkCp42bt5313/X+TE+fr7pea2Nlrepywixn9IFGSGuCofHKtfJCHMJLteuXavbtmHgWQAZAasahE8dpMK2IiP0/5BvVnTV0X7KdaONyQgO+RzyGafwQb7zynfHi+QYhx8cPjT+/M6evaOzmxzGqTyuRx99VNqBtAOI0Bah7frAVaYdlO15UpG2pB1IO4B2PC4yQtM90S6K2Ivem40//7SfI4olyAjVrgrx+nvOqcgI816j0ahu24bdQ854JkBGwDIH4I1Zg9M777zjkI+MML4vhAIygkM+4xTq8/KVb41jAmO8jcqLRbXHISMYp9q4omoy9apVaQdAuhHaxIPVXlevXr2ddnDx4sVk0g6mq0LrxFFLO4B2PNrxuKpdIQme9lmF7EhGaFeoK8UD+5hpyghxyD3rDMZZFRmhzhVndzXbNkRKwobnAmQEdEZG6OMhX9ijDvnICGQEh3xkBCxqwfv0M8+Ox9X4LO6+cE+S0oFx6oNEtVUuV1S9ptajW9oB8MEI7RR7d7tWl3Zw+fLlZNMOmhzOSDuAdjza8bjqXfG5nPb5xfNFRmi2JqqTAGcfs7syQhwYkxHICIu63nvvvSrpG1qEgIyAlQ7Aw9MGo1Rf9qOCo+7BOhmBjLDKl/joEU9GICOQphKoND38rsbC9oknnyoeufTo+J5HRGHKkkFUjVepHI+2En38TOPwblb8Kxmh/V6m0g6Adnp3i9B2zboi7SDEgzLt4N57700m7aBszyPtwNwB7XhcZIQ+yAjTrefqzm1khLRkhFu3btU9KA4ODllf4nnR+iH7DX7eqLgfruCMa9TgZ05aRiivaLdeMyVhf5nPGMgIICN8iOvXr5MRyAhkhBaZ9RIcL8pkhDwu41QaxMF7fC9jjHxw+ND43p49e0fS0kE8PyG7lIfBRysuch2nyAgfrJLtQtWqtAPgw4dLcajUZfFgupKVeLDacXw67eDO/5+9t4ut6kzzPW/6YvqiJC6mNaM6UouLM3UuWq2ipVbXtE6d01T1iUkyDTgJqdDx0G2cCl2ppE+7iWI5yRzi9rRLg1UMUAmqmdAQghIFIqgAQkSoJgkgI6QoBaZGSQmDWs5FBQuEbLWDQB7QHv93eZGNs73etd/19X78Humvrk6yba+P/ax3Pf/f+zxr13q1RskzA5tuB4hxPIzjIYARXIIRFsPYNs82YITyYATBmlVFTqN8pgqzeAFEaBSkSoAEk78VE4yQgC/Xrl2zvcf68UwRMAICRqjI5FPxI+2zKhAAIyBgBGAEYISwdPbcJ42jx95v5sIXBgab59Bn4KC1xWNS0M+62wIYARihCBjhb7r/Y+P//T+W0e0AoQLNJtd2ttJCu/6QiZd0OxgdHfW224FNK2q6HSDG8TCOhwBGcA1G0HtMXqgOGKFYmf5+raM8gRGau9cr8IomC4QRZiryt2aAEe4PjW2w7JAgdeObImAEBIxQgcmnYoap6BziS61ajZuMLWACYARgBDfylAzmGPNUUWT8OwcONYsNIYxWaC3mawd5EQUPYARgBJlbhRguC7ls6mf/Hd0OECo5R9FCO/y4cuVKs9uB1pA+dTtIjJk8O0LpdoAYx8M4HgIYoU4YYeOjf/6195a8XeCAEYARbFSyT7SsQBCh9L+3jL85BBjh9u3bzY4flp0RABEQMAIqLWGfSktCMzMzwAiRmHyZ5mgBEwAjACOQp3zYPXr58+Z3SZDV1tFtQYxWUCE/ae1ou4OQPAWM0EkUugt0Xn+95rt0O0CoxLVU0TtZAQ/qBcJ87HbQOv9a0BndDshbKLvGzn7ceOvtg42Rn2ytNN8zjocARuisW6yebWW+iwMjhA0jWBrEwAjACJlDf7/lscsjXIZfioARUJkJex+dETD5gBGAEYARyFM+6sLFz5rfGRUOXhka9n60Quus5GT3YNbRCuQpYASXYQS6HSDkLoxAC+16Q90OxsbG7nU76OnpodsB3Q5Q4Dr5y48ar+9+wzvwgHE8BDBCfDVMYIRiowCzfLICr2icMQ3+xZ07dxrXrl2zPe5+fFIEjIAY02AZhw8fth45AIwAjIDJB4wAjOC2jh573+vxCsnOwdaWji7NkgRGAEYIEUag2wECRri/hTbgQbWRdDvQe6q6HQg88G3NkoyDotsBQp2DBy+9vGUeNtrgNHjAOB4CGAEYARjBaRhBhvuKCryiFQWa+0Mu+Fuhwwg3b95swoIWxztexT2FgBEQChpG0ELC1lgHRgBGwOSrvoCuwnhsYYKmVKglT31d7xw45I35qWvY2q7YlzmSwAjACFlgBO2IXTw3lW4HCLkBIyQ7WZndXU+oBa+v3Q6SkVC23ZnodoCiHRM3MdkED7Se7O9/vtH9yKNOgweM4yGAEe6XRjzabmoDRgBGqABGqNQ0XgASJnOCE0ON6j2umZhghLt37zZu3Lhhe6w7GMuAgBGQUzCC2rsAIwAjACMUJxX50s6xaGxMvjiCPGUnFzsitBbvtfPP9xmS5CnyVBYYIenoIcOJbgcI1Q8jKEfRQrue9ZwA0127dnnT7SDZ4dnaoYluBwhl1/nxT70DDxjHQwAjUBO1kWobpvOi8Zk+15C0jqvKOM5gEK/EryrdCzsVAoxw+/btJgBtCYp0cy8gYARURwLuNSWp2Ew+7V41FTCAEZCtTDuEMPmAEYARlpZecusu3LfOR7bZMUieIk+FAiNovdRqSsmMotsBQoy8CjVaux1s2bLFm24HggRagUm6HZBLUOfgwXtHjjfXicrDXV2rnAYPGMdDVBWCW9LuRUE61ETp8OqCtA5I+/u1tqvKPM5gFC/HrwJGMIX+RstuCKfohoCAEVCdCXilKVHNzc1FZfKF0IKqrIV3qMYbJh8mn295SsVk8lT5s5GT3YLa/U2eIk9pV1lMYdrhK2Or3RrK1FmDbgcIASP4sEY7efIk3Q7odoAi09jZjxtvvX2wMfKTrc6DB4zjIeoOwS6m+xQYARgBGOGr+PLLLxsZNoTiVwEjLBl37txpdjG3BBH6uf4IGAHVnYCXmZLVzZs3gREiMPkyzdHyZN45Jh8wAnkq3jzVyU5BfR9VcNcOb/IbeUq73kwFNWCEdBgha8GKbgco11zuy583i56a7at8JB099j4wAjBCx/Gv//qvTRMv6XawadMmb7odJGsY2/FQdDtAsUtjFlrBA5e7HSTggfI843gIYARgBGAEP2GE6elpk1k8jlcFjLBUyJ/T898CQhif1wquPQJGQK4k4Zm0pDUzM4PJh8kHjIDJB4xAnvISRtB3rrU9sU3BnjwVR55SURoYoRgYwXQPqSCEEYKyjOZRcVM555Wh4eZ9s3r1mtT7SqACMAJhio8++qjx4IMPetPtQCOibLs10e0Aod+t8V7f/UbjpZc1YmWD0+DBunWPNwYHX2zmdJm9gAcEMAIwAjBCGDBChh3tR/CpgBEWx927dxs3btyw7Yawg7EMCBgBeZWE9bD0LTTT07RYWsqQwuQDRsDkA0YARvA3T6lgr/PDWBnyFDACMALyQ2fPfdLsbKDc8sLAoLFgmKato9uCPU8y0VhLFQMiyOh2zXxPxkTR7YBuByhH55yJyeZ6Tu+e/f3PewcezM7OkqQJYARgBGCEAGEEtdfPYBwP4VMBI7TG7du3mx6XBYSgjcfdXG8EjIBcTMJDpiSmh6ZvYWusY/IBIxQpnTO1gE92I6nQCIxAAR1oijwFjACMAIyAaRKbVKh858ChZg7RPbCx76lSjM1Qzx9rqWLiBz/4Qe3m+6Z132nCk8qjdDsgNyI7nR//9D7woPuRR50GD3p7NzZGRkYaBw++2zRxCQIYARgBGMENGGHXrl2lf1/UYj+DgbwSnwoYIQn9HZbdEE7RDQEBIyCXk/BKUyL78ssvgREw+TD5UoCDpCCowqJMGBN0sJS0I5ACejxBniJPuSgZGzHmKWAEYARUwK7U+TEJKkju2bu/2aVA1/qJ9esrNTyBEYi0qLIrQmu3A8HJdDsgRyJ78OC9I8ebeVAja7q6VjkNHigf79y5E/CAAEYARgBGcEB6J0kdiTX/3lt2ZGmzj0cFjKDQhuAMIz2WUj/XGAEjIB8S8UxooxpsDSvtNDF9NtRdHJh8S0vFQx2/iolJMbCMXUihGjQU0KuHEcZ//RvyFLKS8lyMeQoY4f7YsmWLcSQKMEK8unDxs2bhUV0OXhkabl7T1avXOGGCul4QZS3l9torT7cDwXx0O6DbAcqnsbMfN956+6B34MGJEycaExMTJFkCGAEYARjBMel9pU4Y4e7du1lM5CP4U8AI6qBx9epVGwhhfF4ruL4IGAH5koj3mRKb5tTEYPJlWWgBI4QpFQGT3UcqBJYFHAAjUEDPm6dU4CZPtZcK+QAFwAjACPlDszNTizbzz0hghPB19twnjaPH3m8W8dQVxdTmFBiBtZTr8cgjjxTS7UBwsrod2Lwf0e0AofY5zmXwYNWqB5t5ds+evY0zZ840zQKCAEYARgBGAEYwRcZ2+734U/HCCAJWsnTPWEI7GMuAgBGQb4m425TcpqengRECN/lMs3vTWjL7Ipm4uvYqHibAgXYyuVLkixVG0AxNYATyFHkKGAEYIQ4YQTtoMV7cK8C+c+BQs1in77gp1wIjACP4Gn//9/mAmlUP/GXjX/7rv+8IdE66Hbj0zkG3A+SSXnp5i1Pgwbp1jzcGB18EPCCIiGAEAbim56Oe68AIwAidxtTUVBZDGTM5UhhBm38z3iOLpS7n3VxTBIyAghzVIGluDSZfuCafabebTyZfK3Cg4p8vu44w+YARyFPx5ClgBPJUqDCC6R6SyYX5Ur0uXf68WSzcs3d/c3aqvstPrF/vLXQAjACMYBMqOBdxn6lDgrobLH73SLod6N/T7QChbGMZXAEPZK7Ozs6SKAkiQhiBbrFLy7SmEdAMjNA+1HafEQ3ACEtFxq4Z7XQKgAUBIyDfk/GOkLojbNq0ydqwwuTzw+TTi0AyW1Wzq30q/GHyASMAIwAjACOQp4ARUBm6cPGzpiGvwtsrQ8NejFYwSfeb1nqmewsYgagKRkj0yMN/QbcDhErMbUVK3fhGRkYaBw++2zRSCYIoF0Y4P/4pMEIAMm3u0jsHMEL7yLjjnd3tkcEI2ux77do1WxChn+uIgBFQCMl4eZakp/YxIRSagBH8MPmu/PQb99qbJjuNetZ+N7hdfJh8ccIIPT095ClgBGAE8hQwArJuJ3v02PvNAtsLA4Nej1ZIdprrvtJ6TzvOtf7TeK3QWsUCI4QFI9DtACE3YQTlRMADgig3TN9DvV8BI/g/6tY0Zsp3GEF1uTIi4673STypuGAEdcvQ+CcLCGF8Xiu4hggYAYWUkI+Ykp/ILWAETL4ilcxTVeFZvyNE4EDHo+MyEcUyEjD5KIiTp4ARXIYR1NY9yBb2E5Pm3T0RFbOBEdyRzHW1P1UhLYTRCsmaSPeJ2tp3WtgFRgBGAEag2wECRlic/3bu3Nk4ceJEY2JigkRHEMAIwAg5arPJuNusdVnXYQS9G5iOoejQzveMhnMvflQcMMLdu3cbN27csO2GsIOxDAgYAYWYkFdmSYJVzs+pw+QzLbhC3RVapsknmjaZpZoABya61tfiunb06Rh1vOrssHi0hOnnACNQEC8CRti+/VXyFLIegRNjnpKAEb6KkydPGnexAyMUCMNc/rxZKNuzd39j6+i2Zq5bvXqN1+sirfNUyNT9oLFai9dEsc6tBUZwe+2l+9YED9PtAKF6YIRVqx5s5ro9e/Y2zpw5A3hAEMAIwAg5wINk7G3ekbfACF+P69evZzGYZzCY44AR1GU848iOdvcIYzwQMAKKuzuCNDc3F6zJZypAASOkm1gJcKACtIvFvCJaCCdzi7V47+SFBBgBGKGoPGWCechTCBgBGCFPjI+Pm4s2wAgd68LFz5oFMRXtXhkaNuY0H9S6LlL+UHGTubXF6623D7KWKiCydn3RvVxHpza6HSBghPu1bt3jTfBAO0wJggBGAEawG3+rOm0y+rbotQswwv3x5ZdfZjWa6YoQAYyQcVxHO50CVkHACCiGpLw8S1LUy6BazAAjhCMVxdOOW3BBco4SglbF57wUrauF9WQ3n00LYUw+YATyVP15CpGngBHchBG6urqigA6OHnu/WZx7YWCwOYYpBBhTRUyN1VKeUNerOnJUrDACa6lqYYREut/Les+h2wFCdH0hCGAEYISi3+W1dklqtVW8JwAjfBXaAZ/RaJ7EgwobRtCoDo06twQR+rlWCBgBxZSYh7IkRyVVV4EEk8mnYiom3/3SAtJUnFPhOZTxCkkb1lbgoOzCOjACBXRghPLzFEABeQoYoV4YIeZ7KEue8mHkVNEwJjACaylfYYRk3JwJsqLbAUJ2eu/IcXIbQQAjACNYjsJNNonVWacFRvhdqIO0Nm5mNJtX4j+FCyOoO0YH90Krxue1guuEgBFQbIl5mSi9LIlyenrayUXxrl27rA0rTL6lz5lvYxdai+rJTr6y2wdj8lFAB5oCRgBGAEYARojzHlI3BF+AzKQDlLpdqX2rLzkKGIG1VNUwQtauL3Q7QEWM8dmzd39j6+i2Zlcd/W/985CPm9xGEMAIwAjpUg0zAQ+0fq9jjBQwQnpoo2YHu+CP4D2FCSPoPrhx44ZtN4QdjGVAwAgo5uS8MmvCdBFIyFNowuRrr2d+8GfOtw5O5hW7WlQHRqDIBDQFjACMAIwAjBDuPfTE+vXOrY+0WypZH9UJZAIjsJYKHUZQ9wNMdWTS2XOf3Bvjo/FjWrOn3VerV69pfgYYgSAIYITwYQSt1ZOxuL6MxHV97S2oz3QMV65cqQpEmMFwDhNG0IgOy24Iuie6uTYIGAGRoDOOa5BEfrk0sgEYoXiTr862X4sL6lqc+zCvDYMme5FpdnaWgjh5ChjBgXaP6iIDjACMAIxQThGzzC5QgjKTLlBlj50CRsCwA0YARkDmnZjvHDjUzEnqcrCx7ynrPC8g4dLlz8ltBEEAI5Qo5dq0XKwRZkWuabWJSj9Ta3jfutD6tvY2gibz7742odEMHYAIjGcIFEaYmZmx7YZwCjgFASMg1EGSbpUewHfu3PG+0CTDO8ZCkwswgq5L0jY4mVUcUkFdx2I6BypchXZvXZqYxOSrGEbQXGJgBJRmFic7LpRzOy1+hJingBHuj6mpKevdQcAI5Y1WSEZPJWukGPOXKV+pvTmGHbFUHD582Aj3ACOgzO8484BAMlpBa1TBwGV1yFE3BXIbQRDACOXJ1KlG64A879+ChlVv9gE8SEBnvXOYuuSqy0+MMILFTvghfKawYAQLGKVV/VwPBIyA0NeT9LJ5jWdNpnoQ64HMrpfwTL5/+Os/LaRFWGsxPYYdfIuFyYfJV0Se0osheQoYwbTTIgEOkqJHUW0eyVNxBDBCPTBCK5ip77Cro6fqkun5F2pnIAy7YiJP1xdghHilFs9a+2gdKuBJeca0gzbGnafkNoIARmjVW28fjA5GUG1T70LJO3idHWY76UKbvHe0G+lmWv/4sPYuGkb48ssvOzWe9+ExhQUj6B6wHMsgj20F1wIBIyC0dKJesTDDJnNyVYuaOsc2ACMUb/Jpp5AWp7Ytg0OYUwyMgMlHnnI/T8UGHCTFjqS9o85B2UUL8hQwQl4Y4cOPxqKGERaPn2KdlF0hFEQx7MKEER56+GGMe8919twnzQ4EWm9qp6fJmAJGILcRRMzx3HyOTPvubt/xWtAwgtbuybu4QOIq3sPzjnZLgOdO3j2AEb4KdYO+fv26jflMK/5AYAR5XRpVbtkNYQf3AgJGQKgkIEEtfm/duuWkyUcLzvZzLbMU52R+JbtsE+AgWcyyew8YAZMPGMGFPBWSkiKHwC5dd90Xde+wCDVP9fRsSM1Te/bsBUbIACNkedbteWN/kPeQaaes1k8xdYMCRsCwCwlGiLnrS4jryXcOHGoa/C8MDDY29j3FTG5yG0EQwAipefif+/743vt4UR0Hyxzv1go953n/AEb4XcikttgJD4gQEIxgMZojkfy0bs4/AkZAqGQgQRI1WPXoBlpwYvIBIwAj+A4j6AWSPBVHnkraOWomY7KzwuWWjqHmqac3/QgYARjB2VmzCBgBww4YAWXXpcufN9cre/bubxr5yg1PrF/vPHQAjEBuIwhgBDfX8a4q6baWdKVl7V0sjHDz5s3mZkvLdvyACIHACOoAbtkN4RT3AQJGQKhiIEG6du1a8yFe9vgG/Y7Tp08DI2DyASMAIwRbECdP+ZmnVBzQuJsEOFDhwMeCBzACMAIwAjACMEK1Oj/+qXEtNTExgTMCjBCdLlz8rLkukVm/dXRbMweYutQAIwAjEAQBjOAjjJB0p9Umhqo604aw9jZ1QNJGodbQOAaZ0pYQAiBCQDDC3Nxc08+yvA/6OecIGIGTgPIn7uULD1arZKyWNtPT080RDkWBCfpZ+plJu5wPPvgAkw8YARgBGAEYgTxVuVQUSGZHJiNtXG/jCIwAjGADIwisAUYARgBGYC0FjACMUIXOnvukcfTY+01T/pWhYW93sCbS2rB15KGpIxYwAkEQwAjxwAjJM0LPB71zaXQja+8S39HmYQQBCNrceOPGDVvjOdE+QIQwYIQvv/zSdiyDPLMVnG+EgBFQccl72byO5HxA3xvjoHY3euhrnIMJUNB/I/hADwh9tt3PzAMjaKEXY6EJGKEamUxJtRKlgE5BPC+M8NDDD5OnSpSKAQlwoCKyCgU9a78b3C682PIUMML9sWnTJmtjHRgBGIGCKGspF+PKlSvG/LTUTkNghOrWeu8cOHRvtIJpN6Pr0vowMZSSFtrtZnerY1baz3lhYDDMcRoTk+Q2ggBGiBpG0HNCzwA9J/SMqBM8iBVG+PnPf94owt+Y1xCekf8wgnypHFDKDmAUhIARUHlJvL+gB3ahygMjxFpoAkaoRqa27KHueqHIxO483/JUAhyocKwXcH13TbvWfC2QJ7vykuJHrHkKGOH+2Lx5MzACMIJzUlvaWA1h1lLFhO0IGmCEAg3oy58313SCG5PRCk+sX+/1mkprxMRM0uaGTud2A1qR2wgCGCF8GEHPCnVPTN6928FpgMDVX9vXXnstrw+hcdYr8Yn8hxEEIVh2Q9A90M05RggYAZWfyFfkGdsAjACMAIwAjACMQJ4qKk918kKv/1bnUuaWXrJVRDZ9R31tA9xa9DDNlwRGAEYoG0YYHh4BRkBWitkQZi3lPozw4UdjwAYtunDxs+barXW0wurVa7xeV3W6pgJGILcRBDBCnDBC8rxIuuLQlSxYGOEIO+HDgREsdYp7ACFgBFRPl4QZF2CEc+fOGReGS7W+irXIqR0qtsU5BIxAkQkYweU8pX+mXWp6kVZBIDTgYHFx3GZHHnkKGKFIGMF0D4VqqpgKXepCwloIGIG1lJ8wQsxdX0w6e+6TxtFj7zfXBxon4NLc7Twgp3J2YiKV3TYbGIHcRhDACPVKz6887+J6ZmiTQ1GQGjCC8zDCJN0QgBHkhXFeEQJGQPUl9WWakeQCkEALzs4FjACMUJZ6ejZg8i2KLHOLgabs8pQ6HsiYVzE5NOAgaQGsQkdZrR2BEchTwAh20nfD9B1mLQSMgGEHjOAzFPrOgUPNXKc8vrHvqSDGVZW9rgJGILcRBDCC/+v4BFRLnhvaAFA2qOYDjKC1gO8wwtDQUKft+HvxgKKHEdQhfAXnFCFgBORGcl++ACXMACMAIyBMPky+Ygvi5Kmlde5//++bsxh9njmcFDiq2o1HniJPASMAIwAjYNix9gJGSJM6H/g6YkFrqwTmzNs9ChiB3EYQRDYYYeQnW1nHs/b24to+99xzWTsh9NKOHxhhXju4DxACRkDudkroXSDGgBGAEYARMPkw+YARSs1T6ojgy048tXJMZg67tKuCPEWeygIj6LsGjEARk4Iohh0wQvgwwoWLn3kBIrSOrNJ19KlVNjACuY0gfAu9G6V9d/VuxTqetXcAMMKReXXj8QAjLGy45V5ACBgBNfzpltBfMpgwvkCorbAtNKk1Y6yFJmCE+k2+V4aGMfkoiBcCI4z/+jdR5qm/e/w7Ts0b9rEoHmue0u6dtDyl3T8xxZtvvmldkANGoIhJQRTDztXo6emx7voS6zvi1tFtzgAHyfpKQGddHaRog01uIwgCGIG1d9AwwhG6IAAjLNIp7geEgBGQ3x0TuhdGOZxaaHfU6YNgcuGzQws/676HArtegBHY9QKMwO48YIQqd+G52vqXPJVNmmsKjACMQBHTbQnqMuVl7eLGsCOWijwjaGJde5lmLZfZRUrX4+TL32yur7RpALOH3EYQBDAC63ieT0Ve276+vusL3sJKPBtghDbq59whBIyAwu2esNKgFVl+FiYfMAImHzACMEJ8eWpww5+UAhwks4ZjKIgDIwAj5IUR9H1J++yTT/YAIyBrmXL2Lz84HeT91f3Io6k56uDBd3FGaoYRhodHgBE61KZ137m3xgoF6gRGAEYgCGAEYASeT/5c23mdwpMBRlii+/YKzhtCwAgIZYERJtMWG2rriMl3v55Yv75he84QJh8wAjCCC3nq//77/6nZwtemGJ7swAup7S95ChihDhjBdA+tWbMGGAEBI7CW8g5GiLXri8YzFdlJKuY1FjACMAJBACOwjuf5BIyAnIcRdjCWASFgBIQ6gRFO0YKz2F0vaecMYfJRQO881q5d2wCaKj5P6YVZ7X2XavmrOcMUw8lTwAjACEXrnQOHjLmZHAOMwFoKGCE00CqRYNBknZWAnSF3ksLsKUY9PRvIbQQBjACMwPOpNO3Zu990DDP4KMAIC5rRKHDOFULACAgBIwAjYPJRQKcgTp7KfM704ixpxjj5hzwFjACMULZkggMjlCPlceVz070FjEAAI1Rv0Ki7FHkKs4fcRhDACMAIPJ+8fUfDRwFG+N2/oxsCQsAICLkFI2zf/iowAsLko8gEjECeIk8BIwQbhw8fTr0P1GkEGAEYoUipU40KntpRrXtIRV+ZnJ22gwdGIPKsvbSrHxgBgwazh9xGEAQwAs86YAQUDYzQz/lBCBgBoVpgBFPhM9RCEyZfeVKLUi3it/ztt4ERKDJVAiMATSFgBGCEPDE+Pm5trAMjACOY1kMnX/5m8z7Z0vttK+AAGIG1lG3s2rXL2mwARsCgwewhtxEEESeMkAZi83wCRkDewgjj81rBuUEIGAGh2mCEWAtNmHzFLNTH/ukPmudq9Ok/at5Lmp/aSRE9xHtr5CdbMfkKhhHIU+SpsqQcFmOeAkYARgBGKGc9JODA9MwqUkePvY9hRywZeUbQACMAI5QJagFakdsIAhiBdbyPMMKly58DIyAfYYQdjGVACBgBIWAETD5v5harlasNcIDJB4wAjECeYvcDeSpUGEFt9tM+19XVBYwQyHooL4BZhmScYtgRdcAITz7ZA4yArAWMQG4jiJBghJ6eDazjeT4BIyAXYYSZeXVzPhACRkCoSBhhH7teijX5VGiOcW5xAhyoLVsVRXRMPmAEYATyFDACecpnGCHWeyjEImY7ALOq9RAwAoadazBCrF1faF2N2UNuIwhicZw/fz71uyuxjuf5BIyAHIMRhuiGgBAwAkJlwAhDwAjseskyt1jAgYqLOr6i5xYDI2DypcXo6CitgslTwAiO6K23DxoLasAIwAhpOnvuE+Nxy9x3GcB0aT0EjIBhB4yAQYPZA4xAbiMIYASedTyf8khjJDK8Q6zES0EIIWAEhIARMPlyAwcnX/5mLXOLgRGAEcoqiJOngBGAEYrVyV9+BIwAjJBbpuPWuWE9BIyAYQeMgEGDgBHIbQQBjMCzjueTG+9owAgIIQSMgJCTMEJf3w8x+Rw0z1ycWwyMAIwAjECeAkYARvAxrly5Yr3LHxihPhih3XooNNjAtL4LFUbo738+NT8NDr6IM1LA2ktdQYARMGgwe4ARCIIARuBZB4yAEEIIGAGhUmEEzcRlHqh7Jl+7ucW+AgfACMAIZcMITz7ZQ55CwAjACLnC1lgHRigXRmhdD/kOYKblcnVv0DGqm4OOV90dsjz/QoURWEsVE3m6vgAjYNBg9gAjEAQBjMDzCRgBIYQQMAJChcAIsRaaXDD5WucWJ8BBz9rvBtlGeClp5jQFdGAE8hQwQp3z42PMU8AIwAguwQjJeqgVwAxtPaQd6DouHaPWfTpeHbfp3AAjsJYCRsCgCVEmqGzP3v1B3l8vvbyF3EYQwAg86xyrBySd1rJ0WQNGQAghBIyAgBFowemkyZfMLVbhOVnc6nqEVGCXYaDjkoGgY9TxJu2sY9z1QgEdGAEYgd0PwAjxwAh63pk+e/gXx6KHEVoBzJjWQ1mAgzSpG0SMY4pYS9UPI+i7mva5rq4uYARkLUArchtBACPwrKujA626kOXpPguMgBBCCBgBxQ4jdLPrpViTLw3gWAo40KJW51OtdkObW6xFuo5JRXEdo8jhpeZnx27yUWQCRnAxTyHyFDBCOTBClntozxv7o4URZMaHtCZavB5qBTDLkOn5B4xAlAUjxNr1BRgBGIHcRhAEMMJ/CWIcY2sX2qLeBQKBEXrxUhBCCBgBIVsYYSUwQmc6euz9jhffWswm7btimFusY8077xkYgSJTEmNjY7QKriBPIfIUMAIwgiuFrv/nv/2P3o5bWAxg5l0PASOwlgJG8EOXLn9e2AgaBIxAbiMIYARfYQRtuvLhedLajVZr97I7r/lQG9D7geE4hvBSEEIIGAEhYASHFt9JG+HQgAMtzhPgQN0ctHAv60UjRpPvvSPHMfkKLoiTp4ARgBGAEYAR/Ct0DW74E28AzLLXQ8AIGHbACGGOoEHACOQ2ggBG8A1G8PVZl4AHSUfaOqBnbRgBRkAIIQSMgIARSjD5Hnr44WhNPt+BAxV5dH1FCBcxtxiTD5MPGAEYARiBPBVq9PT0GAFFYITOCl0bH/1z1kPACBh2NcaVK1eM35Glvg/ACMAIwAjkNoIgssMIlyYmedYVKK1Pks60Lm0S8+H5BIyAEELACAg5CSNoccc8UD8lCliLcs1Aq2JuMSYfJp+rMEJXVxcwAiJPkadyxebNm4ERPIUR2q2HfAIOgBEw7MoMW7MBGAEYoWjpPTUxlky7WYERCIJwLUzvTnq/4lln/3xQlzKt5V3vTguMgBBCCBgBASPQgjNIGEGLcFfmFpdh8r1z4BAmHzACeQoYgTxVsc6Pf2rMU9oBBIwAjJCn0LXlb79d2nrIRQATGAHDDhgBGAHg4Bv3WmgnppJNG+1XhobJbQRBACME+KzTz1W3suQZ4dumMGAEhBBCwAgIGIEWnF7DCO3mFtOCExgBGIE8BYxQfPFDOTaZM5mlABLq7jxghOJgBNPunYGBF6OEEXTONCah0/WQrwBmGVKxNu18PbF+PYYdUQqMIFPZ9NkPPxoDRohQqiskZlLSPrvTXG8SoBVBEMAIfj/rZn/+e/eeFVrbF/2cKGsjWAide4AREEIIGAGhsoEEdr04DiO0zi1OgAMt0JkHCowAjPA7LfV9IE8BI3QKHCRtgFX4yNvqERgBGMEEI5iedaGaKllgBOV1fQ9NAGbo66E8+SzG59/ru99IzU+rVj2IK1IyjBBz1xdghK9MpFaAs0ojCRiBIAhgBH+edckzI3le2HTEqXrkbfIuorpB6+a9EGqYLwwMms7BEXwUhBACRkAIGKEiXbj4Walzi7WoFQEc0txiYARghLoK4uSppRVDm/Iy2wADIwAjACOUCyMAFAAjsJYCRvBN6jiSdtx6xwsR4MzaMQoYARiBIIAR4oURVN9Mnht5of+qNoUl4EEWADqEGqb+RsN5OYWPghBCwAgIASM4tPg2AQcywGKaWwyMQAEdGIHdeXW3Aa5jlwUwAjCCpGc+MML92jq6zThygbUQMAJrKWAEQKv6Ac4iO0YBI9jrrbcP0vWFIIARvKkz6PmhDjkJ/O8DeKDnXLIxLNYaJjACQggBIyDkLYww/uvfRGnynXjp3zWLNswtBkaggA6MAIxQTRvgMuYOAyMAI2SJXbt2WRvrscIIpkIXMAIwAmup+mPt2rXWu/yBEfyBEarsGAWMQG4jCGCE8GEE15VsEFMdocjNYcAICCGEgBEQKglGYB5o3PNAgREoMvkAI+jl0vTZDz8aI085bqi1zh12pQ0wMAIwQhJvvvkmMAIwAjACa6ngIs8IGmAEt2CEdh2jXAM4gRHIbQQBjACMUKTUjSEZhatNYmV3pQVGQAghBIyAEDACJh8wAkWmSGEE8pQfecrHNsDACMAIwAjACMAIrKWAEVh7uQIjLO4YJYAzNOBAa0NT1wZgBIIggBHigxH0bNBzLwEPBOFRwwRGQAghYASE3IMRZtIWGypoUGgCRqhaapsWW6Hp/PinmHzACMHmqdDaAMe8O488VRyMoKJZ2mcfe2wdMAIqDUa4dPlzDDuiFBjBBBQODLwIjJDju50AnL51jOqkhbbg1HYjD/X/A1qR2wgCGMHdZ13ZEmiXgAd6PgjG82FD1dbRbcAICCGEgBFQ9DDCKXa9ACO4Jt13mHyYfFlhBKApN/JUDG2ABVAkcyYHN/wJeYo8lQtGMD3r1qxZA4yArGXKZ7/84DSGHVEKjBBr15eiYIRQO0YtzvOJmaR1fFZDia4v5DYi3pidnW0cOHBgHmgbuPd9f+aZZxq7d+9ufPHFF97CCO8dOQ6MkAIe6Dmo+oLrddYQNlS9c+CQ8ZrgoyCEEDACQsAIDpl8acYoAkbA5Ku2IB5rnlq9ek0peSqWNsAJcJDsuGg3Y5I8RZ4CRgBGAEbAsGPtBYyQ1aCRoRJTxyitD5N53YmRlLd1NjACuY2IMyYmJhrd3d1Lfu/1744fP+7k397buzH1u7t9x2vACAvrfz0PVWdo9+5NDbN86d0AGAEhhIAREAJGYB4oMAImHzACeaqyPBV6G+AEOFiqDTB5aml1P/Joap46ePBdYIRFZgwwwv3as3e/8fvJWggYAcMOGCE00Eq5LeSOUQnAWeasbmAEchsBiJCm06dPO/f3Pzf/zANG+Pp7ePIO7iN4AIyAEEIIGAEhx2CE7dtfxeRDwAjACMAIjuYp2gCTp2z09KYfpeapPXv2RpWfxsfHzUUbYITOC12shYARMOxqjdHRUesOJsAI/yVogHOpjlFVCBiB3EbEF61jGUwStACM4A6MIGAteRdX3aFMWI0aJjACQggBIyAUMIxAC05gBBbywAiuwwgmc314eCTKPBVSK+B2bYCLAg7IU8AIwAjACMAI/mjs7MfGtdTVq1dxdjJEnhE0wAj+Apx5OkYBIwAjEOHGF1980Thw4MD8u/NwEw7YvXt3JWMR1BWh01zm2riG2GAEPUuqeh+nhgmMgBBCwAgIASMAI1AEx+QDRnACRiBPhdcGuKi5w+QpYARgBGAEYATWUgQwQkwwQpkdo4ARgBGI8GJ2drYJHiz1fduwYUMTGCgrBEB0mue2b98OjEA9lNoAMAJCCAEjIOQgjLAvbaGhYgWFJhbfVUtmY9o5Xr16DQV0YARghMBghKQNcOvcYZdnSKqIH2OeAkYoDkYw3UMPPPAAMAICRmAt5R2MoPfHtM8+9tg6YISKO0aF0hpb60LT8Z8990lw99b58U+Nua1MQ5iIN7KMSNBohLLuPxsY4ZlnngFGoB4KjFDSO9q8luGlIIQQMAJCtjDCELteWHyz64UCusuxZcuWBtBUGDDC4rnDrrYBJk8BI1QBI8R6DwEjVCPTOB4Zp6yliDJghFi7vlQJI7R2jEoAzpBncQNakduI6qMTEEAdEtRFwQUYYWH3NjAC9VBgBAtl+H6txEtBCCFgBISAERxZfKsoRBEck48ikxsFcfIUbYDJU8AIwAjACDHK9PwDRiCAEdyGERYDnK53jAJGILcRYYU6HnSSs44fP+4MjFAGGAGMAIwAjACMgBBCwAgIASNUqq2j26yLcwiTjyITMIILeaqsNsChAQfkKWAEU1y5csV4Hyy1WxUYIaWIHFEuAUZgLQWMEIaOHnvfGuAMoWMUMAK5jQgnfvWrX3WcyzTSwYW/Q9LngBHYnAWMAIyAEELACAhFAiM8+WRPlLtegBEw+WzV/cijmHzACE7tzmttAxza3GHyFDBCUWG6D5YylmK9h7IUujDjgBEw7OqNsbEx6w4mscIIWUCrkDtGASOQ2wi7+OKLL5rmuToLqBOAJGM/0e7du+/9c/13Vez619/S6XujOim4AiOcPn0aGIF6qFMwwsa+p4AREEIIASMgYAR2vbD4xuTD5AsVRtCoAKCp9pBBMk88aQPcOneYNsDkKfIUMAIwgt965gd/BoyAYWcdeUbQACMwggYYgdxGLA0bbN++vQkZbNiwwRoY1+f1s8oCE2zHI9Sxzm4n/f3ACNRDq5Q6G4XwXgeMgBBCwAgIASOw+Mbkw+QDRiBPkafIU+QpYARgBHRP6lSjc6XONXreKbcnoJlJwAgEMAIwAjACuY3IHwICBBtoN35RsEEn0u8T8OBCR4IyxiPY/B3qJuFK7Ny5M/W7q3cr6gzUBoAREEIIGAGhGGCEXgpNLL59XMhfuPgZJh8wAjACeYo8VbFeenlLap4aHHwRGCGjsS4j2fTZw784BowQudTKXedDrd0T4GDTuu/kNi+AEYiyYATBMWmfe+CBB4ARUGkwwjsHDpHbiNJDpvvw8HBzNEEVwEHV3QBcghEEdth0jnAlVMMBRqA24AuMsHr1GtNx9OOlIIQQMAJCtjDCSmAEFt91L9rV0kz30+jTf2SccRzyrhdghPZx8uRJdueRp9id54jUSjQtT6kVKTBCdmPd9Nk9b+wHRohoPZQABxoxlHU9ZKsXBgYx7IhSYIRYu74AI1QjU24EtCLKDu26dwVAWKxnnnmmsNENroxHEPRhcx6AEagzACN0rmfn3+UNxzGEl4IQQsAICAEjsPh2Vpo/r8V5K3CgOfV5XrSBESiIk6fIU8AIwAjACMAIvgOYeddDtlKxMcR7q6trVWqOOnHiBE4aMAIwAjACMAJhFcePH3cWREikbg0TExO1wAhljEcQ4GDztwAjUGcARgBGQAghYASEgBG8llo/ph23isoxzy3WfbHr2W91NLcYGAEYARiBPAWMAIzga6xduzZ91MJ8y3JghHhghFYAs4r1EDACa6m61l4aIQKM8JU0msl03MoPrJ+AEYARlo4vvvii2epfkgndquSfF7Xz3yY2bNjgPIyQAAk6l3nClfEItjBCnfcJMAIwAjACQgghYASEKoQRurq62PUSKHAgY6XIucXACBTQgRHIU8AIwAi+xubNm1PvA+UhYIT7tbHvKetz5up6yEXgABiBtVSZu2KXgoZihREYQQOMUKa6H3k0NbcdPPiudzlGZrE6DWg3vdrqd/IMExSwffv25uerMp1l7vv0nM87ssEGRihjPIIAFJvj1+eAEYARgBGAERBCCBgBoQBgBFpwhmnyaZdT1XOLgREooJcFI8goSvvcAw88QJ5CwAjACMAIjhW6XIAR2q2H6gIwgRFYSwEjACOguGGEUHJbAiB0Ch+YJDChiNEEZZjidSrP2ARXxiPoutr8HadPnwZGAEYARgBGQB3qt7/97dC8lnMuEAJGQKgWGIEWnGGafO3mFvv0Yg2MAIwANAWMAIwAjACMAIxQ5HrIVQATGIG1FDACMAICRvA5twlCkLmt8QFlPtu0mz/veIKiTfG6ZQtpuDQewebv0N8PjACMAIwAjIA6hhFOzWtmXt2cD4SAERAqGkZYRqEpXJOvdW5xAhxoVnwIRXRgBGAEYARgBNdhhKPH3gdGAEZINdZNrf0HBl4ERihoPbQYwAxlPdRa/BVMoWNUNwcdJzACa6k6YASNMTF99vAvjgEjIGCESHJbFRBCVUa0j+sDARpVdoIoYzyCzf2TpysEMII9jKAuYsAI/tadXhkaNh3HKbyUKGCExoL2zWsZ5wUhYASEigQSgBE8NvmSucUqPu969ltezi22UYiFppde3pL6ojo4+GKUxXDtriBPASO4KFPL9hDzFDBCsTCCyVQJ1TAuA0ZoBTBDXQ8p5+i4dIwaQ6TjXaqDmf6btJ+1se8pDDuiFBgh5q4vwAjlS/kd0MqP3KYOBUWPY+h0dEPRu/Srhirq7I5gCyOUMR5BQEVVEAYwQroE21NnCLfuZIJNgBGigxGkyXmt4NwgBIyAEDBCJCZfAhyo8KzisgrRIc0tlmQY6LhUYNIxYvJh8hVRECdPUSRgdx55ChghHBghtvVQAhzouGMtigIjACMAI6BOQCtgBDdCRrYLxr1giCKBBBtTPM0sl9TFQdI5a+0qIIBAxr6giiLAjKo6QZTRlWJ4eNjq2gMjUGeoSoKDQ+juCoyA2sAIiRjRgRAwAkLACC4uvm2Kxlq86pyqtW6oc4vVElnHpNbBOkYdr3YyYvJh8gEjFKuz5z4pJU8h8hR56usxOjpqPTsVGGFpGKF1PRQacJCshxIAM209FPsOLWAEd9de+o4CI3QGI6SdMwSMEEpuO378uFPPXFsjvihTPDHoF8MGnXaZsP3dksCQqmCEMsYj6PzZ/C0uxJkzZ1K/uxIwQhwjHIERkOcwQmPh3y3nPCEEjICQkzDChx+NseulzXlbPLc4tBEKrcCBjtVmFxAmHyYfMAK784AR3NNbbx9MzVOrVj0YXX568803gRE61AsDg6nH/b+s+l5wAKbteggYARjBx64vscIIZYygQcAIPuU229b+Zauo3fp1m+J5uiTYjGpwZTyC7XkXxFF3nD9/HhiBzgjACCgUGEGamVc35wohYASEKoUR2PWytE689O/uzS1OgAMVpUMDDrRbMdm9mDa3GJMPGKEuGEE7TU2fPfyLY8AIiDyVUSd/+ZGxoAaMAIxQQKGL9RAwAjACMAIwAgJG8Ci3yfh1YTTDUp0BihjXYGuKFzUqQj9H4weqAjJsYIQyxiPYQi62nSiAEYARsozRTTq4acRalvsRGAEFAiMk2jevZZwzhIARECoURtBOLgpNnZl8oUhtkVVk1yI7z9xiTD5ghLpgBPIUMAJ5ChgBGAEYoYz1kAvAATDC19Xf/3xqfhoZGYEyAEYARgBGAEYoIWyM6yql8REhmOKnT5+2+hs05sG3ThBJqKtDXdccGCFuGEH1z6Szbd5NZoHACOP4KMAILZqc1wrOG0LACAh1AiOcotAUL4wginfx3GIXZskDIwAjdAIjAE0BI5CngBF8hBHUPSnts2vWrAFGqGE9VDWACYzAWio0GMG0S3Bg4EVgBGQl03MTGKGesDWtq5RGHIRiim/YsKGS8Ql1d4LopB5Q5ngOYIQ4YAR11VSXsyLAA19hhEzXFx8FGOHrGuLcIQSMgBAwAjDCknOLtdD2udCkedMU0CmIk6eAEchTwAg+wwimHZ7ACOWsh1oBTNfXQ8AIrKV8XHvF2vUFGKE4Qyhpga18rfspaxvs1avDfG6aur4MDr5YW66Q8VzUeAb9HJnmMpFbpX+W93fYmPGumuICK6roWODSeASb618EgAKMECaMkIAHyTOmivcQYAQUMIzQWPjccs4hQsAICAEjRAIjtM4tFnDgs9kYYwtOCujACMAI7kut2XXuVLyI0WwBRgBGcB1GaAdgxpjv1NUhhKIoaylgBGCEsGduqxNNsgs1K3AAaOVWbiuiK4JMY3UdMIU6DNh0BSjSmHbBFK9qfIJtJwiNkig6bMaAFAWgACP4DSMkzxq9G1QFHgAjoAhhBGlmXt2cR4SAERACRggERtDc4gQ4kBnmw9xiYAQK6MAI7uWptNEW6HdFi2Q+ZFK46LRVIzBCHDE2NmZdlANGKAbADHk9lEfACKyl8sSWLVtS7x99/4AROoMRtAMzVoAzAQ70Llv2+zIwQrVhCwdIzzzzTCYIYXHs3r27tlEJLpjiMvurgBFc6QShGB4e7vjv0L0JjBAXjNAKHlTxvAFGQMAIbbVvXss4nwgBIyBUKIxgMmaGh0eCLAZs7HuqdOBAxRqd+xDmFgMjUEAHRnAvT7E7r30b4CJnQwIjxBHj4+PACAXDCOvX/Kd7ENDi9RDAATACayn3u77ECiNsHd1mfc58BzgT4ECQSp07T4ERqg3bnfMJiKARD7YhuKATUzrP73LNFK+qM4JtJwjBIq504ABGqN6srmKtnsBuyXOnqM46wAjACMAIhcAI0uS8VnBOEQJGQKgwGIFdL/bSYjmWucXACNn01tsHU19SV616EBihBGhqYOBFWgVH0ga407nDwAjACMAItHgFRsCwA0YARigKtPIZRiiiYxQwQni5zaZDQZFwQBYgQWa6TfcFl01x2/PuayeIPOf9iy++AEYoUJcuf175OEi9zyfPH1/AA2AEBIxwT0OcV4SAEZB/D4Pl81o5r14lcoP6F/7b5RlhhCNpCw0VGyg02cEI7eYWAxwAI2DyVQsjkKfChxGSnRGtc4ddaMtIngJGAEYARgBGwLADRgBG8AVGaNcxykfTBxihulB3A5trpDEDRcWvfvWrJUdFyBQvEkRwxRS3GY2ha1VVJwjb32W6zjbnXZ8DRqh2HGQeGKEVPHAZemt9rut5qe5AvY/8eep/qzWC69f27LlPshx3Jq8BASO06FRWjwohYASEqk/8y+bVPa8dBT0ETi38rO52M3vmFxJDFJqKNfnSAA4EjIDJVzyMADQVPoyweO6wC22AgRHIU3lhBN3PMZoqwAjACMAIYcMIWpcxgsZNGKG1Y1Ri9vi6yxQYof7cZtsVoYwQ4CBQIFHREIIrprjt7xdU4GsnCIXtSBB1z6gz1AHE9O6k96sYYQQBcHoXKmNcYtFKNpqlbTIz1SZ8gBGyXN+tW7f2493ECyPcuHGjMTU1ZeNNzciX4hwjBIyA3AEQ1PXgSAkE2mKNL3RPWA6MgMnnK4zwxPr1mHwUxMlTAeYpn9oAmxRinho7+7ExT5VV/A0RRtD9DowAjACMAIwQ2tor1q4vrsAIiwFOVzpGVaULFz8jt1UQtqa4zG2fo05TXMa2TVeEPOfdFkYoYgxHEfCLC/cbMMLXwQOXnyGLwQNBfFmevbHACB988EFiLO/DXI4PRvi3f/u3xt27dxvT09O2ntS+dhtlEQJGQKiaJL9yIRE3atKRZ5999gAmHzCCi4ZkbAYNMAIwQix5KpQ2wLHuzjPlKbUjBUZYVJCdN4Z41gEjVC0TyLVn734MOwIYwWMYwbeOUbaGUOvIwyzPTUCrakKdCHxsm++rKa4xD7ZjMSRbWNil8Qg2IMb27duBESo2q9V5R1Ludh2EUw1Cz089Y/R8WeqdDRjhazDC4h3vO2jDHw+MkMStW7caV69etfGiJue1gvONEDACqi6595Y0h6djvfbaa5h8wAjACMAIwAjkKdoAd6jH/+o/AyMAI2QqSi/VrhQYARihTIVSFC3SsFu37nEog4xx8uRJ6+8pMEJxMEJIHaPSzktiBgmuMBlCwAhuwAiutO+vI7q7uyszxdVhQOfa5ncWMRrDpfEIAwMDHf8d+gwwQrVmtasSGJHAbXnBA2CE1F3vK/F94oARFHfu3Glcv37d1pMa4pwjYAROAiq/E4ITEEIRMIKKBmmfffLJniALTa8MDacet84LRXBgBGAEYITQ81QMbYAFUOi41MEhKVwkMyJjNZKBEYARgBGAEVhL0fUFGOHreufAIeNO/1g7Rml9mLS9FqiaxwgCRgBGqDvKNMXVAUFdBXR+BTDkgRCK6srgyngEnY8qQQxgBH9hhAQ8SJ43rLsrgxFaoQQ6JUQAIyShf27pS53iXkHACAgVn8yXaySCSxBCETACu17qnQcKjEABHRjB/J3TS2jaZx97bB15ijbAbdsAk6eAEYARytGly59bnzMEjMBaChjBZ9Aq6XIQInDQCnAmBlDWWdvACOl6ffcbqXlt1aoHgREqjDymeAIbqHNAAhwIVLAZQZBFghnUXcGXThAh3nPACOV319FzJ+msw7rbCRjh3s73eS3DFwofRlDMzc01pqambLwpjfro5vwjYASEiknk/QuJteGi9u7da7WDAxgBGAEYgQK6DzACeSrbOYu1DTB5ChgBGMHNQhcwAkVR1lLACCHCCKEAnO06RlWlGGEEF3NbzDCC7bHXoSI6FLgyHkEABzBC3DBCK3hQ9bMnlnX3E+vXpx6HNjR26DtMMrohDhhBcffu3cb09LStR7UPeAUBIyBkn8CXldEN4dq1a815PEup058nqpFCEzACMAJFJpfj8OHDQFMF56n1a/5T8G2As8wdJk8BI9QJI2jHqOmze97YD4yAgBFYS3kFI+j5ywia+DpGASMAI8QCI9ia4lWrKCBgeHjYifEI6ihhcx4mJiaAETyDEZLnUPIMKqPLDuvu9tIY04JhhHtdEvCKwocRkrh161bj6tWrNveJ4JUVXAsEjIBQZ8l7xUICzQ0eKNErid+5cyfzYlck2u3bt5ufNQEKwAjACMAIFJnYnRdfngqhDXDr3OE6ChRZ8pTa0QMjACOkmTjACMAIFEVZS4W29ooV1vMNRmjXMaosgBMYARihThghGY0g5R1ZkMcUr1JFjGdw7Vrbnnd9DhjBXRih9d3eF/AAGMHa5zjFzvc4YASFfCybTbPAKwgYAaHOEnd3nrEMStQ3b95sAgVFhX6WfuaNGzeAEYARvJAKYbEVms6Pf2p8Ua2b6gdGAEaoY+5wXW2AyVPACEXBCDJ5gBGAEVwrim4d3YZhRwAjBA4jtHaMSgBOH4CDNOmYAK38hREEBpQFG6hjgf6u7du3N7sCaHd+u79B/z6PUa/f5zqIUGTdwJVrDYzghjb2PZXrHT+B4EJ4HsUII/zLv/xLY2pqKg+QMM7O9zhghCT0mRzwynKuCwJGQGjppN1rk2DVumZmZqaj7ge2od+hB0HSLgcYARiBXS+YfMAIwAi0ASZPkafsY/Pmzan3ge5vYARghKplev6p2IhhRywVMupsv6fACPUBnHV2jMLwAUYo2xiWuZ0FNsiiZ555plQQNRQQwSUIwPbvKKpDBDBCNrO6FYZL3vNDAw/aSc/gENbdpuv75ptvNu9rdWOenp62NZlnABLigREUc3NzthCL7pVurg0CRkCoABBBQIASeZFdEDrplqDf/eGHH1qbfCp2pH3ugQceCLLQtGfvfmNBiCI4Jh8mHzCCy3mq7jbA5CnyFDACMAIwAjACMILfXV+AEaqDERKA0+WOUcAIceW2qg3q3bt3F/69UicF28gDQpQlARZldZ6w+XsEjrgAwNQd69Y9nvrd3b7jtaBgBAEIrLvDhxFaNzxaQgkACRHBCIkPlQNg2ceIDwSMgFAOEEEjE6rohGCKCxcu0IKzhEITRXBMPkw+N2AEmd8xQlNV785rbQPs09xh8lTn6upalZqnTpw4AYwAjGDU6tVrUo9bwCtrIYqiwAjACKGBVqF3jAJGAEYow6BWJ4Qy3l/UXcE29FmXuiEUbfwX0Qkib/eJxTE8PGx1buqO5+bXWzHBCGnvPay7/b++u3btanufq1PCtWvXABKAEYxx69ate926O9Qk9wsCRkAk6vl2MZ12Q1DidSXUJodCEzACJh8wQqgwAnmq+DbArXOHQ24DTJ5qr6c3/Sg1T+3ZsxcYARiBQiZFUQw7YARghDba/V//fbNb1OKOUTEAnMAIYeW2qnbL20IPZRvVZQESnUp/RxndEIqCL4oa1aBRC7peVQInwAis4WNcd28d3Zbe9XL+vTctZFZbAAnL8ZfigRGSjhrXr1+37ZIwxLVCwAgo1iS9YuHBmSlhihKsYyQDhSZgBEw+YASfIws0tVSrWvKU/dzh2NsAk6eAEaqAEdRVJDbDmEImRdE6DTuB4US574gCFRlBwwgaYITwQSubdw3tbu8kbFvzl93Cv+y/K00aEaHfXwWEkPd4O73eRf9+jfcARmANz7o7u/QMzQMjKObm5jrd+T5OC/64YIQc8EqiU0AsCBgBxZagly20iMmUKDUXh10vwAgIkw8YgTzlSp6iDTB5ChihfhjBZKoAI6CskgGsXK7ONQLKBJfFeG+xlqp/7RVz1xdgBGCEmGCEKnaqlz0OYWJiwurYjx8/Xil8IFNfhrzt35s38nSoOH36dC1dEYr43cAIrOGBETqHERTaiNnh2IYjeE3xwQgJvKINaBZAgjYHd3PdEDACiiVBH8maIL/88ktMPmAE1KFMRfQ9e/dTQKcgTp4iT5GngBFqjy1btqTeB2rHDYxAIbMIqZV7AhzoHOn+MXXXAEZgLVXW2kswIzACMELVEkybdo5fGBgM7r4aO/uxk11fbECBTkcjaGd7mUa/7RiBosdH6FxKAg4k/fyiRhzUCZ8k19wWohCI8Mwzz1Te+QIYgTU8MEI+GCEBErQxswNzuR+/KT4YwfJeadU+OmsgYAQUenLuz5oUb968icmHyYfY9UIBnTxFniJPASMEGm+++WZ60Wb+PgFGoJDZKXCgWfI6D4JZTPeJrYARiLTI0/UFGAEYAcMn/Nym3fplG8RldyDQz7cJjUiw+X0y1l2FDUyxfft26/MsIKHT49U5zgMiFDUiAhiBNTwwgh2MkESHJvMKfKf4YIQkbt261emIj0ST3DsIGAGFmpiXL7SC8b4jQl6TT3PETZ89/ItjUZp8KiRTLMLko4AOjECeIk8BIwAjACNQyFzq+aSd5TpW7fTVvbD2oZWVzp3GsCOAEaqFEdK6SSBgBN9ym0z1KkYjaExBWc9BHUNZ76dF/766o4huEAIaBBmYIASdJ9tODHm7XgAjsIYHRigWRlDcuHEjq6k8jvcUL4yguHPnTuP69eu2XRKGuI4IGAFFOZ5B5F8oJh8tOO/Xpcufs+sFk48CuicwgmZok6fIU+QpYARgBL8KmTLnQ8gRAneVa1Wg3PXst2oBDoARWEsBI1SnjX1PYdJg+AAjFGwSC17Ia0yXAQfYQBKu7Na3DZvRHGkdIiR1p9D/1UiOPJ0QFv98VwIYgWeTT88mjZlMO46enh6r74Ha8F+7do1xDcAImUO/yxJI0DEs53oiYAQUQlJemSXx6QHrU2zatIlCEy04ndstuPHRP4/O5OvqWpX6onrw4LvACBbfOfIUeQoYARgBGMGzXTcp58w1CXpTPj088If3gIOetd91BjgARgBGAEbApMHwIbe5tFPeBgCYnZ29z6wWnCBjXOZ+YmrbGOV5YASb36fP+BynT5/2Yn3j0giM0GCEraPbglnD82yyHPeZY8d7xhb86ka9DB8qbhhBMTc315iamrIBEnQPdXNNETAC8j0pj5sSnh6sIv4oNGHyUSwy7xbM054Yky+uAJoiTwEjkKdChBFkXqd9ds2aNcAIDkhjbZQzT778zebzRn/fpnXf8aIgD4wAjFDHO6Lp+8EIGgSM4H9uUzt921b9ZYRNp4Y8MIKOo9PfJ4jC9yiqO0JZcq37RGgwQkhAcZHSO0II6+4yYQTF7du3s5rJO/ChgBEU8tjUfdyyS8IRwBYEjIB8Tci9WRLdrVu32PWCyYfJt2i3YGt74qJ2C2LyURAnT5GngBHIU77DCCZTBRih+s5MCXCwpffbxu84MAKGHWsvur4AIwAjxJzbbJ49ZXUHsIER8hjXtmMqfA+NzXB1XaPRGeqi4VKMjIykfnf1bsUaPozursAI2WJmZiarkUyrfWCEeyG/LWNnjcWaVKdzri8CRkDBdUW4ceMGJh8mX3QmX127Bfv/cTMmHwVx8hR5ymkY4ZWh4eDuq/7+51PzlApuscXJkyfNRRtgBGcKmcp9eToz+SAd0z/89Z8CIwAjlLr20vcHGAEYwTUY4Yn168ltFUYyNsEFQ95mbESeLg3Hjx+3OnaZ+b6HLYhRptR1wsVzqxoOMAIwAjDC/TvdM7beH8KPAkZoDY36uH79um2XBO4nBIyAvEnGK7OMZ1BSxOTD5AvV5Gst3ruwW3Bj31PACBTEyVPkKXbnVSy1Ek3LU2pFGluMj48DIzhWyNQoqLI6M7kigZ86Lh2jgFAdrwDR1nNg+hlnz32CYUcsGXm6vgAjACNg+MSR29RZwOYZphEPLsAIecY02Pw+SZ8LIWzGVJQpV88rMALPJmCE9rvcM5jHM7TYB0ZoF/o7LIGEcTpuIGAE5EMy3mdKaK4k5KpNPtNOsoGBFzH5PFJr8d713YKb/u5HwAjACMAIwAjACMAIwAiRwgjJKKjDA394rzNTaMCBjicBDnScOl4dd9YcZfr5KjjGZtidOXMGygAYARgBwwcYoeYd8uoq4DuMIKDC5tjz/E7XwhZGiaEjAjACzyZghPTIuMO9F18KGKFdzM3NZe2w0Q5y4b5CwAjI2US8LEtXBLUZCtXk044yCk33S+0f045bBWNXF8mhFO9DvLeAEcqBEUz3d6x5ioI4MAIwAjCC64XMukZB1QEcaL2tY9TxCg4tIkfFCCOwlgJGqFMaz5R23Ooux/oJwyckGMG2O0Ce8QhFghF5wYDYYQRFnR0SNCbE9bEXwAg8m3x6Nl24+Jl5U8v8u28Rcfv27Uw72fGmgBGWCnlx09PTtl0SjtB5AwEjIBcTca8pgc3MzFBoYteLUybf4uK9Cl+hFe+BEYARgKbYnQeMAIwQOozw0MMPB5mfjh57P6g1iUnqMqVnkbpO6Zpr7FUV3WmAEVhL8Y6ISYPhE4a6ulal5rYTJ07UkidmZ2etnosbNmxwwhQ/ffp0rt8pM7zT36luAqGFbYeMPN0QfIE6gBF4Nvn2bKoKRlBcu3Yti2lMW31ghNTQ2A9tFLYAEiY1mp1rj4ARkEuJ+Igped25c4dCEyZfLSafFrwqaLeOVYilsA+MEFfs2rWLPAWMAIwAjBAcjKBneIymSpYWoD5KzxsBoMoNAkLrHocDjMBaqq53REGidH3BpMHwiSO32RjykroqFAlFyKDu9G/QqIU8MTAw0PHv1GdCDHUosDkfNl018l43YASeczyb3IARbt68mcUw7sefAkYwhby5jKM/2mmI64+AEZAXIxpu3LjBrhdMvlJNPrXq1cJWP1OFvdBmIi/eLZi0J47R5KOATp4CRgBGAEaIC0aI1VTxGUZQpyk9V1qBA3WkcjFHASOwlqpr7cUIGkwaDJ94ctvu3butnqdFmvI2O/MFL9Rx7EX8XpdDkEnRUII6aega+wQhACPwbAJGyBYZdrQzqgEYIXPob7QEEsbpwoGAEVDdSbjblKxE8WHyYfLlNfmmfvb7zcXr4YE/DHYmcutuwSztiU1FzI19T1FkoiBOngJGcBpGCDFPASO0341nLNos8cwDRnBTgj4T4EBrM10nrdV8y1HACKyl8sThw4eNQDEwAiYNhg+5TaMObJ+3ecckKGRQ23RF0A77OiCIJqQaQei66PzYggn6nD6vjgs+BzACzyZghPSYnp7OYhQvw6cCRsgac3NzjampKRsgYUbj2rkXEDACqisJ7zAlqrt372LyYfJlNvm0QNUuOv17GfOhjVUocrdgjK2r+/ufT31RHRx8ERiBPAWM4JBizFPACO0DGME/GCEBDtR1qrUzU0g5ynQOjh57H8OOWDLydH0BRsCkKatL4D/89Z8CWjmY22xggKRLQB6zWUCo7ZiI48eP1wZi+G6w24SOWedLgEE76Xqoq4KP3Q9ighG0drRdGwAjACO0i1u3bmUxibvxqYAROgn5dRlBl3Y6AgCDgBGQc0lYs2hiN/nUWj/ts489ti5Kk++f+/64WTDR+dH5086hUICD1uJ9mbsFYzRoMPmAEYARKDqQp4ARgBHKGwWVpTNTSDI9/2ScYtgRwAjACHWrtUtgEWMJgRGqD9tRDXmABBnXat9v+zuLCP0NNr9fnyPiiNBghCxr+BieW9p0lYBy2mjW9+ifG8/L2XOfBAEjjI2NFf49yWAOD+FTASPYwi4ZRoG00+S8VnJfIGAEVGUSboSWhG1MPhUCKDTdrxcGBoPqaJCleF/1bkFMPky+qqCpWPOUzgsFcPIUeQoYIQQYoXUUVNKZiRwFjACMAIxQtfbs3W/9Xh2LcVPFWEJghOpDu9nzXjftjlenA1MIXNCIhTy/S/BEEZFlVNdSx0rEESdOnEj97nZ1rQJG8KBDj2qiybPLdrOZL88mjZpM3dQyX5srOrTZ0+DBnMKnAkawjTt37mS5xwBhEDACqjUBLzclJNFVFJrY9eKzXC7eY/Jh8gFNsTsPGME9vb77jdQ8tW7d48AIBcMI47/+TXD3kXYG1TkKChgBGIGo9x3xoYcfjha0igE4qHssITBCPTE8PFzI9RsYGLivbb+k/18Agm0nhMUqchQAMAKRFufPn0/97ko859x6v2/t0hPjs8nYYbMEGGFmZsa4Sx2vChghb+jvtwQSxuUTco8gYARUZgJeaUpGIqsoNGHyua7W4n0yVsGH4j0wAjACeQoYgTzlnk7+8iNjQQ0YITuMoOex6bN73tgfZI4yHferP/4PpY2CAkYARiDKXXtpByFdX8KFEZSbk12iLo4lBEaoJ4rojlCFigYBBE8wpoEARvDrObd4zEJZnXqAEbLFzZs3jYYwXhUwQhExNzfXmJqasgESZubVy32CgBFQWQm4P8ODEJMPk88JaVe4ikCid3VNtKiueqwCJh8wAnkKGCEG+KC1+P53j38HGAEYIROMoPtmqfsKGKEzgAMBI+Qx7Hbu3IkzUsHaixE0/sMIepdMjJpkh6hLwAEwgpugVd7xCWVLnRWyjILoJAQ3dPp3FP03EMAIPOfKH7MAjFAejHD79m3bHeuJSVxZK339roXfmedvlum/rKK/d5kJMsiqUMaVa3OxJZDQAEhAwAiozIfLkslHs2YoNGHyVSktmLVwlgGm867FdMiFemAEYATyFDBCCMV3YIQ4YvPmzelFm/n7CRgBGAEYgbWUT6Einel7uhT8DIzgh0mjzjOLW1ILcvd9FCEwQn0hk727u9vZe2NiYqLwY+60I4SADQIYARjBvzELwAjlwQiKAszy0oEEk1fUKZDQcKDbQWwwQs7OCN14pggYAQEjYPIFBSOoPZjahMU+E1nFMdO50sxpCujACOQpYIQ8xfdkh0RZxffQ8hQwAjACMAIwAmupeML2ewqM4I5Jk7Sibl3zVNGOuk7t2Rvec7O///nU3DYyMuJM3tAIAhfvi+PHj5d2zFm7IwjUELxAACMAI/g3ZgEYwXkYYaYCr2imQBihUZG/1QBG+F3o78/RyWI5fikCRkDACDWbfDLL0z73wAMPACOkjFXQwlmFIWYi2xk0oe16oYAOjACMUHyBQs+ppEhRx+6I0PIUMAIwAjCCP9KusLRzrGIjMAIBjOC/SePKmqeqLoEmgBTQqv6Q8e/S/SNYoOzYvXu3cUREGZ0ZCGCE0J9z6sKUPN98GhkUKowwOjrqKoxQqrkvM7pIY78KGGFhREP0MILGMsjHc7XjBgJGQEgJ+0haMrpx40Ywi+MrV67QgrMEGCEpmKgQrEWzztVS5xEBI1BALw9G0EgT8lT7LiyhjHRJZkCqQO1agQIYARgBGAEYoS6ZYDxgBAIYoXqTJk/HO9fXPEVIx7S4SyBdX/zMbRpHEHpHhMWhrhA6boEHye8fGBhowhAaYUEAIwAjZBuzkDzjfHlumQBgn+oCxk0t8++9ZcTVq1d9MPeBETyLW7du2d5bk/NagUeKgBGQEzDC9PQ0haaIC01Hj73v1TxQYASKTEBT5Cmf85SubdKG0beZxsAIwAh5YYTt21+NEkaQCcVaCBiBtVS474jjv/5NcPffpcuf5wat2q15QgMOBMQmXQJtxhICI/iT27KOLyhDGolw+vRpEjkBjOAgjJCMTUy6+fjwbp9sONPfLDBwcf0JGKF2GGGyAq9ovEBzv/SxEo2CR0v4BCPcvXu36d1ZHus+gRz4owgYATGmARiBOWnACMGafK/vfiP1JXXduscpiJOngs1Toc40BkYARjDBCKb7PETDONM80pRzhoARgBHcXnvpmU7Xl6XPWWLCaM3jG2TpwlhCYAS/cpuAAIEBVd5/6kbwxRdfkMQJYISCdeHiZx2vDXwcs6D3s6RLT1ZgDhghX+Q19qvYxa7fUaC5X0n7f5O/FSKMMDc315iamrK9j7rxRREwAgJGwOTD5ANGwOSL1OQjT4WVp0KfaUyeAkZoO1tzvtWorakCjICAEYARfFt7MYImDiXAQdVjCYER/MttGlFQxdgGjUfQqASCAEao7zn36o//g5djFhJwzvbZZIIK9+zdD4xQDowwXmU7/QUgYTInODHUqN7jmokBRtDfaHl8p+a1HE8UASMgYARMPkw+YARMPmAE8pRHeUqF6JBnGrcW38lT5CnFm2++aSxyASMAIwAjYNj5Fps2bSptBA0wgh9K2lJrPZe0ps5j1gAjxJ3b1K2gDChheHgYCIFwMtR63vTuNHb2Y55zDoxZ4NnkPIywEr+qdC/slK8wwp07d5penctdKhACRkBpCbjflKww+TD5gBHqhRHeOXAIkw8YgTxVU54KvcVwu+J7u4IFeerrUtENGAEYARgBGAHDzv/IM4IGGMEv6VmUtKRWB6u6gYM8hs8rQ8PkNg+ghOPHjzchAtsOCPqsfoa6LhCEy2F6d9L7Fc+5+scsACPUByPcvn07i2FcWfcDYAS/YIRbt241a1AWEMIk9xUCRkCuJOCVpqR19+7d6E0+mVGmzx7+xTFMPsSuF2AEYAQP85Re2lvHKug7aZpvH0LxvZNiRYy780x5Su1IgRGAEYAR6pdgsbRzvHr1Ggw7AhghIpNGa7hkV6jNmgfQitxWVkxMTDROnz7dOHDgQFPqnjAwMND8v8k/k9T9APiAAEbgOVfGmAXql7+TNlOkbtpYu7YUMznDhlD8KmCE+0K+3PT0tG03hH3zWsZ1R8AIyJUEvMKUuETuhRI9PT0UmoARgBGAEYKEEVRkJU+l5ymdu2Ssgox5X+Y72hTfkyKFYDryFDACMAIwQsiKEcYzGXa9vRtxRYARgjZpklFSZax5gBGAEQiCiBtGuHDxMyeeb6pduPZsC6UukKmOVHDI5DZ4MDN4VcAIrTE3N9eYmpqygRBm5tXN9UbACMjFJNzwdVYOhab6F+Aut7YERgBGCBGaUsGVPNVZnvqrB78X3FgF7YpI2jEWPQeSPAWMUAeM0Nf3Q2AEBIyQUe8dOc5aypN3xO3bXw0ytz2xfn1lhkzVax5gBGAEgiDihhGyGNVFbSZIxiX60sUHGME+rl+/bjKQT+FTASN0AK8seR/NaznXGgEjIC+TsB6WFJrY9QKMwGIeGIE8xe68atswJoUJ7YioO9cCIwAj5IURTKbKmjVrgsxPW0e3WZ8zBIzAWsr9tZdprFOsXV86hSxdWvMAI7gLI6xb9zgJiyCAEUrX2XOflDZmIRkfRP0yPhghg4k8hE8FjHDnzp0s4Ar3EAJGQN4m4R2mZKb5NJh8mHzACCzmKaCTp4ARit0JoXERPsw0BkYARlAcPnzYaCoBI9wvfTeAEYARWEv5vfaSecAImnwwgs7T4jUP+QsYgdxGEMAIodUYXB+zQF2gHhjh1q1bWYxk2upHDiPoPrl69aoNhDCpUexcXwSMgHxIwt2mpKZkiMmHyQeMwGKeIhN5ChghzpnGwAjACIrx8XFz0QYYARgBGIG1lGexa9eu0kbQxAojqNOBLy2ngRHIbQRBACPY1Bh8HLNAXaAeGGFmZiaLobwMnypOGEGbgKenp227Iezj3kHACMinJLzMlNhu3LiByYfJB4xQ02JeLZ4pMgEjkKfchREWtxgOcaZxbHkKGAEYARgBGIG1VDyRZwQNMELn61VUDIywse8pchtBEMAI1EKBEUqCEWZnZwv7fmTY7T6ORxUnjDA3N9eYmpqygRBm6KaBgBGQr4l4PIZRDXlMPu1ujbHQxAK8fKn1a0z31tjZj40vqlqoAyMUDyNs3/4qMELOOY9Ji+HYZhrHlqeAEYARgBHCghEuXf4cw44ARgBG8EpaawJakdsIAhihHj2xfn1q/lXXQ2AEf2EEvRsY693j44V8NzKOaNiBPxUfjKDfZdkNQcewnOuJgBGQr4m435To6pyZU1TQghMYgRacmHwhwwhqE0ieyiedw2SsQjLTmBbD5CnyFDACMILbMt2X2v2EYUcAIwAj0PWF3EYQBDACzzl7qRtk2nl5YWAwnHp3QTDC9evXs5jLK/Cn4oER7ty5k/W+aKchriMCRkC+J+LlpmSnncq+d0eg0NS5Vq9ek3rcMusoFmHyYfIBTbmcpxZLnW50rrTbPxmrMPWz3ycfkafIUzXCCA89/DAwAgJGwLAL7h2xr++HQeY2mQ1pxy2zgtwEjEBuI4h4Yt26x1O/u6/vfgMYgbpAdDDC7du3s5jLk3hT8cAI6pSRYWxH2/sEaAUBI6CQkvGR0LsjACOwAGcxj8lHnoovT+m8qNXtlZ9+g5xDniosT504cQIYoQMYIUZTRXrnwKHUY1770EpyTEapS43uI7XFVU5Sbjd1BAJGIMpee9H1BdAKGIHcRhBEo/Hc/Ptg2nd3+47XqIVSF4gORsi4+70fXyp8GEEbfKenp227Ieyb1zKuHwJGQCEl4+7QuyNg8rEAZzEPjECeIk8h8lQWPb3pR6l5as+evdHlp6mpKWPRZinoJ1YYQSa4LcARswGnzlvKO1t6v218tgEjYNiVvfZSRyVgBGAEYARyG0EQwAjACMAIWSNjV4QGJnP4MMLc3FyzlmIBIczIr+O6IWAEFGpCnjQlwpmZGUw+TD5MPhbzwAjkKfIUeQoYIcIwFm3mzRNMFWAEkwStqGONcovauev5pS4ReaEDYISvNDs7izOSMcocQQOMgIARgBEIAhgBGIG6QHwwwrVr1zLteMePChtG0M+z7Iagv3M51wwBI6CQE3JvloQoug+TD5MPk4/FPDACeYo8RZ4CRgBGAEYARminqZ/9/r2xCrue/VbzGaUd5mUBBzHBCJcmJllLASMAIwAjACMQBAGMQI2BukBJMMLJkyerMKAxmwOFEe7cuZN1TEc7DXGtEDACojvCgtRaxsdxDSaTT3Nnl1pwaddWjIUmFuDlS62I087x6tVrgBGAEQqBEfr6fkieQuQpYARgBGCEwjT789+7b6yCnkNaT9cBHMQEI7CWAkYARghfArpM9+XZc5/Q9YUgCGAEagzACGVc4/nanE2oJX9Gw5muCIHCCLdu3WqOOreAEOTJreA6IWAEFFNS7s6SIG/cuEGhCRgBk49dLxTQHYKmtPOUPEWeIk8BIwAjACOUkQOSsQpber9thN9ck4xT1lIE74jACL4J0IrcRhDACNQYgBH8gRG0cVMbODP4KjN0RQgPRtD1n56etu2GsG9ey7hGCBgBkZgrmqNDocm/xZnMTwpFnRfyO52PTJEpnhgbGyNPkaeAEYARooQRPvxoDBihRl356Tea10nPkmSsQtZ1CjACaylghPZ66OGHo4QR0uBZBIxAbiMIYARgBGCEEGGEDtry04Y/MBhBHTEygijtwJRurg0CRkAxJ+YVWZPmzZs3KTQFbPJtHd3GrpeKgANgBIpM5CnyFDACMEKoMEIWU2XPG/ujhBHUirvKtt+6RocH/vDeWIWetd8NAjgARmAtVcfaK9auL0ePvR/0CBpgBHIbQRDACMAIwAidRAc74ifxnsKCEfQZy24Ip+iQgYAREPpdch4KDUjA5KMFp8vAATDCVzpx4gQFcfIUeQoYARjBwdi0aZN1YS5GGEHKA3DYaPbnv9f8mSdf/ua9sQrapRwSXKDj0XHp+HScpuMDRiDS4sqVK8Z7Tp1DeD6GN4IGGIHcRhAEMEI7vTI0nJp/tQ4FRgBGsAARpJX4TmHACHfu3OmkGwbdMRAwAkJ5ErRvQAImHyafy8ABJh8mH3mKPAWMQJ5yPTZv3gyM4AiM0G6tEhJwoI4NOiYdnzo56HiX6iJhOnZgBMIUZY6gAUZAwAjkNoIARniNGkMA0po87bysXr0mOhihQxABAzoQGOHWrVuNq1ev2kAIk+pIzrVAwAgIfT1BL1+YXZMpoX755ZeYfJh83qh1NrILwAEmHyYfeYo8BYxAngJGAEZYaq2y69lvBTdWQesuHZPWYTpGHetSO9DTBIyAYQeMAIwAjEBuIwiivhgcfDH1u9vf/zw1Bo+VdF7Tmj2UdY+x+8WWLan3/N27dzsFEcbxmvyHESyue6v2zWsZ1wEBIyC0dJJe2UliVUJWYvbV5Ftqx5VawMZYaPJ9AR5KEf/Cxc8w+YARcsMIDz38MHkKWedS8tT92rlzJzACMEIhMMKHr/wPzbWKdhrp/ClnhTZWQceUjFVQN4eiR1MAI2DYASMAI8QII7xz4BC5jSAIJ0I1nLTvrt6tqDH4tRlB7yaCDzqtoQZzjeffe5cKtee/du1aJyb0DCa0/zDC3NxcY2pqygZC0PXv5vwjYASEsiXq3k6SrB7IStCuhRYLFJrCW4CHvmswxF0vwAjlQFMyeMhTwAjszitGaiWalqfUihQYARihCBghFAmgSMYqCOLV2ky7qKrITwId0v62FwYGMewIYARgBO8EaEVuIwhgBGoMVdRUtXYXeFAEEB06jGDRnn+Gtvz+wwj655bdEPT7lnPuETACQp0l66FOE+7MzIwzXRL00NBigUKTnwvwGIADYARgBAriFAqAEYARYoYRhodHgBEcl9ZeyqlaiyVjFZYC5KqUqTOQZsJi2BF1rb3Gf/0bYAQEjEBuIwhgBGoMtUvrdoEHSV015jGzncII2uB4/fp1GzN6Jb6SvzBCjusuDXHOETACJwHZJ+x9nSZeAQA3b96sbUGs393aQgeTrzOp9WNVhaZYgIPF85Gz7GYHRqAgTp5yI08BIwAjACOkwwh6ftuaKiEaxj7CCO3WKVqjuZyfYoQReno2sJZyYO0Va9cXjWYyHbfreQMYARiBIAhghJBhBIEHWscnY+C0xq/iXSI0GEGbLHPsiu/FT/IXRrDogpFokm4YCAEjoJo6JEgCAgQGVNUpYTGEAIzgxq6XmIGDPEVMYAQK4uQpducBIwAjuBC7du2yLszFCiNs7HvKybWKrofGG7SOVfA1P8UII7CWKjZ6enpS7yHNTQZG6Ay08jmnuKJnfvBnwAiLdObMGRIWQQAjACMskkajJbVWre/rqrO+MjQczDX+x3/8x3tdli18EI1m6MZH8hNGkHc1PT1tC6BoI+8yzjVCwAiouMTda5mQmw9xJfS5ubnCF7/6mRoNkbZQwOQr3+QDOMDko4DeWWiHz8GD7zZGRkaaBid5ChgBGAEYwdV48803gRE61LMZ8npZ0txXnXetU2Sm6jmhYmVo+QkYgbVU3ihzBA0wAjLtXLV9dw4RRiC3EQQwAjCCWXpuaG2veqQr9dbVq9c0OyeFco2fe+45WzN6hl3x/sIIN27caLu5FQAFIWAEVG/yXrmQaBt5wQR1MbCBEzS3R5/Vz8j6oMDkK97kAzjA5KPIlC1mZ2fvAw96eze2PX7yFDACMAIwAjACMEJWaf2lc6v1mNYqehbE1h4dGAHDDhgBGMFlJTtW1YUmaZctWCxv/gdGIAgCGCF8GEHrej0/VJcs4tlRBoSgjgg+gQjS0WPvG4/NwusYn9dyfCN/YQRLneK6IwSMgMpP4MsXHrSFJfBr1641rl+/3uxwoNY4rdI/07+TbH/+6tWrrVpwqoAQY6Epi8kHcFC+yadFMkUmP8EDHcvg4IuNdeseN7YdrQJGGP/1b4AREHkKGAEYwTMYwYW1CjACaylgBGAEYATzTtVkPrfaZJuee3n1v/23V8htBEEAIwQEI6hbjsCDZNOXizVUrau3jm5rvHPgUOPsuU+CriPRnh8YIYOGOK8IASOgahP5UAlUWSlSmyUKTfHBCK4X8U10c2i7XkxFJnUN8CnU5UXzS/UCLoOyE/DABkbQyyl5ChiBPAWMAIwQHoyg75kMLK1VlOtDHatQNYzwxPr1GHYEMAIwQmE7VJOxCnq31LNN75p1vONu7HuK3EYQBDBCCZLRbqoxFgEeJABbnc8S03NGXQ/27N3vNXhQMoxAe/44YYRJxnEgBIyA6kvmK4rukgCMUL8O/eIowEEFMhk0mHzuggerVj2YCzxop+9///vkKWAE8hR5KjoY4ckne6KEEbRuUTGSPJNvN3JsY4ow7PyBEYaHR4ARPJNycjKP2+WRhD/84dPkNoIggBE8qDEk43qSzjkuPlME774wMNgED0IbwVgijHCEbghRwgh0wUAIGAE5ktR7F+gwJ2GEH//4x/8fJl92/XTbDoADTL5oTb6JiYnGiRMnGjt37mz+TUVDB8AIxUiEvum4Mfrytxt+/K/+M3kKGMEII6iwZrt7fc2aNVHCCGk5HQEjYNi5DyPE2vVFM6JtO3m5oMQY0t+ZmEMuzuJmBA25jSB8iIMH30397nY/8mhUMEICtKl26SJ4oGe4wAO9w+tYL13+PHj4oGAYQYb2Snyg6GAEumAgBIyAHEzsyxZGN7gEJeiBMbRq1aoxTL7i5qQBHAAjhGLynT9/vvkCXTV4AIzA7jyXgIM87YZjy1O9vRujLDSOj49bF+ZihRHU2jTtuGWAkYuAETDs6o3R0VFG0AQKWrVb54QwhhAYgSAIl0L1FFOdI1QYQeN7BLbpGeMi1CbwQM8Lva8fPfZ+48LFz6IDDwqEEdQRuhfvJ0oYQZ9bzjlECBgBud8poc7xDZMLf0Ozfc78YuIUJl92aaEKcACMEBqMkIAHIyMjTUOxTvAAGAEYwSfgIKY8dfKXHxm/q8AIwAhFgJ1pJicCRsCwqybKHEEDjFC+ZAQl7a+TsQouzt4GRiC3EQQwQjhGtatwm54NW0e3Nd45cKjZRRLwwP4aX7x4sXUcA50Q4oURhjh3CAEjIL+S/Yp57aioW8Lkwu9asfjvAEYo3uQDOABGcBVGmJ2dbb4Uq2g1OPhiY926x50DD1rV07Oh8dLLWxpPPLEeGAEYwUngABgBGAEYARgBGAHDDhgBGKEOGEEjt5K21/rZOu++jVXIYmypW07y7qz1HDACuY0ggBHcNKpd0Ma+p5pd2Pbs3Q94UEIdad++fa+xGz5qGGGynbeEEAJGQP6BCf0LZOFkQSMYjiz8zNSHxPxiYp9tq1xTsSPUQpNpcfZ3j38H4AAYoXYY4erVq40zZ854Bx68vvuNpulZVHHX9H3dvv1VYASAA2AEYARgBGAEYATPNfKTrc6NvAJGAEbICyPM/vz3mt9ntbvW5/VuHtJYBUk1BR2Tjk/HqePVcds8N4ERCIIARogHRnhi/frGCwODzXcL/X3ABJVsvqMbQrwwwr6kyzZCCBgBhfUgWKZ2RwswwdBCV4NTS2jfwn/Tv/CZjgjF+YXEEIUmTD7XZNr1ohcOYIT24IH+21WrHnQaPFBRTabBW28f/Bp4UPR8cfKU/3nKZeAgpjwFjACMAIwAjECXKWAE3hHLgRE0VsHHtU5W9az9bvOYNDJCnRyUo9TZodPcJljBNAc8Nhhh586dJCyCAEYIHkZQftdzNgEPLl3+HHgAGAFVAyNow2s35wohYASEcgsYARjBRcW266WTAvrExETjxIkTzcKT6+BBV9eq+8CDsbMfV25ckaf8yFO+Agcx3VvACMXDCDJk0j7X1dUFjICspF3FpvsytB1kwAj+wAhPPtkTJYyw68ffaq53tNaRKa/zJJM+FOCg3UhCQRaAVuQ2ggBGAEaweZfWO8PRY+83Llz8DFAAGAHVAyOcYiwHQsAICAEjOLw4U+GFQjgwQpFFJgEHKjS53O0gAQ90LO8dOd44P/6pE8YVecqdPKWCdMhFeGCEOGGEK1euGO+FpcyYGE0VYITqBIyAYVcmjKDW+nR96QxGCEXK0epK1jpWga4v5DaCIIAR8rw3bx3d1njnwKHG2XOfAAUAIyA3YIQhzg9CwAgIASPUrI19TxU+DxQBI7gMGixW9yOPNvr7n2/+3TIoiwQPgBHcnVsMcHD/7j/TcQEjxBO2nUiAEZZu581aCBgBw67eGBsbYwRNh5KREso6R7CJ1nC6lslYBXVcYQQNuY0giDhhBI1FKOL5onqqxnDu2bs/uLUoMAIKBEaYnNcKzg1CwAgIASNEbPIBIwAj1KGeng33gQeXJia92kVLnio+T8UEHCxuN9xqKseWp4ARgBGq3FnFWggYAcOu3sgzgiZWGMG0XnVNWrtpnaO1nK6ZnklTP/t9p/MaMAK5jSCAEeqTIIJOnjNPrF/feGFgsPl8BDzwQ6tXrzFd1368lKBhhH3zWsZ5QQgYASHvYIS+vh9i8iFghIJMvqrAg5de3tJ4ffcbzb8phJbewAh2eQrggDwFjACMAIwAjIBhB4wAjOA3jJBnnQOMQG4jCAIYYXF3hKU6xcrE1vtvAh7ov8XcD3LkFK37w4QRZubVzflACBgBobJhhG7bQpMMKuaBAiMAI/gJIzy96UeNkZ9sdQ48qBpGePLJnmjzFMABeQoYwa6wePDgu42RkZFGb+/G5nEDIwAjACNg2AEjACPUCSNonbOl99vNc3/y5W86M1YBGIHcRhCxxsTEhPHdqexxl2Xp6LH3m888Sf/7wsXPMPKBEZC/MMLQvJZzLhACRkCoChhhJYUmYATXpNmkpnZvwAidgwdvvX2wMXb2Y+/OzzsHDlEQL/4lEuCAPFV4npqdnQ2mgKhjEXiwZ8/exuDgi/fAg3YCRgBGAEbAsANGYO1VNoyQjFXQ+dUaxIexCnXACKGZYuQ2gvA3TO9Orm8KQcAIwAgIIQSMgBAwAjBC9IWmkO4pAQJFQAddXaua4IGKVu8dOe4taV+kcUWeAjggTxUn4+6eefPex7h69ep94MG6dY93lHttYQR1JzF99sOPxoARkJWUM9PO8Z69+zHsiFpghK6uLmAEw1pHHat0HvX80LOCnAZoRW4jCGAEhIAREEIIGAEhYARMPmAETL5cEkTQifnV/cijjf7+54MDD4ARitHf/m0vwAF5ChhhCfDgzJkzTfBABfxVqx7MDYL95V/+Zep9oB2stqbKnjf2k9ORlUxjimScYtgReWCEpXblx9r1pRMYwZe1DjACuY0giGyh96ATJ040du7c2fxeZnmHAEZAwAgIIQSMgBAwAibfknplaNh6fj3C5FtKlyYmGz09G4zggV5Y9d/G9EIEjNC5HnvsMYAD8lT0MIJmtaooWCR40E7f//73rSFFYIT2CnHWOTBCuRKYafquEp0FI2iKHytGbgNGAEYgiDDAg4MH322MjIykjnIDRkDACAghhIAREAJGKG3XCzACJl/eYrqKTq/vfoOXU2AEawEckKdigxES8KCT3UjACDXBd5c/tzY5ETDCUtKaCRgBGIGuL8AIscEIMkIJgignZmdn741yywseACMgH7R1dJvpOXsKLwUhhIARECoNRlhqB4fJ5Hvo4YeBERAmHwJGqEE6LoAD8lSoMEJRu5GAEdwFpoARgBGAEYARgBEQMAJdXwiiDvBgcPDFxrp1j5f+DgGMgFxaw+zZuz9LZwRgBIQQAkZAyBpGWGZbaJLxxDxQYARMPuRyS28TjNDV1RXkOdvY9xTAAXnKexih7N1IwAjACMAIwAgEMAIwAjACuY0g4oqrV682zpw5U/ooN+O70/in1HtQ5Tp77pMmeKARxBZ1I2AEhBACRkAoF5BAoQkYoXZN/ez3m/eUTJstvd823ltq88yLRBzK09I71jz1f27/GcCBAzBCaHmqTBihjt1IedTTs6Hx0stbmiN1Nm7sA0YARgBGwLADRgBGAEZwAEY4eux9chtBEPciGeVWN3iwWE9v+hG1HlQJePDOgUPN8QsZuh4AIyCEEDACQsAIwAjh6MpPv9E0OxPoYNO671gtgkPb9YLKMa7IU+31w8f+Z8y+nFI3jtjyVFEwgiu7kTopFibgQbt2qqbCThqMIBgo7bMDAy+S01GmfKRzdvLlb95bX5nuLe2GwrAjyoARtNY3ffbDj8aAEZCVTO+OgFYEAXiwc+fO5juGy+8WlyYmqfOgQnXh4mdNIK9A8AAYASGEgBEQAkYARvBj13BSFNc56Vn73UIXwcAIwAjkKfIUrYLdhxFc3Y2UVhwc+cnWxltvH2yMnf0403mRqWv7fTPtXlchiZyOlgIOTPdPTPcWhl3xsXbt2tR7SPciXV+AEej6Qm4jiDpC7x0HD77r9Ci3RN2PPNp8x9i+47XGe0eOU99BhYEHeuZpTb969Zqy4ANgBIQQAkZACBihLmm2Vtoxy3SPrTB+eOAPG7ue/VazOGTaiQeMgIARyFPACGHCCCoI+rAbSerqWnVfUTAreFA0/AOMAIxQJnAAjIBhlyc2b97MCJoOWyGbjltj6Vg/ASOQ2wgieySj3HwCD/r7n2++Y+j7SwcEVMTYUtUV9Hx7YWCwSvCgnfrxURBCCBgBIWAEdr2UJhXOdL1VdNRc+bIK451IBT9eTIARyFPkKWAEd2AEX3YjnR//1JlOJLHCCE+sX5963IIcAQ7KFTACAYwAaAWMQG4jCBfBA3VUGxx8sbFu3eNOv2P09Gy4b5Qb4AEqGjwwvTNVrHE8FIQQAkZAqFQYYakWnFlMvvFf/waTz7PRCmP/9Af3iuOmmZx1SQtyXlSAEYARgBGAEaqVCm4+gAdV70YCRuhcpjmmaSYnwAEwAoYdMAIwAjACMAK5jfA7rl692jhz5sy9UW6ugwcCm1vBA2o0qKi6jbpaauzfxr6nnKy/CkKY1xD+CUIIASMgVASMcMqm0KRCK/NA/TP5FhfIVdBRy3ZHF71tpdlovLgAIxQFTX340Rh5CgEjZJCKcOxGAkYARvAHOABGwLADRgBGAEYgtxFE3TExMXEfeLBq1YPOgwcjP9naeOvtg7lGuSG0eJyT6+BBX19fY2hoqLF3797GBx980Pjtb3/bwDdBCCFgBIRqhxFiLTT5YvIloxXU6njXs99qFm7WPrTSK+hgsdSmLDRzD5VvXJGngBGAEfyHEVzejQSMEC6M4DtwENO9pfErpjyi1s8EMAIwAjACMAJBlAsenDhxorFz584meOAydNDVteq+UW6AB6hI8OCdA4caW0e3Gd976tL6+Y6zAwMD94EH7YRvghBCwAgIASNg8jV15affaBa2dJ1Gn/4j74vkq1evaS7WRQurmKTzfeHiZ7zQACNQEAdGcE6mrjKhFcSrghF8241kghE08mipe0jmdtpnH3tsHTkd4AAYIaOAEYqN5557zvp7agKgh4dHgBGQlfS+a4LXY4MRZmdnSVhELaHn6sGD7zZGRka8Aw8EMVJnQUVI9Up1b/UBPHjttdea4MHly5eXhA/aaDneCUIIASMgBIwQkcmn4tXYP/3BvUK5zA2fi+BPzC+GtVDXgl2tynReL13+nJcZBIwAjMDuvEhghNaioM9tUFV8sv2+KXelfW7NmjXkdICDjqT1oY7tn/v+2PjfAiMQSSye3a0W2t/73vdS7x99j+j6AoxQtUzPzdDuLY2gIrcRroEHvb0bnQYPuh95tNHf/3zzHaPOUW4oXPBA7/l63mgzlXsbvFY3gVKBB8eOHesUPGinlXgnCCEEjIAQMIKjJp+K3kUUy1XIM+28dV2ahaZFuhbralPGmAUEjOB3nkLxwggakcBupGLhH2CE4mCEGIEDHafGcem4NZ5rMcQKjIBhl6eF9sqV32METcEwgsBy1k/ACOQ2wuVQpw3dU4LTBgdfbKxb97jT4EFPz4bmKDfAA1Q4DDa/WUrveXqnV9cdH8CDixcv5gUPgBEQQggYASFgBJcWpHl3vahgrP9GBeRdz36rWbAztTP1od2vFuhaqIsU1ow0XmAQMAK784ARwtqdp4Ifu5GAEcrO6WrDDXBgBg5MHbWAETDskp2sNrO7gRE6lyBsV0bQACOQ2wiik644PoEHAqT1jkGdBJUFHqiTq4vvBwIPRkdHGwcOHGicO3euDPAAGAEhhIARECoVRjhi24LTtFDavv3VqE2+Kz/9RvN/q2iiwrrvBXORwCrwvDI03Fyka7GuNmW8vCBgBGAEYITwYYQESFARUMABu5GAEWyl74bJiAc4yD/eCxghLsOu6BbawAjuj6ABRgBGAEYgbMCDZByPy+CBOqqN/GSr16PckNvvbxoXq9qmCSSsS319fXWAB8AICCEEjIBQqTDCEIWmYk0+30criALWtds6uq25QNdCXaQwLy2oLolOt9lFK5m6jgwPjwAjIGAEBIzgEIwAcACMgGFXfwttYARgBGAEchvhZ2Qdx+OCWke5AR6gMqSurRoZ6zp4MDQ01Ni7d2/jgw8+qBM8AEZACCFgBISAEXwy+XyRFuK6RjIFtDiXocLLCvLRuCJPASMAIyBgBGCE2IADYITwDTvtZK1rdjcwAjACMAK5jfCnK45v4MF7R443zo9/yrsEKgU80MYq0zO5Lq2f3/w1MDDgKngAjIAQQsAICAEjACPYq3W0wtFj7zcX6LyoIGAEYASK2vkkAzLtHCvv8v0FRpCWMqZlXKd97oEHHgjynOm7AXAAjIBh53YL7TwwgsarpH32scfWASOgUmAEdfgjtxGhgwdFjeMpUxrp1t///L1RboAHqGhpZKzqm6oVuQ4evPbaa03w4PLlyz7AB4s1hHeCEELACAgBIwAj3NPq1WvujVbQYlzmiBbnvKQgYATyFDCCvWZ//nvNcyXzUQVw3U9ZR/GEem+h4r5vMRrG0v+64W8ADkrWlZ9+w3i8ocGpPhl2i1touzi7+y/+YiVdX4ARAK3IbUTA43iKUk/PhvvAg0sTk7wfoFLBA9U/3avJrp5f0z3XBA+OHTvmK3gAjIAQQsAICAEjACN8tdsjGa2wZ+/+JnRw6fLnvKCgqOf6kaeAEfJKhqPOiYyCXc9+q3nfrH1oZe6uNHyfgRGAEb6u9ev/GuCgApnORWjjuVw17PR7fZzd/dqu/wsYARjBibVZKxD6N93/ERgBGCGoqHMcjy148NLLWxqv736jCR7wHoCKluqbWqOq5vnCwGCzBuo6eHDx4sVQwANgBIQQAkZAqD4YQZIxo92hmHy/UxZzNK/0O7Tw1gJcpmxoBWOEipzrB4zwdZle2mMtiGu38Ng//UHz+Eef/iPj/QGMgIAR/OuMEBNwAIzwldQSOs1AkdFDC+3sLbSzjKABRuhsBE3aehXg4CvgwDQGCxgBGMFn8MClcTwmCU4b+cnWxltvHwQ8QKWOvHMZPJAEHoyOjjYOHDjQOHfuXMjgATACQggBIyBUKozQm7WwKxOnE5Ovr++HzDrOYFbp52nxrbZjobXMRaiKuX7ACOzOa2fynnz5m4UVtoEREDBCcdq+/VWAA2CEwiXTpCoYYXELbd/AgywttIERqh0rBnBQnIARCMbx2HXFScCDsbMfs75HpYEH6vCatQNmHerr64sZPABGQAghYASESoURVnayMFMRIfZCkwzVTmaU6b+VKaWd3ypSaQGun8HLCGKuXzFSO/2lCqBber+d+tknn+wBRvBU6tiTFLeT0Qo9a7/rTCFDRRZyATACMIKdyQlwAIzgCozg4+zuIlpoAyMAI7gMHMT03NR3uu6uL0SY43jeO3L8a11xEKpr9GZd4MHQ0FBj7969jQ8++OD/Z+/tYiU5yzzPveCGC6SzF9z0BTraC26Qts8dN4yUF2s+1GCfGTBjYRmyPYuFBlZka0QZhm1PMhJsU80wx3yIllvYuc00a8YLm+P1MI2maXKQqz0ajXBSVHWV7eqqrKJmqlSlUkXbp+bU1lZt7PknESYrKzPjjYg3It6PX0g/ge36iBMZ+T7v+z6/93kQD5ARAACQEQAalhG2y07YlNxTEijWjaZ8Yr08oVZJMSUAtREl21ebeOp3xkIE6OvXPGyIhysj5Bvci60VJKC4uKGxCJVukBGQEewnOQEZoUkZwdcS2k307kZGQEZwWTiIKW62WfWFK652PAAutd5smocO96iOHDmCeFCePXInAADICAA2hYRRlZPIRSeOQ5YRFk9/h7aZC+BjXz82xP2XEdQK6MUvvX1+b4ovRS02XEVVQLQZw1gRD0WVX9QyZF1ip7Ai1Y+eR0YAZIQGEnZ5CW0fe3e3UULb5HsqOX3Vu6dk9abfd9999yEjIBw0RmiHAZARurliaMcD4FLrzSbEg29961tz8eC1115DKqjOhLwJAAAyAoBNGWGripBQRAwyAgB9/f4nZARkhFJok1vJWV83uZdZrIojCYGKOPFR5/tW9H5995k/Q0aARmSE0KSpooSdhANKaJerekXVlzBlhBCEA0QrZIQmxYNY2vEAuNR6s/pBgA8dzu0+MxcPnn/+ecQDZAQAAGQEAE+khP4hCTICAH39XBYPkBHclxF0WjLf6P72p9853+h++IH3eL25re+EqoFoM0abMlTFAWQEZASXKaouo7EspoSd6ydZXezdjYzgr4wQunCAjICMUPWiHQ+Au603y4oHv/zlL5EFkBEAAJARADwWErYPmSIjANDXz5XyesPhEBmhJNpA2PRzqw2Czc1uPeejn3zXfLNbbXx83sTW90FCjjZitCGj7wpjBiAjICMgIyAjxFZCGxmhHKoktulnlpSJcFAN/WyauxbN65ERuGjHA+Bv681lJB4cPXo0ffbZZ9OXXnoJMQAZAQAAGQEgUClhr+7E8b3vfS+TfADK69Xu66d/Rkbo9nTema+9LX3xS2+fP09tBhcluVxH3wF9FyTjKHmgzRh9TxgvABmhnZhU9HNrzEEoQEbwVUZYLqHta+9uZITuRatYhQO189LPrUpbZeMmMkLc4gHteAD8bL356KOPzg+hIB4gIwAAICMAxCkk9Oq2bWDiD9B+eT3f+voVldfTf6+6Ia7N202/77777kNGWEogaAM4lA1vnfLQ90DPQ5VAtBGj7whjBSAj+JnkBGQE12QE/b2h9u5GRmhHRkA4eEupsQ0ZARnhF7/4RfqDH/zr9Mtf/nLa7/8+7XgAPGu9mYsHTz/99PzgCQl/ZAQAAGQEAJCQsHWYNLxKz0YA+vrVKa9Xt68fG+J2ZQRtcmvT+9uffmcQrRW00aLvgH5uyTjEHkBGQEZARkBGoIQ2MoJrMgLCQX2QEeKREd544425eKCf0TfxwOeqOEDrTZt89KMfTf/gD/4g/frXv57+5V/+Jcl9/0jIjQAAICMAtIZMSBmrdfpvkxgCsFdeL8a+fmyI25URfEXxRKc89PPRWgFcQe/kpvdWSZl1SRX1EN/0e48c+QJJTkBGMEDJn6ZKaMfau7voe6r2TetaOxUm5X/0fJQyAsIBMgIyQrF48PnPfyH9yEcedFo8CKUdD/jbetPF2JC33vzjP/7j9LnnnkuPHTs2/17nHD9+nOS+h5AXAQBARgBoVUbQBESJRZXTQkoAoK9f2339kBHikRHUWkTxQic89B2gtQKE2hbFJGGs7wIyAiAjFKNkUNWTrPTupuoLMoJbwsEmiiQ+zR2REdy+Ll26lP785z+f3/tnDseZ973v/U6LByG34wE/xANfWm9evHhxLhwsCgjLnDlzhgQ/MgIAADICAGyWEcRrr702P/Vct5y2SomxyAC4t7weff2QEWKREVTdQ5srule9/8hqgIyAjICMYA+14Ynt3VILBUpoIyN0xQv/9icIB4hWrY9rSua7fL366qveiQcxteMBWm/aar15/vz59OWXX94oIoiTJ0+S4EdGAABARgCAYhkhRxNQmbB1E1FICUBfP3fL62mx2YV4gIwQlowgwUYbK7onnfDQd4CxAGJq04CMgIzQBUouxvhuSTLQCdb8JCviATJCW3z9X34D4QAZofUWNC7JCBIPfvzjH6dPPvnk/L5clg5oxwNdVtHxQTwo03rTVEQQJ06cIMHvNtNDRof0D9khJwIAgIwA0LmMIGTDPmRh8oyUAJTXc0c8UPUTFxdFRT+HToAiI3RbKljvuJKyet/19+v9ZxwAhDJkhCoyghJmCAXICICMgIwQp3CAjOC+jKCk4g9+8K/TL3/5y86LB7TjAVpvNtd6U20XTCQEKiM4ySwTDwaH9Mh/AAAgIwA4KyPkyJq97777kBIg+vJ6Pvb182WhpEWyyUbs5W+89a4NyzNfe1vh7/vhj55HRjB+h+6fv99KxGpjRX+P3n3GAAhVKLNRyQYZwW6SE5ARABnBRRQvEA6QEUKTEd544427xIN+//edFw9oxwNdCss+iAe2Wm+WFRHE2bNnkQC6ITlkfMhQ4sEhW+Q7AACQEQC8kxGETlNrUvt7v/d7SAlAXz9P+vr5hH4Wk5/5gQ/00he/9PboN8RFnfdSv1dJCL3jGo/1vvPdByrZICMgI7iPkpNKUippiYwAyAjtrg8QDpARfJYRcvHgu999Ov3857+QfuQjDzotHjz88CPzdjxP/ekziAdA682WW2+eOnWqtIig34MU0BqTTDzYPWSb3AYAADICQDAywqKUoMmuTmAjJUBo5fVcFg8ee+yxuRD01FNPpT/72c+CW0yZygiLbRvyzdtYZQRtkhQlVHVqQ++1Nm6ViNXv4TsPMQllbVWyWZdUOfrJd238fffffz9JTliJKgEpUalnpfdICToJeWVa6zAewCY0P9j0Dum9W/d+PvzAezb+3iNHvhBlCxqEA2QEV2SES5cupT//+c/n4oH+DN/EA8Zo6EpY9kE8aLr1JiKCk+LB3iH9Q3bIY0CJfM8e7wwAMgKAtzICUgLQ1695HnnkkfTxxx+fiwcvvPBCFKXv1MOwtKDxkXcbtWkIVUbIk665SKN3Wpsoese1qcL3Hahk0x5VS+kjI4DimCr+6JkogVmUiENGAFto3KTqi10ZQeIB41o9iqq+aL6LjLBZPHjf+97vtHjwycc+lX75K19N/9Wf/yB98dh/YjyGICqlhdB68+LFi+nx48dLSQgvv/zyvJ0DwoA1poeMDhmo3QI5C7CU7xnyPACQEQC8lRGQEsC38nquigef+MQnDstkfj598skn0+eee65wsed7O4ZNqPJD2edncko0ZBkBIGahzKVKNsgIyAhFKEmpU9L62ZXIlVDX7Gb2/YwZgIyAjOAdRXEztHerrIzw6quvpj/+8Y/na0f9N5elg/e+931z8UA/I+IB0HrT/dabr7zySikRQfd7/vx5BILqzA4ZZ+0WeodskaOABvM9E1p6ACAjAHgtIyAlAH397JTXU7UDlbaTWb5pwXfu3LmgF2R6NrafOzICAJVskBGQEdpApdiVjPzhkXfM2wkpYVtUzh4ZAZARkBEAGWEdaq/gm3jwf40PK/tNTzLOQuvrBh/Eg6NHj86rQr700kvO7cWcOHHCWEQ4efLkvJICQoExSbb3LvFgl6QwdJTv0Xu4y7MBQEYA8FpGQEoAyuvdW16val+/VWJCTOXvtDB/yOIGAjICAEIZMoJbMoIS9T4nyy5/463zpKM+36OffNc8MWtSqadNtBnP2ALICHYpSnDRggYZwbaM4CK7f/8fpIPBP5nf+0/+/c/SV16dMaYCwvISjz766Lzyo6viQR0ZQRUUkAsK0T773iH9Q3Za2NfvbYCKC+R7lhnxXgAgIwB4LyMgJUAT5fVi7usnMUESQmzWucYQyRw2Pp8jR77AdwnAMaHMp0o2zzzzDDJCSfTZVk1yusSZr70tffFLb59/jupjXpSAdQkJPow3gIxA1RdkBGSEOjz88CPpP/3iE4gHQOtNA/Hg6aefnh9E8XUPRtUONkkIOiATeqXOikyz5O6gSfFAyeNMLhhm7R2mFdpCLEoSVGeIO98za0OUAUBGAIDGZQSkBAi9r5/K67nQ1y90dJKg7vgR6oY4AJVs7AtlqyrZ6N8V/Rkqz4+MYCfJ2QWqcvCTL/7O/PPSvT32kXd7V51jcb6suRTjDyAjICMgI7iPWhq4Jh489afPzMUDxkmgUlpx682Q9l50CGadiHD8+PH0woUL7FH9JoE7zoSAXgv79TvZ3zVt8OcZUbo/6nzPkGcFgIwAEISMgJQAJuX16OvnFufPn5+X3hMutIaQ8PGJT3wCGQHAM6EslEo2msNU7ROuBHfR7yXJ2Q4SRvQ5/fDIO+ZtInQPDz/wHm+lA6ETgvqu6XlL+qEaApRBc/BN75daj6z7Pqk9yabf++EPfwQZAZARDFDSvwvx4JOPfSr98le+mv6rP/8B4gEgLBuKB2Vab/qIqnFq/0fro0URQS1EIxUPkmy/XDLAbltl7bMKCINMFGj75x1xWj7KfM+EShkAyAgAwcgISAngU18/ldeLRTxYRgLCqnJ8WoB2WZJP96XPpsrn+v73f2D+3mnDg+8iQJyVbCSU1alkU1VG0L9HRmhXRrj8jbfOn7sSWkqY6u9SUtVn6UCb9Ipjeq763iEdgK25OS1okBF8kxG0jkRGMOe9733fXeLBi8f+E+Mf0Hqz5dabvh5Q0f5PZNUQ8hYGu10kZvV3ZjKAK8+iT84kqnxPQoUMAGQEgKBkhCakBC1ktKjRAoeFHn39YuvrZ9uE39QjUGhRfvr06dYXpbkk8dxzz6Uf/OAHK3/uSAkA4QplTVayQUZwT0Y487W3pS9+6e3zxNUT/d/1urVCPp/VBr3mTvqu6TtHvAJkBGSE2NC4HlPctCkj5OLBv9z71rz9wy+mJxnrAGF5w7oB8SBqplniv991JQDHJIRVbRxIUMeV7xm1VQUEABkBgODUupSgpMFDFhYoSAn09aO8XnM9Atf1DdSzlMTQZsWGY8eOpZ/97GdrvRNICQCbx3WfKtm0IZQhI3QnI+gZqt2FknwhtFbQprzmS3pGmj9pw55xB5ARkBEg3ri5+/f/QWnxQL9nMPgnc/FAQgPiAdB6k9absDGhPs5aH/Qc2ovfylpA+FI1gvYN8eR7ZnzeAMgIAMHJCIsgJdDXz1Z5PcQDey0aTDl58uRcZmjj3tQ24sSJE+mf/Mmf1H5fkBIA8cAPoazrSjbICM3KCG985y3zZ/XDI+9Iv/3pdwbRWkEijzbm9Sw0d6K1AiAj+I++05t+brWGQShARiiLWieoqsE68eDhhx+5Szx45dUZYxhQKa1AWEY8iJYkEw+U5O+5esI7u7eZh893SB4lqnwPnzcAMgIEGBx6a9iKSUZASqCvH339/JURFts4qL+gbQv7b//2b//j2bNn72kPoQ2Gj33sY0gJACWEMirZICM0jQSXTT+zRAMl7SQd+CwcCH2XFEM0X6K1AiAjhC0jtNGCBhkhzrgpweCpP31mLh380y8+Mf//Eg8Yq4DWm7TehMIT+xIPdtXuwIP9f1VD2AugxQWn5uM5fDrx4bsFgIwAcHcA2Ml6Ue1lA/mspNk5yX7vwHbQd01GQEqgr19ReT3Eg2aQRFBXRsgrFyxLAyUXNnvLvfs2la9TsvLjH/+4lXcMKQGoZNONUOZ6JZuin0U9rkmqlEty+oS+P/oeaUNeJwL18zGvBN/n/t995s+QEZARkBEAwMvWm+zfRMnKvSLP8gJTG8/i6tWraZIk6f7+fnrz5s301q1b6arrzp078/9+cHCQvv766/Pfd+nSJVsVKPrke6KphK3Pe5dnCoCMAG7bjpogjbJBu6nSU/26FRRclRGQEujrR18/P6sjiFOnTpn2IRuZ9O4z6aX3zDPPpB/+8IeREiB6oYxKNvbRvVfpE375G28tfDZKCCIjuIHmRNqE13dJm/L6ORhjIGbpeF3Vl5988XdoQYOMgIwAgLAcVaU0aF08MNor8qgicuXcgASC69evz6UCG5fkBYkMV65cqfs5jcgBRdWWe+Rq6xMAZASIueXCqIOJ2riqpea6jICUEE9fP5XXQzxwA7VEkFCgKgdVqyPY7N1nIiPkaMOiKHGIlABUsmlPKAuhkk1VGUEgI7iH5kP6/uh7pA15nQhkfAHm/rSgQUboDsl7eq++/el3IiMA0HoT4mJWZ6/IgzxBv04FBFsCwiYxQaJDjYoJJKjjkRHy7yttOgCQEcCBycXMkUncsMxEwBcZASkhjPJ69PULX0zQrztx4kRqs3dfGRkBKQFIKlHJBhkBGUFoLqTvjuZ7uifGcQixtHaTMQIZARnBNme+9rb5+6O4efST75o/s7LvJQIZgN/CMuJB1ORtiK3tFYUoIly7dm1t64WmLrV0UCuHilLCFCHBPxlBEoqEl4rf5SHPGAAZAeKVEFZN8IykBN9kBKSE35bX862vH+X1whQTJB6cPn06PXPmTHr+/Pk3xSjLY+2w6j0jJQBJJYSypmWExz7y7vmpTmSE9mWEvLWC5kP6/ujvpiUX0NMbGQEZoft2C2rnIengif7vzuOkrfeSFjoAtN4Eb9B+8162d74TYb6g1PNS24SbN2+mXV6SEpIkQUiIQEaQfKJL/1vj+73NswZARoB22jHMPCl31Q9RRohJSvChr5/K6yEexNW771A8+F+z/5+skKF2XJERkBKApFJ1oYxKNmYygnjgA7154gUZ4Ten85poraDviuZC+u6QjIIYenp3HSOQEcrJCEq4xyQcvPGdt8zfhR8eecdcOpCM8fAD72n8vWT8Byql0XoT3N4rir2Me1kRQdUI9vf3U5cuVWaQHFG2hTQ5I/9khPzzvnz5ctXDsLs8bwBkBGhmIN/Keln5aKNuhygjhCYlLJbXo68f+NK7L1tsDbOF51YDY+/Q1s+FlACxJpWoZNOsjJCjE6BK0MQsIwi971VbK+iUn+ZB+t5QjhtiiREuzv2REcpXfQlROlDln7y1wrc//c65dCABr6v3EhkBYhGWqZQGvuwVkS+4a+9qp2w1hLZbMpS5KlRJGPEe+Ccj5FUx1Lqh4pgwojIGICPwEMDuIL674gSwb725+msmSqNQJsU+SQk+9fVTeT3EA3r3dTj+Dm3/zEgJEHMlm0WhDPGgGD2rMs9YJ0PVFztmGUFzHM1t1s2x9P3Q2KnviuZCjKEQY09vF2PEIi9+6e3ICBHJCIpb+swlHRz95Lvm0oF7c5j7GUuASmkIy1Fy8eLFeWvMkydPzltl6n/VRrODvSISjuv3rbbL5A2U+FUC2PXrxo0b8+oNJd6ZPu+DfzJCfh0cHJT9vBclpR2ePSAjANQfwPdsTOI0mF+7dm0+4GtwVy+o27dv3zPw69/pv+nX6Nfq91Qsl2Nsq2WTJqSEBqWExfJ69PUDh3r3bXswBg+behZICRByUolKNnbQc6vy/JXQKeqTrc3n0DfaNfcR+r642A4LoMnktevScdEYtu6kfIyiVSgygmQStRXS56tqPkVxyiUUSxhbAGGZ1psxigjHjx9Pf/GLX9zDqVOnot4rcmzfamr6nNclgl29VL2hZIKapLSnMkKel7p69WrVMWTI8wdkBIDqbRlqtTFQySX1frJRdknBQEai5AQLvby2NpicSAk1pQT6+gG9+5qTEfJTAa+88socGycCbEoJSjpQQjZs8QChLD70TLVJa/szC11GAKCnt1tz/8UYUTTvWScjxFr1xScZQe2CJB388Mg75p+jqhyoao9vQsziWhwRAXxaN/hWKQ1h2V3Onz+fvvzyyytFhBztidTcK+qTPG7vAI329X28SgoJM6po+Csj5Jd+je124QDICADrRYRp1QoIGrBXVT2wdamUkySHGhUTkk2TTaQE89PPPpTXo68fvftCWdhpMa7NkuUFuBboOhVw7ty52lKCviu2koxICSSV2koqMf41j56znjsyAgCltTX390U6Xjf3R0bwX0ZQlQpJB/qsvv3pd86lgwc+0PNWOsjjYt7GRwldfd8YdwBhmdabMaIDGJskhBy1bSixVzQIaa/Ikf2qndBFhIpCwh7vh98yQv6ZV8w9Ke+0y2cByAgAZhOJWdmBVoNzFxML/Z01AsOOQc+rYKQELb5snX6mrx90zGLvvl7I1nEuI6giwioRYRn9mtOnT6cXLlyoVZYdKSGepJJPlWwQyrpFMVWbucgIAPT0dm3uXzZGICP4IyOc+drb0he/9Pb5Z3L0k++aSwc+Cwc6Ka7vk75XSuLq2dLqDHwSlqmUBk2jgxYmIsIaGSGavSKf2jMkSZKGcJUUEhBfPJcR8gOx169ft9ouHAAZAeC3yfekSiWEri9JCSV7OBkJCSFKCTZLstPXD1oi7923G1u5q0UZwXRBnqPeivpe6PciJUDISSVoX2600bYBGQHA3Z7eoUvHyAjuyQiqcvCTL/7O/Nk/0f/d9LGPvNvrtaqStfou6TulBK6eoWnbQwAqpdF6M0a0b6E9jDJ7HodzgVm2ZxLdXpEDe1UDk89V7ZZDug4ODoxbgfCe+C8jLH7uFfJOeWUWWsEAMgJA3dYMV69ebbQdQ5X2DZrkNCEkLEkJCVICff2gMejdt6ZNQ1G/xE2cPHlyXuoQKSGupJIP4gFCmZ9oXKg7h0BGAHBDPPChp7ftGIGMUP6dKfq5JRMUCQdvfOct81/3wyPveLO1wsMPvMdr6UCJWp0U1/dJ0ifzXPBZWKZSGnSFWlIW7XdIVFAVSO1r6Ndne0ecOu4uh1C4N65KxtqrD+1SpQfDd7vP+xKGjKBLOTDlwiqOc0M+G0BGAKgoIuzv7zttKZa01UpNYLPnNURKoK8f1GaWiQf07jOQEcqUK9zEK6+8gpRAUimopBJ0x9e+9rVaCRy+wwD09O5COi5a+yhRjoxwN2VkhMvfeOv8nxdbKzzwgZ7X0oHmWDolnrdWUAKXMQaolIawDPWRXLCq/aT2P/T5nzt3bmX5c/aL3Nin2oTaGoR6XblyxWjPk/clHBkhv/T7a1T9pYILICNA9IO0cQsCJfl9mEzIVjOcGLwZECpKHEgJ9PUD8yokY3r3VV/kXbhwoVZ1hEWykwRICZ4nlXwQDxDKwkZ9Wl944YX0wQcfrFzGWpvifL8B7JXWdlk8cGXurxi16R6VPF8nIxSd5A+16kvR56q2CnpufrcBvH/++SlRm7dWkPTJ2AIIy7TehGaQcKD1oio56tCExAODNpOcNvegKoILLZ2bvJQboTpCnDJC/vmr8kfFvfFdPidARoBYB+i+6YCp5L5P5ZV0ryXL5wxrTMSQEiivB/can/Tus2ycSyLQYr2r6ghICZxmRSiDpQ3E6yqXKinhc5/7XK3e2kgJAGH29HYxRtSREYoS7rHKCD6hmKPPabG1guZdjCvg87rBt0ppCMtRH1KZ7xUdigf/tw5cNNFmF7qtihBqe4aKJ+SpjhCgjJDnna5fv151LBxxSA+QESC2wXnHNIHum4iweJUMDL20nh2KlLBQXg/xICrxYC+Tm1gctrDQUylDnR7oUkZASiCpxNgXHdNs0fzmWL+80Ne7oc1mpASAZkprux4jfJn7IyPEISPouyKhUwlaJWoRXwFhmdab4MZekQ6sVFiHkLhzY49qVvR53bhxI43hUp7EsE00bWkDlBFqtAtfbF3MHjogI0A0g/M0dBGhgpAwqzvBjVFKoK9flMmoARPq7q1zlTDU9+348eOlZATJDLbfDaSEckklH8QDhLKomWWtdTaO9asW+hoL9P7UPbWKlAD09Ha/p7evMQIZISwZQc9ccyolZzV/1HeIsQRCFJaplAah7BVlrTuNTxCzN+TM/tSuSVWEmC7D6gi8wwHLCHm78JLVuWtX6gZARgCfBuZBLCJCbivqZzEMAnuWnnFQUoIWldq40yIzL6+HeBBNMmqYLRYx0R0sgZejEocql27SxqHJ9wYpgaQSeFkutdJYv2mh/5WvfMVKKW2kBIipp7fLMSKkuT8ygn8ygsrO69lqPqXErOaH+v4wjgCV0trlE5/4xJvCMuIBe0X5+qHCPodpZYQ++0JO7U+NqIpQuToC+6kBywgl5ZR1VWRocQzICBDkoLxlkiBXML1161ZQEwQZmoZBYNvy8+6blLICcKF3X2Y7MwnyTEZY5LD/onq5py+//HKjLRqQElYnlXwQDxDKoi+XamWsL1rof//730/vu+8+pASAFeKBDz29Q40RRTLCAx/opT888g5khAXaOpGtv0fPUN8Tjfua/6ksPWMIUAWnfR555JH08ccfT5988sn0ueeem68lz58/z1yavaKttPnEdkL5cif3pxKqIlROQCPWRCAj6FIurUT+aXnc2+UzBGQEiM5kFOp5E9qlgGC6Ud/Qs0dKABd79yEeBCYjLKKWDBIQRBebR5IS/vAP/zA4KcGHpNIHP/jB9LHHHku/+tWvpt/73vcQD+Itl3pPn9a2FvpCbWQkwLz//e9HSgB6ejtYWjsXD2Lq6a0TvSbP54n+76ZvfOctyAiH6D22+e7p1Lf+TH1HNJ8KuT0XgNYNrosHDz74YPrZz352vm6QeHDs2LHOpHaIZ69oTfvgKafI/WzR0HSS19VLJfoNvldj3qM4ZIT8QGyJluH3tPVgDARkBAhlQDYqhZUkSezGYlql1BhSAnjQuw+7PDIZwQWU4NApfJ2s8VFK8CGptCwe6Hkvbh6qUgZjYRTlUo36tLYpI+RIhlHSUyevkRIgxNLaPogH9PT+DYqRps/t4Qfek07/t//+TRnh259+58Zff//99wf7jleds6nkvL4f+jN0GpwxA6iC0/26oUg8yJFUKrmdeTZ7RQ1W7h1ma4oJvdOd3pvaK3qflJSP9bp69WrhqXfeo3hkhPzSQV/DNh6r9nbYvwdkBAi/KoJKycjgCvm6cuVKZ9URkBLA5d59gIxgG21eLW5o2ZQSmkpI+pBUknigNhhPPfVU+sILL6zdQBRq13HhwgXGx4DH+q7M+TIyQlNSgr6rlPAGenrfzaOPPjqPEYgHq9EzKftM//fB/zCXEfS/McoIQnOuVYlV/TslXXXqW98NWitAjFVwXG6/s0lYXodEZrX+I2YEuX4YsFcElqpYvIn22WO+bty4YfIdJLkcmYyQV84wkFXWgaAFyAgQdlWEENsz1GjXsNPSZ4OUAM707gOnxu38pEDi07upxLc2sJQEX7fBpY0wbYrpZE6XUoIPSSX1azUVD5ZRVQp6uwY31m/7stAvkhJUKv0hC8KPNv+REqDJnt6ux4jFnt6cYDVDlSJKi4AfeXd69JPvilZGWEy+5jBOAO133BSWf/CDH8zXActieNG6Qa0YLl68SJwIa/3QY68ILOxL0aKhfquGAe9TfDJChUrdq1rn0F4ZkBEgvBO2MrViuQx794xa/oyQEsCkd98uExGkBFdR4nuThLCMTid+85vfbKV0uw9JpY9//OPzDUQlacuKB4ucPHmShFQYfVp3fF7om6LT20gJ4Ip44HJP749+9KN3ldZeV1KbcdRMiFIFCdufUegyAkCMVXB8rZSWV0aTZLBp3XDixIn07NmzxAb2igDWrfl6Re/gzZs309gvVZp2KceAjOCeOKPDsQbvyTrBbJfPF5ARwKfBeMbkobS1mHZhECMlwELvPueTUYCUkKNTNEWbXcvkCfMm+sm7nlR68MEH50ml/DRr/kzySgZlTjLlCSg9R04zeduntRfaQh8pAXzp6e1ijNB34ciRI/PYqGpCGt/1PZlOp4XxgIo45hw9ehQZAQDxwJv2OxKWJXOrCl1RLFCVg3WyuP759OnTtHLzd/2wx14RuHS4kcvo0OOU9yluGUGXWqMbHpBdKbRQ6QaQEcCHgXiXqgiVqyP0O7ZPJyy26N0H4IOUoCR4meS5EipN9pN3Mam0t7c3Fw+OHTu2sUdr/jxMyqmykejdWD8MZaxvao6ClABNigeu9vRW2wDFv+eff34+tq/7fpiIaooLjLnmSPawNe9ARgCgCo5N8UDj07q2eCbrhMV1mtZZEhQUR5CXvVo/jNgrgo7XfHvkE4qv/f391EDa4J2KXEbIL7VJv3TpUtW4gIgGyAjg9EA8oipC5eoIY0dKYiElhNO7b0zvPghVSijToiE/rbOufLKvUsJyUik/zWr6jPTf81+rZ7Tqv0tYOHfuHGOqH31ad0Md65uemyAlQKg9vU3Fg1X8+te/LowjZf9M+M28Q58LMgJAWDKa6+LBuio4JqgtG5Vy2CsC6HrNp4N+XOk8r+Ji9WXeVzdlhDwvJZmnYswY8nkDMgK4OhBvTFSpX02sl+Ggv+XI54iU4GfvviG9+yAWKcGkZOhyH9Oi5IDLUkKZ06w5OrFa9GwWRQNtIkpKyE8yMa463ae1H9NY39acBCkBNpXW9kE8UCsAvccqrW3jO2ESR0hAVUMnket+5nw3AaiCs27dUFU8WMXZs2dryd/glLjMXhGQ3I3jwCMVTnhf77l0TzX2oYgfgIwATg3CO0WDV5Ik0U4Wbty4YTK47zr2mSIl0LsPYJ2U0M/KdnXyPZBgYFIdQSd5yp5YdEFKsJFUUoKIEtvej/Ujxvr2ZASkBPCtp7dN8aBqHCEBVZ2f//zn6YMPPlj5PVBSlO8sQDtVcEJov1MHtb3bFAuOHz/OuO6euMxeEfi25tv4fqs9AddvLmQEZISq161bt+aHhSvKbbt89oCMAK4MwoOigUsDXqzXnTt3TAb2PUc/W6SE7pNR9O4DV8f+zqQEk37WVU/4tyklKKlk+zSr6cbhiRMnGGfd6dM6Zqx3Q0ZASoivp7cP4sGmnt5NQhxpDlUnOnbsWPr4449Xfj/07iIlAMTVfkfrhibFg6qVci5evMjYzl4RQGMyQoxtn5ERkBGaylGp7UnF2DOiDQggI4ALg/CYFg2bL4NWDVPHP2OkhHaSUfTuA6QEA3Qas2hTTD2v6/Z2tikltJ1UMtk4ZOzttFwqY73DMgJSQpjigU89vV0Ys4gjzc37D68XNZeRlKDEYp25BlICQPUqODG132myVcNi+zdgrwgAGaFTGYET7MgIhdfBwUF66dKlqjGJ6juAjACdDsIbk1AyrmK/THrzePJZ9zITjkUhvfsAOpMS1IKhrXKhVaSEPKnU1WlWNg6dKpfKWO+xjICU4H9Pbx/Eg7o9vbuMI2rnwFhfft6frane/HU65Sxpsc57hZQA4Hf7nS7XDUXQtqezmIF4AMgIyAh3XQZl9oe8U8gIJtft27dNDs/yngEyAjjXP3zjAHXjxo3oJwuaOBkM5Dsefe7bSAn07gPoSkrQpv2mDTGd5rT9d+ZSwnJC0tWkkipDNNXKAtaWS2WsD1RGQErwQzyIuac3ccTJef92geB9z+/Xe1L3nUNKAKrguF0Fx3XxYBW/+tWvNsYCieKM/83FjMDn+ttZTKTqAzICMoKdygi0aUBGsH6AdkMM49ANICNA6yflNw5Ot27din6yoJ48BoP4OQvl23Za/Ox3Lly48DenTp0q3KhchTZj2zxNpb9Lp6Wr3GuJ+13s3bdT9/lmf14dq37Y8ngwzP5eb97hms+Y+93A4fjwxGE/6f+n6nfu5ZdfXnvKxoXkiMYE15NKRf2+9YwDHIcbv1/dh2KfxBOD6hKMEzXuVz3pXXwnnnrqqfTBBx9ESqCn98rS2j6KB1XjSBunYfV3KF45GDtWzvtNxmHFjnX3+6Mf/Sj94Ac/iJQAUCCj+dZ+x9UqOLba9kS492MlZkS893PhkD9f8e/3WCNFeb/ICPZkhFDeCR/HNS9lBF3K3RlU3Vj3OdEaBJARoLWBeteg/QCXWSklW2XddlqaVLz59x4mHdMqUkJbiTD9HXUWz2vu967efU0+35oMW5y0efsOc7/N3a/EgDqbQcuJDpPvM+0HzE4xBTAON36/+vt02ivv7X3x4kXGiRbvt0hG6PodRkpovrS26+KBKz29Qz0Nq7HXkdhhNO83HYc3yQjir/7qr9IPf/jDVt5TpASgCk67VXB8Fw/WVYjzbQ7f8f0a7xVFvvezjj5rpCjvdy37+/skFerLCL6+E96Naz7KCPlBWrVar/hzj6huA8gI0PlgrQQ812+uGn14ShvXLXzuK0uwV5ESbPZ2r1rS3WQhqoSINkQP++eeazrAWi5xn7Q0FiQhvMPcb3P3q413k8Tiqu9fmQ18odLSyAjmSRwfxuGW7vfNPq2HY/0VxTTGiW7v13TM6PodtiklxJg49Kmnd8jiQZU4ou9ok39/nYoINcaJyj27Tcdhk7mM7vf73/9++rGPfQwpAaKsgkP7HXcwGbMiXnMsxozSrQbY+1nJmDVStPcbVHK3idPrEb4T3o1rvr+vBwcH6aVLl5yvvgHICICMcA9KwHP95rp27Vpri8WGP/Otor+/rJTQ5LPQKdayi05trKoUoU50r0pGdf18XXoffLxn7rfb+60iJZTdDENEKH+i1LVxuKX7XezTutPkd45xotr9lhkrXHiHJSU89thjJA4Ne3q7Kh488sgjXvb0Dk1GaDF25LFgt07f0zLjsGliL//1eg+V/GRsAdrvdFsFJwbxoEkZIZA1h5WYwd7P5jUaa6R473cV2k/nSuftKniH3b/nEOSZ27dv1zlU22p7DUBGAGQEZIQVl4JRiwvGLReCtKmUULHstZUFqWx33aPEgxJl+LaYuDW+ANnifsO+3zJSQpkyocuVFGLm8HS/8UZbl+NwFSrc72Kf1l7azaYK40SDMoJL7/Bzzz2HlLAkHrja01sVLT772c+mX/3qV+efmz6/6XRKDHEg5jYUO36VxYK+7ZM7TcgIy+MaUgKEUgXHVfFAsVsymuTCF154gdZvC3Q4h+8sbmiv6PDP/H4TMYO9H39lBNZ07csIV65cIalgN6/AnjYygpGQULFCQmq7nTUgIwDkA/YeMoJzMkLSwueelF0U6mTVqlKrbSQO879XJxnU21YbqzU2Fpx7vl1P3LJ7Dvod5n6bu18TKaHMKU31t2bDsFyyo81x2FYP1zJ9WqssthsoP8o4UeF+TWUEV9/hmKQEH3p6P3SY/Dpy5Ej69a9/ff7ZHDt2jDhiIY64mvxaMe93Zhw2ea6bxjXbUoKSxCTLIbb2O6qC8/jjj6dPPvnkmzIard+alRFcXnMoZuiQytJeEXs/ze/9NH6qlr0f79t25O82FZftVFxmXGt4XAtBRqjZqgERAZARoLHBerJpEEqShNlC+zLCsIXPfVjVVF+WEvTPTff+ns1mI4sGvrPPt2mrvM5YEPgz5n4t3O86KWG5BDQygn0ZocFxuFLLiJL3W7m3d4vfOcaJivdrKiO4/g6HJiWotLbr4sGmnt7EEX9khDJCksQDfba65zXzfmfGYZPnajKuSUqQYGPjO6PvMlIChFwFp0g8oPVb8zKCK/M1w5jB3k87ez+rqtltsUaK9n7XohYFsV+XL19mT9uDcc1nGeHOnTvp9evXq/7s4yarbgAyAgCVEezKCP+vheT7sMXPfljVdtRi79VXX715uPi7aXOCspCM2rZ5v74936VnstXS/W5ZmLz59oy53wbud1FK0P8ubw6RRLKbRGpjU3Dxs6tTIUG/9/C00iybe/Tr9mltaRxmnKhxv0WJSL0TPr3DSoB86lOf8kpK8KWnt2QPtVr43ve+l/71X/91rUQFccQdGUFzgHWioj5HtSNSWzjfxuFNz7XKuCbZRqXlkRKgjSo4vrXfWVcFxwQqI9iREbqer5WMGez9tLP3s4oRa6So9y9TDjuuv27dupVGti/h7bjmq4ygd6yi8KLPuU+eFJARoK3ggoxgR0aYRPj+bFWcoEwXklE7fBcBghwfdrK+znd9/8+cOcMpJkMCeFbT7B0YMNZHOw5stbG51TYu933PS2u7LB7o2R09ejR99tln05deesn6qcnpdEoMyVC56q5Lboc4789aCFl/VkgJEFv7ncUqOIqtGrPKyE5F8+QarR2DQlKGR89qwl5R5zFuRCILKrw3003viZKkMV/7+/sm3yXGPAeqKPgoI9So5j1t+pAQAA8BkBEqXAa9ncYkG1YmG2YLySj6DgHENz5sL25odH1K0yeKEm7Hjx936X5nWVk3xnpASmhJSvChp/ejjz46T65WFQ9cPO0fUhxZbqVkWULrBTym9Zr83JASoE4VHB/b7zR12h8ZwTxuGlYcIGaEP2ffrbAGJIEKhZWXhU5ux3pduXKlUOrhPUJGKHvdvn17nrtzteUHADIClJIRYjcXFy+DwX3I+zRPNgyy96pHryEAWJYSTDbDKKnaWRKpzOmXCWM9ICW0JyUs9vR2XTx4+umn588k1NYDPnH69Okm40guoUUXC5qWEZASIIT2O4tVcGyIB1VkBJX1JxY4EzejjRmexbcx/cWhqblRrK0aDFs0jHiPkBHKXAcHB+mlS5eqxmMEQEBGADetV67fXAYDPEYZAEABh6LBe06dOsUpJgPU93zTczp58mTb5VJ3KeEGSAntSQku9/R+6DD5deTIkTdLa7f5nM+fP89p2PbjyKKEFn0saEtGQEoAX6rg1G2/U+e7sWmMk9hLLCgWnBuQEYgZgSbp2P+EFWu6fvZdF29sem+0r37nzp3o8gnXr183+U7t8k4hI5hc+g4ZvlMrpRckMkBGAKc3Um7evBm9iKCBnokDAIC12DMvBbpOSijTLzZk1Pe8gw3W4Hp7gxcVlWZICe6yLB64MEYXJVXOnDlDHKkXR+jZ7ZCMgJQQD6qC40v7naar4Jig6i6OiLtOUySCW6i2thgzEA/CroyQcKIW6ojlN27ciC6fYHC4kRYNyAjGVTZUxbyiJEjeCpARwI2kEBOFzZeEDIOBnY06AACzuDPNx85VUoL+OfZNQ7WqaCHZNqNPKzg0LvSREsLs6d3FaVi1J4g9jii+GsaRxZ7drGcclhGQEsITD/L2Oy5XwXFFPKjSikZCFjLCf0mPHz9uU9ogZoQ/H9/02SOb0HpzVKe6XWztoJXYpkUDMkKL79I6YZCxG5ARwJlBeOPGr0q/xH6ZDPi8SwAA1U9c5FLCyy+/PN8wi33TUD1ui5JIKlVe0oSmTysgJSAlrCyt7bJ4sAolTjaNj8SR1XFEn7GenSoiZK0sSCR5KCMgJfjHy7/8m/TfPP/vvGq/40OlMt1j0XxZawwE519UrZIzW1w/MP5Hc+J9RLIUVsx7RrbGpf39/ShyCbdv3zapisB8HBmh8D26evVq1e8bLXUAGQH8KsMVm7W46rpy5UqhZca7BABgHHeG68bTixcvzjfE9L8xbxwWnfQq6O1Kn1ZASkBKcKand1f9r5WAiT2OqPS2npXEhFVxlbHGbxkBKcFt8eCb3/rO/Hl+6EP3O10FxxfxYBUSc2nbU19wzuS0xfUD4jJxrpe9C4gocb8Hu0WJ2yooQa/2BaFfOtxpcmqddw0ZYd11cHBgKrSskgmRXAAZAZwchAdFg5h60sR6yUAzGOT3eJcAAIzjzv9cNK6+8cYb80VAxYl38H2+l3q70tsbkBKQEtb29PZdPFiFEickoO5GJ2aSJJlvWmn9YtBPlM3PQGQEpITueOW18/PnJPHgc0c+77x44FsVHBNUVc1iC4LgWG6Ht7iWkLQmWQFxGQDaXn9du3Yt6FyCYbvnFNkHGWHVJVnHUGZZ2fYDoRCQEcDlQXinaCDTxlasl8pHGQz0f7XQMyvJBv5d3i8AgHtizrZJj0ElVfJJeGxSwqZTXio9rk3Fw43Dv2DhCmyK+Y0kARuJw0XxwMWe3k1RJCOEnIBS1TZtUN24cWOlNG64ATpgbAlLRkBKaFc8+IeHbQ1cbr+jKjihiQer5sxFMkLslXLyFnhaP0jSW9HmDTENAAorWJbkv5n8Ogm0IV7awzKQghl/kRFWXlrbGb4/qyqkkosCZATwYiCe0aph9WXQoqEoECAmAAD8Nt4Y9xrUyc7FBV0sUkJ+gmm5t/dSie2dJakwL6PZ5z0DpAS/KJM49LGnd1NofIyhV7jWYTo9JkFakoHJZXiShko6gcoISAl20M/73af/LP1nw3+e/v6j/8h58SDEKjib0LzYRESIrVLOYsz4u7/7O8Q0ALB2ULFMeXiT9Zr2dhb3fEK5NAZTFQEZocqlv7vi925ClSNARgCfBuK9WI3FIhvN4sIQMQEAiDcGVRE2LQJClRL08+QltiUeFCTQZgWnF/J4w+IWQk8GTkKUEpRcUlltgXiwHiWXihJQkrl8jAWKcxIPqvTT1e8xiJEzxpHwZYSmpIT/49n/Mzjx4NhL/9l58SDWKjjrUEw0ERHyymIhPgON9Up6rYsZiieIaQDQUlWE6eLBCO19m1b7qjLfdfUyrK5MVQRkhLsuSTmGMXsVQz5XQEaA4AzIvGR2TFeN/jyICQAA98aarbIbbOsWpr5LCbl4oBLbi6cBDBeveyWe5ywTDrGkASkBgjsVW5SA0qlZl8tz5+KBpG9bJ8MMT9TsMX7EIyMsSgk6RS/RqW5iXC0KfJUSJB7o3r969F/M5QoXxQNVwUE82IxkM1MZQUj29f1nLhMz9N9N1gmM6QBQU0ZYewjCdI2mvfcQLu3tlMgJsD+DjDC/FNMr7mvOEAoBGQGCbdUgTEuDhnAZLt6slbDiHQSASGSEUuXVixYCkhK06KvYU63V3t4SDVb19l78WQx/jp30t+Xqy55WGOhz4H0EpARwQSY4e/bsvMLBUhsaq60aXKmOoFiQS2ibYkGdy7AqQsoGaJwywuKJclVciUFKePmXf5P+m+f/nfPiAVVwmqmOs8ivfvUrr36+ujHD8GANLRoA4L+rsLcwy+SFrYI/c9u0MqbvQoLG6RIJZU6yIyPM1201DsGO2NcDZATwfTAeUB3ht1eJHk+2KiUQRAAglko8xq0aNlVHWGWidy0l5H1a83KpDZxmnVo4vSDGi2UUAZASoC0kIJw6dequXt/6/1V6euvPcrE6gmJBLqG1KXMbxhHKwkYuI4QqJeTiwTe/9Z25ePChD93vnHigZ61WPIgHdoQ2VfsIoTrCorhsI2bozzD8u9mDAoAyhxQnZSv8muQafBcSSooIzMOREebvTMW9y4Qq24CMACGdWC1MECnZE/pVYvH2Hy0uQrHSASCWeLOdmbxGUoJOBZW52pISbPT2rnCatW9JRqA6DyAlQKcCgq1EkUkyqsnqCMsSWld9b1XVrWwcgbhlBJ+lhFdeO5/++5/+h7l48Lkjn3dePHj++efnYxXxwC7nz58vjCuLHD9+vPN7biNmGPadHjGeA4DBwZGkbtvH7CBEkEJCidYMtGdARigjj6+TgXh/ABkBghqQRzZPqfp6GSaxxgvJoMTCwpQyTQBAOcA1VClPaltK0MaexAibvb3zy7Aaz2zFZoGt6jwsagApAToREBapkqwzLdWtpJVNCa2JWNB2HLG0aT3M6Ec2rgT3nXVVSlgWD/Rnu9huQeLB0aNH02effTZ96aWXiAMtVkjQu3v69GmjWNBm654uYoaqKxjeH3N/AFh3UHGQz+1sVFDJ/sxpmWoxPuQdKiSVe7xj8coImgMYyoLkjAAZAaI6rVo4CGqzK9SrxGSityKhNq6xWOWUEgBQDnDDgrSOrV5WSsjLpTbZ2zu/tDlZNU5YTLJyOgpiSB6OSNy4JyAsU6Vdg0l1hConYnMJrY1Y0FUcqfGdGq6R20ahb7aGKiO4IiVIPPju03+W/rPhP09//9F/5KR48OijjyIeOIjij0nrHhtymosxo0SFHOb9AOBC1YWNMlebrc7KXBIlKiSV2fOPWEbQWq1EKw8qmQIyAkQ1KBuVfQ6xXUOJ9gwjA4t0WuZUKu8eAHRkvfcXTjXudHQfRtURyrZrMJUSuurtXXLTcLZBIpzaqI7AdwIiEm+REhoolV22d7fNU6um1RF0cratnt2+xJEa8weTzbO9UE/fxlB1pQ0p4dhL/9kL8WA4HKZPP/10+tOf/pQx32EuXLhgJMNJTvv1r39d6+9ajBmuyGq6J6oiAEAoQkK+B+RSlYSKSWUEsEhlBL27mitUPTBkozIJADIC+JCcSkwsRZdPCDW4kWe8eMs2vPcMTv1SbgcAujghnLgyHplu6NsQ4fRndN3bO1+YlNg03DWQSupU50n5bgBSAlQtkV2nEsIySoBWuQ8ll0wrLyz37Pb1KhlHeha/P/2Sn880k7W3Ap1TISWUkBK+evRfpJ/+zP/ipHjw0OH9HTlyBPGgYixQdRyNsfr/Xd2HhDaTWKAqCqZ/pg8xo0SyY495oPf7tcMs7kyy/0+yCnwTEkq3vOn6QKTyHxVL7CMiRCoj6J2p2DY22bT/B4CMACEOzH3TCYEPfZwsb+QNU7vJvwnvHAC0lHgzkaPS1PFFaSgiXIlNw0laboNqUKFawpTvCSAlQNVEpS0RQVJD1SSWqjOs+zNPnDgxT1ApURZSHFFyzPD5jC1/b4Y13plxiKVqs7XeGCnBH3LxQD+TxIOqIhQSwsX5+Loopen/V2m5Y+t+TCv1rKrEoz0uJZyUjNAJWB/2u5SkK5HgIHHtt4gwZR0XbSXLYKTObM6UlB3fldhtW0rQmqHOyXbe4zhlhBItwO/Z+6N6ESAjAINzQXk6n4WEkiLC1NKzzSeTfd41AGh48VolMd3v6H6HpiKc74mkEgvapOpipISAMmXBA4yXSAlNn0ItQsmjun281YZB4oH+V4kwlewmjthPPtWUEYLugRrDWOKjlKB7/cxnPjO/7+effx7xwFJLBFUX2FQZ59y5c53cm/5e09ijn0NlwCUeqFqmb1cJESHlpGXQ5e1JeoZ5kCRZMafbcfi+ewstQHs13+mNUoKSvU2O2RpbK1ZCoApNxDKC3ska7w1VswEZAaKf/CQhCwklRYQ0xA0zAAi2uk2d03nDDu99GrqQUNKs76f2NgaWq/OMkeIAkBLqoqR/nUoISmblFQsqMM0+r362qblFHGk++VSlxK5t4Y6xBCnBVDyQ6MRYbTfRr3HbVDLr6j4lpS3fj9r56N4Vtxblt67Lf7ckIoyZ54VduRa5PIjPetdgH2fm6CGYUVlJJptPTuuM9drT39/frz2nVxJZY6rm2CVaODt1uAe6lREkNVZ8d2bkmwAZAeC3EyHjCYBPG3oVRIRBICekqcgAEO6YvWdpA69LGcHYkNdE37de3yUTSJxwASCR6EWJ7k0nYy0KCLNsg3aw6bRVyHFE6xdX4oil6gjBxzqkhOaReHD06NH02WefTV966SXG5YbQmK3KM2Wlsw7bNVw4jDWJ3k+TCg22ekQ7KiLMaM/gbQwpEz96PDOv92pnPia7DUTgvsHvt9bmSqfSVe1GY7rm+OvQGKpfo5ZnqrRgUbIlqRyZjFBhfXbXOoj4DMgIABWTW75s6EmaKDnZGHn+Ge6sKe81YsECEJ885noVmBKnP+bIhA9QgJuyKAFwZoNtWLWMKK0aKgsISbZRNMwqu2w1GUd8OBXrahzJnvWszsYtghNSgimPPvoo4kEH1W9U4aBqBRzFhxbuc2XMKFsGXMkEHyp+lkx6kBzzd/459WkND5X2aUe+HR6p8J6ODf+sgefrrTH7N/HJCBXyS4uxmdZJgIwAsGagLmUpumyVK2lVofzrlueLmJmBKb9HWTeAeMZpDxa2pao8yGh3dfNQkl7Jcm3Bla2mOg8gJYTP8onZkgLCJBv3d22Nf2XjiMtJqAplP1uPI5mUMKny7kQ2liAllBAPhsNh+vTTT6c//elPGWcdaHNQBb0PDdxfLh4UxoxMTihV8tvVip8qI15SSqNceDiHiQqrX/DsvGq7MfV9z6bEezopOUeaeBYvSSpHKiPo19WYw5B/AWQEAJtWrmuLOC3cVK4pJhGh4mnpaZYwwugE8Ou7Xtfi7jv4M5XarJeR7FJ1HiW1VCIw9tJ+BdV5WLgDUkJgJ2h1CragLPc0EwX6TY93xJFOviO9koLkNNKxJAopQSLBQw89VCge6NccOXIE8cChlgw2RARJaWrlU/N+aseMstVyXDxgo0M1FXpRIyL4maimR324ksnM0ji94+D6vraMsPQ98GGtRYn9CGWEivklpw5/ASAjQKhlwuYbaF2eMtLfrUBSYeEWREKoZj/XMYsaAG/G5zRE8ajKRr2qJGiB0OWlkt+xxp20fHUexARASgiXWfb9HnTVGow44nSyfRr7yaDsOe2FPpaorYJkg8985jPzigf6/6qeIPGgoZPzUIOTJ0/WFhHU2uH8+fPOxIwqSV4dsOlaUNPfX6EagthjvuZdPKgqqPFZ+7FusBXnhx3/LGXH0nGAa60RJ9vjlBEqVKtbnN/QSgeQEQDaEBI0UGswb1NKqCEhBJUQqikjLAbNHt8BAK8Tvt62ZKm6MaOS220nk5Q8qtEzbifQd7Psc0BMAKQEP0kykfWunt3EkbjjyJrvCMIzYwk4TB0JQSJDQXWcxXVJqzGj6qlznYBsW0rQ38fJy6hiwB77dEF/vgMLe7J9B36OKmNo38L8aGCxqgQSAt/H0jKCckxaF1JBAwAZATwREnIpQYN3k+0b9GerGkNFCSGI1gw2FtyUfgMIpuxfntztef7zVS5lrBOuMpibupSo0oKlYvIoWBFh4bOr81wQE4BEoiHnzp1LT506NS+LvZgU0r9vSDww7tlNHCGOAFIC+IHaKpQVEI4fPz6vcLGhJYMzMaPO/ogqFEgYa+qQjf5c/fk1JAT2bOKpcjgmuRXFIbGJK9/pivPokeV72O2gxRWtjCOXEZRnqiGKs5cFyAg8BLA0Wa41AdBALmnAhmGuP0PBomL5uuWJ3laAn9XM4sYzEzAAt7/v/WyxOwxt4lu30ksuxCmhVHcTUQsS9W61EHemoSeQLMUgytqBT+Nwa6d3Lly4kJ4+fXpeDntToki/xsIcuVbPbuIIcQSQEsAPGaEopuRtGBRbFId8ixlZJYZa3y1JahIH6lbP0e/Xn6M/r8aBmnyvBhHBz/G+R3Ir+M+4X0E26Tl0/52LCCvmSLmY0MSaa5yt56iCELmMoP9fY+3M+wOAjACOlZq6q/Sd5AQN9JILcvKNvsV/p1+jX1vTGI+mz9qGE9OY9gDg23i2a2tjXgkgJZUUU5RYymNMvqm4GHeUMNKvU9ypuVEY3YmWimVHEeIglI3HWROJIp1A1UnUMidXSya3G+nZTRwhjgBSArjP+fPnVwoJqryjCjxLFXe8jBlKElSt+LnqoI1kAo3xEgvycT+vCKqYkP87/Xf9Ov36GtVwkNLilBFIboVfYdi5NgBdtGaoOJ7vZvOlcfZdSQzHziCEa7ArIyhu0yoJABkBwk90d9XfdjeSzyo3R+tsZmFhA4ALm4cTz+POILLNF1tJlAHfAYhVSlAPbrVdqNrHe00P79Z7dhNHiCMdfNaL658k23Te9jCWIiVAqxUSFDdeeeWVOWfPnr0nZgQyR93z/LOiF3UYsWrKGijauWeSjalbjt73mANsEJOMUEMcp5onADICsIjjNJFFMWHG+w5Q+ruVuGi4B1Sdx7dN+UmMCxSL4iKWOUQnJaw7oVqWw2TSzaWe3Vt8Jt7GEeYU5rEnKVgL7nq47kZKgLakpyhiRibj+XbAZsZBkSiEBKpehDk3ydtq9l0fW0tUkEl4VyEEGQExEAAZAfyaVE08Wbj1+MxKiQlMLAH4Drl84tGHDd1+5J/VVrbhMq7xHDlpAVFJCTqZqrLYVeSDEydOzPt562Rr1tObU3Xr48iYOBJkzJmVWBsOfNtEbKoVDETLYqnq7UjHDF9EnyFJj6DfwUkuAvFcwBMZgb0uiFVGSBADAZARgI2RTRtNbOJxqhuA6iJhnmiaOJo8YsNw9WbboGSvXr4/EN18WTKBiXhw/PjxeR/v1157bV5JYc1YxDhEHInt+1X1ZNMOa29wtWWCxnn9c80/c5q96/TI9kt0Zl8GANoeE8cG8YQ5KsQoI1CtDgAZARzcGHFhU2+KhAAAHQkId8FzbCWZNHJEfiN5ZL7pu1eQSOG0BUQpJaxqz6B/d/LkyXlC6ty5c/SvbCaOjB2JIwPiSOXPcRjb+hEpITzOnj07F82WK+Ton9eIZ+vGknE2nlAdsvz8NHFASENCAAAX5U5EBIhVRqByDQAyAjg80O90sJBLfDzZAgDOjmE2NncTnmerG4jDDjblx5RpsyKTUJ0HOJl/iBJOareg07ASD0qehh0j4xJH2Dy3IoVQKQE6FxBWiWlr9kAm2djVI0lkrZpXF4dspj70kwcI4Ls9RP40ek7L84oRzwcilBGQ/AGQEcDDjda9kqWZywSFPTbwvE/6DjPYQAdXFl+2NnRZsHU7rkwaijsjNgsBwPJcefdQPPgfKyYv2FAljkBqtQyrl21OkBLCExCWOZTUTmRj0y7iZmuSWj+TxpIGDtPkFSz4LAGa3d8ZrvgOU4nPbD7cY4yCSNcHI9ZqAMgI4P8ksJdNBMdZQDBd1E2y35MvvgkI/r8Pww0VLno8I/D8ZF3Cos2pRN8gG1smJTbqJwunzdj0BQBXZLhcxmVMIo7A6vWFjaThwPO5LFKC5wLC8ePH09OnT6dnzpxZbNEw4HveeWKun8XgSYkDN7Ps1+9lsYQEKEA7MlFRy80ZzwoAGWHFXi6HXgGQESAiWYESg3F81my2gy+SDKW8wk8yYfzHLSBRnQdcSnTMkDWJI2BlbB/H3Bu2o1LzsIREArVYKGrBIFHhtddem7fo2fDnsb7w4xQxnxNAt3OyUYlxmjUgADLCokjOeg4AGQEAIj99Thli8EFGoF83gN8LUxK+4Iqw2V9oY8XJDIB636dBhZaB/YCeQQ8poRsO2+/cUwlB/3zy5Mn0lVdemYsH+jWm6wy+0wAAa2PdbsVYN+T5ASAjMBYAICMAAAlfEr7QxSIWUQaAOER1HgCAsMb97WxcL2phMAv4tChSQoscVjo4OHHixFw8UJuGCxcu1Fn/stYAAFh90GkWcyUkAKglI1DZFgAZAQACnwwMLG3y7PE8oYETdLQQAQj/e54gHQEARBsHemt6SSehb0giJTTKJFsj9LOS/cOabd8Q8AEAVseynZoSAu1vAJARRuzxACAjAACJoDL0eKbQwolpyrcDhHWChuo8sOkd2V1KVOYxAAkNIMyYMIxNOkNKqM00iwuDdeuDivONCfMMAIBW9hMnPE+AKGWEhFaIAMgIAIDJXCkxxPOEht7PvF83G4IA4QtHVU4sIieFLSCkazYuOEEFAEgJcTHLZMRh9ry2DJ/tVon17ph5BQCA0dg6sCSUIRkDxCcjTPjuAyAjAEDcp5HGdRYSPEcAAGh5AysHWSl8ASGKfvIAgJSAlPCmdDbJxIPdutUyMsE5KSgRzKY4AEA7YjlV7gDilRGGPBMAZAQAgPzkyCAzlJERYPG96FOhAAAsjyuJxaQFfQbDFxCYdwCAzXHI2QpcSoxnY2Qs8oE2qfey9cZ2w890sfXPkPkDgNP7D+NsfBhTztvJA01lqyAMGHMBopURZlQ3BEBGAADYtGGzZ1jWkhOKcSWLJjwfALCUCJpRHSG6ucXUhoDC8wQAyyc6k2ze20NKaJRp9jMN2JQGgJJzxRHPyClhxKS9zh6VZwDYW0ZEAkBGAAAwnTj0NpxgxG6M87TqkOcFAK6ckue0lFenImwks9iMBoBoEigeSwmz7ETzwCXJAwCcXhOwD4HYBwAAAMgIAMCCY75AfLOkKXZjtIlATqUCgCvj0Yxn500lDFttOThhBQBVxyJvS0s7LiUkmXA2zER21ogAUDexvbKtC8/Lufn9kJaeAAAAyAgAAACcRAaAkMcpTt6EtclcdMqWakwA0NVYNHYh2eKIlDDJqkfsmghiWUWK4VJMHxPDAaIfk7dKVs5CRgAAAABARgAAAA/MdXq0A0AIYkLCOEQCEAAgVjGqRSlhmokH/bI/98I9bhIL93g3AdibMGTIswNHJJp+tkaZZLBeAQAAZAQAAM8n+subWHkfOk7ml18wJRZLsVJ+FQC6EhNoE+Tf5+ZtaXQACC75FdRcOFsr7Vma58+yddagTtWCrFWDsSjBuwnAvNBwbsi8EFzYV5tyaAcAAJARAADC2zBMCjYCERPMnuXA4gkpFlgAAFB2425mkATbMyn5DQBQYzyaWJoPDxwcZ4clpIQkO8k5zOSBLQv3sFvx+bK2AIhnPlilosuI52d0Un+IzNupiDCv6MazAgAAZAQAgPASF4gJ5s/TVlnaHs8TACKV4/rEGOuCYR67iS0A0GYlgamFefHQ4TXUKilhkv37XdvSVxYfZ6E9SwCwPj4hIrQz3icutBOK7KDUm7GW5wUAAMgIAAD+LazqlE5FTLh3k5B+3QAA5WPRmAS61ec5yDZOiSsA0PUp0nGolcKyn3G3yYSUJdnZuSoTANDIeLFL1RSrUt2oIDk+41m1LiIgIwAAADICAICnk35bvU93eJalK03QrxsAiEPFiSpaCwAAhCFJla2WsB35c9uxJCIkrDcAmFMjIhg9w17J6hI8w/YP9Qx5bgAAgIwAAODfxH/EJlerRjdJNQCAuxNUKRIXAEBUp033DATeGc/KWgs4SokDxDFmTErs3TAu3FtVYkILHOdFhCnrQAAAQEYAAPB3QzCh/Kf1Z7pY0o9y4wAAdjagnG9vs6K3bB4DkNAAAFafQKUXt30ZgRZwAFRGQEQwW4vMaoy1yAjtHYwa8dwAAAAZAQDA/9P8MwsyAgsxAACI8tSnQW9ZNn8BADYnhIZUv6l9YpTnB8CYwany9vbAmNsjIgAAADICAABUWLyOayzEOH0DAABl4s7A91ZBJXvLzvjcAQCgRIwxEfJoAQcAeXWuKSKC0XOyUR10wvNERAAAAGQEAACotzgbbFjIrmPbwZ+DU1YAAOFvBrbeKqhGb1nEPQAAMI01wzUCHi3gAGDd3HqYzVEntGxpTIaeIoFVlrgREQAAABkBAADuWSxsZ6dtZr6c9qT/LACAV3HGq1ZB9JYFAAhOwB66nKzL4uTQ9fsEAPBY8jIFuaO9Z4+IAAAAyAgAABFbzE4m+X2UJgAA4J4kv5OtgiwKE61XcAAAgLXjerKm4sAuzwgAIOg1R9kqCFTabFdGQEQAAABkBAAAeHMB12n7gxrtJDDZAQDcP6laamxvWHaz1UoiYSMTAMCJODMzGK8REwAA4owBs+ywyzbPzOqzHyAiAAAAMgIAAMRyenbIcwQA8GK8N616M+5408yEGa2CAAC8PBWbiwkPuyBkAwBA7TiwqTpOj2fUqAgyRUQAAABkBAAAcHnR8m8tJYSQEQAA/IsD61oFjZtMCNXsK8vJWgAA9+LJ0GK1GyQzAAB/95gGWUzo80w6FxIQEQAAABkBAAA6X7D8zNKmYcqmIQCA9zFhNzudutPC39VHQAAACCqGDCyuK/4rzxQAAKCyCDKkGgUAACAjAACACwuVv2dxw5CqCAAAUHazjN7iAABhjeuJxfXFP+a5AgAAAAAAICMAAIC/G4bfokQ2AAB0GIc29ZUlvgAA+DmuzyzJCH/BMwUAAAAAAEBGAAAAfzcLn0VGAACAjmPRPz7kgPgCAICMsMSEZwoAAAAAAICMAAAA/m4WftDSRuGsjf7iAAAQXBzqIb4BAAQzpttu0/AEzxUAoNJYPFwaj8ead/N8AAAAABkBAAC6WKi+YWmzUAvdLZ4pAACU2CidUZEHACCYcX1gUURIeKYAAKXG4O1srrxJCtvjWQEAAAAyAgAAtL1g3bW4aTjgmQIAcHrK8O/t0yoIACCoeDK0KDlTdQ0Ays5nB9k4NIjpoERWaWxkOsbyvgAAAAAyAgAAdLV4tdHbdcjzBADg9FTLSStaBQEAuBFXqkpmikV/FGMSEQCsiQjTpXFlGsnBkkmFMbfPewMAAADICAAA0OUG4rhGQohFLQAAp6faqIxAqyAAADcTgrMSItmQsRsAao47OytEhDdFp4D3bWYcIgEAAABkBAAAqJIYarVEdsFG4mDDon7lhiKfJQAAp6dK3tOEVkEAAMElBjdV3JnQYgcALI03JlW2tgMbX2fMmQEAAAAZAQAATBeSKo+9Z7CY3PPgPunrCgDA6ak6G8kJrYIAAIJa5yyK1km2nth28D7zHvN9PjsAr8YYU6G1F8jPvGVpvkw1MQAAAEBGAAAIfNFcpeJA6nAFhyT7520+XwAAL0+LOXN6ilZBAADQcQWHfG3T4xkBOC3ZlknK7wTycw8szOlnHCIBAAAAZAQAgLAXzCRYAACgzSRL6uPpqYriXsLnDgAAJWLNzCBpt4d0DeDUwY6yeyozJOM3xzP2lAAAAAAZAQAg4GTQjNLTAADgYVWEzk9PlWhpRJwEAIAy8aVMPJxmkhylzQG6+b72KrYo6Af0DPoVfv4JEgIAAAAgIwAAhG/uJz6VyPbkmdLXFQCgWRlh7OIYu6JV0JsbrXzmAABr5879LCYMKc9dK6nndIwECHgM26v4Xd0L8FnMSoxTPd4hL/a1EN0AAACQEQAAai0w9nwtke1wlQn6ugIANJNo8erU50JyjYQQAIC5vEUlmdRa9aApLRwAGk/YTitW9upFtCeyyIhxycv3esqzAQAAZAQeAgBA1UXGLIQS2R6dAqCvKwDA3WNnyrgJABDNmG/a1iblWc3lOxvS+IR3D8Cp7+k49IMc2Vi/KJslmWDF6Xq/BZspnyEAACAjAABAE0mgTZUQtLjc5TnGccIXAKDFk59UlAEACCuxMahwerjPc7PWTo/WFwDtzWM37aGwfwK+igi0ZwUAAGQEHgIAQOWFBgJCNxsR9HUFAPjt+Lmz0CucsdD+STTEDgDoStQd15gfD3mG8/hoo5LdkHcSoNM9gAlVvsCDeJMQTwAAAJARAACakBFmCAjWnqetUqpjqiUAAEADm4i0vAAAnxLonL5E7ABw/bvZYyyDiEQE3mcAAEBGAAAAa4sOBITqcoetUqpjnikAAFgWDGkVBAC+zIcTxqe1z5eWFwBufS9HG+ZatEgBH2S3MusHYjMAACAjAABArU0tymO7cxKM3q4A0FU86GfxgER1uBuJtAoCgKbGIhuVwmbMg42e9XZW7aZw7cHzAmj8+7i39L0bOTi3HzK2Qo31w4hnBgAAyAg8BAAAcGtRt7vUs7sKJIYAoOsxK2HT0pvPcEgCEAA8H4sQo6o/996GtceQZwTQmiDUc6EdVsGYMKFlF2yo6IGIAAAAgIwAABGcSN1dsNZ7PJeoxQTaZACAC2PTjOcVzWlkSqMDQJunLGkZ09xnwClogDhliD3DSo1TnhkiAiICAAAAMgIAcJKFiT/JP54ZACBHQRmhMbEkJHCKFgDqjEUmVVj2OJkLAGBlzB1kYlep+R7PL9r3ZYqIAAAAgIwAAFjrJAVIClIWHQBcEBBoG+PfZ71jOK9IEeIAoMGxaLim6sqIym8AAFbG2X7W2qZyJSyeY5TvzQARAQAAABkBALDWWSjGvZkwpEwtADScDKJsPwIKp+UAoC05Km8VgNAWzzqXzxug+UMtUwvzexLNcb4/I94PAAAAZAQAwFonKQAAALaSQKklSCpEKCbw7AAAoMScI6ESBkAr37eJJdF4m+dJZQREBAAAAGQEAAhnY8ZGuWQqIwAAQNtVEWYkEaIVE2Y8LwAAMKyIMDOYT+yR/ARwQjae0RIy+jF7iogAAACAjAAAYU3yE0unUlkQQFNJqTEnmACQEZYYUw0hajEhYZMaILg1Ce3AoKn3q19yjjHlPQToZH4/Y34PC+/SlH1HAAAAZAQACGNyP7DYq5tTJGD7/dzjBBMAyQGSA7DwvpCoBAjre91DOALkR4Dov28TvmewRlQcZu+HGPJcAAAAkBEAIL6NGUroQdMLT5KUAOF/1ymbDAAQ17i/nY3rM1qxgEcCPm2hAOzLxmO+VwAAAADICADAQpFTIsC7CQBNftd31pyIpR0LAEBYkumgoAf0KpjPga33z1ZrQt5JgOLvW5FsNkI0BgAAAEBGAABOn3P6HLp+N6naARBfkmrIJj849l4un95GlAEoL5eOa8zlhjxHsCg/ziy1J2QtDFBNNh7y/QEAAABARoA4Fwi72YJgtNCHax2jPFHAJmxQ78EeJbLBwfdyYOn0UsK769Tnur0Qd/YM4s54oUd8j80rAOhwE535kXvrl9JxhGfYqlRq4yQ6MgLYfjd3s32NhOoI3guDvWysGRrEgsnCr+25FruznyeXt/LYtRuSbMw6DgAAAAAZAeJZsPUWFmqpJabZRuAuz9j7d2PMyT9wbPPCVjnVEc+006TRIIs7icW4M2JTCwAajD8zKkc5FUeGDcWRXT6zRj4zm2tNKlyBi2ICex/dCM15sn5mUVofZ/F7u+N5x5R1LAAAAAAgI0Ds5n/ZxRyLcwCwlYCwUk6V59n657ZncaOwiDFigvVTWUMSqxD596D2mMSzJI5E+tn1LX4uE54pOLhvMuN5tSogDDYk6m0zbVtMKBARqMQBAAAAAMgI4Pwm6rDFDbx1YsKQ0rUA4IJUxXNsLQEx7TjujIg7lavjjNb0duVUKsT4nUgsJTUYj4gjsX2GQ4tJQT4HcG3twbyovXnpuMNYkLZxyMawJdT8XngvAAAAAAAZAVyUEJKOF273lJZjM4lTqQAdigmcYGo+8TBzLO5MaDNjdNrM5OQx3x+I8fsx4mR39OuXMXGk9coIuQxClT1w7Z1mbd6ehDBxLBbMmqhMUEJEsDKXYJ8JAAAAABkBIORNvGWGLHo4fQHQgZhAMqG5zdmZ43EHGe7e+UKVcrd9nh9EKOsk9LwnjhBHKsWZBAEBADyXEFZVa+lZjH2l4hD7TAAAAACAjAAuLNxc38RbXvSw2ZTSlxKghe9TQhK1kWe948GG4T1tg0j41Sp3O+Tdh0jHOhtzbL4/xJEYKyYhIACAibw08igW5FVztmrOyRttWcM+EwAAAAAyAoDthdueZws3a4u4CASEZdisAyj3PetTiaWTBIPrJ5p2Ivu8bM0TBrz/gMyDjEAciS+O1PicJwgIAFCwXks8jQWVDthUEC9GLewzIe4DAAAAICMANH5Sa87ly5fTq1evpkmSpK+//vpK9N/0a/RrLS/ieggIJIIAwAsBztop1kuXLs1jyvXr19fGHaFfc+XKFdtxpx/JZ7Zr8Zkh9gDjIG1OiCNUXaoi8gx5XgCVDp3MlquzhDIfs32oRuP8tWvXNsYC/Xf9ugba+GwZ/szWRQRL+0wIkwAAAADICABrN3VqGeTakJNccHBwkN65cycte+n33Lx5c76os7S5Nwj0s7J58otTWABubxrmG+7D0E79ZQJcUld6U8Loxo0b6e3bt9Mql+LO/v6+rY3EUQTv5djCc5oRfwBWfr+2VySLVsLzshtHtH4hjgBApGNlXmFk2+M107SuiCaxQGP5rVu3KsUC/T6tSfTn6M+zUDFny/LP3DeYg0ypfgYAAAAAyAjgXHJbG3iSB6pu3m269GdqMVizasIowI0Eay0teP8BvKtUk28W9jz/+SoLcNrcU+Ko6kZhkRSnTcSaCaVpyCf+a576pZQ2gPl3rbfhZOKQ51O6P/ZdcUQCdZNxpKZYPaVyDABYTNTPSp7K7wWwZjJC4oBktCYu/blas9ScO+9Y2sPrGzzLCdXPwLF5cH4oo8czAQAAQEYA/yd4o6ol67TR1talE0c1kkOjgD4vW1URxiwQAbzfNJxlJ2i3Pfv5+lXlN8WdKpV3qp5uqrGBGGQiKXs3ERAAuhk38w3ZHZ4HccSReMB7CRDe3C1n4vr8rWp1HAlpTR2oWSep6e+rWC1hpZBQQhxITMZni4deqH4GNsasEZWjAAAAkBEgchFBm3gSA7q6akgJo0A+s2FNAaHPuw8Q5KbhNOs5vuX4z9avsmHYpvy2fGmjUqemEBKMRRkEBAAgjgQaRwoqdkx8LfMOEPi4mdRMLvcd/JkqiQiqitOWkGZRSrhHKDCUERJTMcDCoZcZe03Qwj41QgIAAAAyAoQuIuT2uCuXNhQrLOJGAXxu/RATlABwz3c9DU08qpJA6nLDcJUMV6FtUIhCwqrNXwQEACCOBBpHsj7ie4ZVm6a8qwD+H0JZw9BXEUEHWtqqhGAiqFU4YHOXWGAgD5SKHTVkhAkSArQ8ViE9AgAAICOARxO8QZkFhnqeurJwWzbLKyziQhASZiGWbgeAUt9zr8pkKkntUxWeTXFHia2yiaQA38+tbC4xZAMSINg4tL10Aj7pcn5JHOlsnJ+WnX/w/QFwcjxPLAkJOw7MQZMyh2r29/dTF68KB2yWhYSpLYmtguwn+b3H9ws6kKZ47wAAAJARwJMJ3m7Z00SuX1pcllw4DTz/DDedSmViDhDGWL1nacMwceBEZanTSypl7cop1nXXwcFB2c3DEe81AHg+11xOQuwSR8KLI1lCalxn3sF3CMDZcX3mc3WETESYlpHSbt265XQs0P3p8E+VajnZ8xhm1QkmdarjGbZiS7M9Jw69QJfVW3Z4ZgAAAMgI4P/G4l102Vu1hQ29nuefJadSAcIer7csnmAadPxzTEMS4BY3D0uW2x7wbgOAJ/FnVqICT6PtwEreT+hxpJ82u060kahEvgNwe4yvKxx1KSOMylT3dF1Kyy/dpyS6MlUJWo4DSbbvROtP6FpEmPHMAAAAkBHAj0ne1LSUnYtlTU029EoICQmLKQDgBJM7mws+CXCLm4clTzPtWH6+W9mm8jCDkyIAYCNRVSkJ3cQYVCZpRhzpXIBMODEL4N3hhrKtWPqux6br16+nPl66764l5xVri132zcARESHlIBYAAAAyAvgxydszFRFcL2VnUUgY824AgAcbhXVPMHW1abgbcgKpYiJpaunZ9pZ6uS8yIRkEADXGl2HNhPTUVtwhjjQXR5ae88CCiDBDiAPwdtzfzvaLZi6eSs7uLwlZRKgoJDDmQkwiApWXAAAAkBHAg0nejukET+0OfL9KCgm7FZ/pciIooX8eALh4gqnDezXaNNzf3/c+7pRMJA0rPlPTjeJGklUAEE2sGVhqEVSrMk+ZOOKziLAYR0q0bBha/szrCChjTioCBBUD1gmvSVfJ70y0LRyPrl69moZwlRASJryzgIgAAAAAyAjg0kRvGstGXn5JqihximfL8DmaJIISDHUAcOgE057LGwy+n16qIcJtGz7HqiV0U74nANC0BNDkyU3iiJ04Yvis+xWqXwwo3Q0QfDzIy/V39n03rZAjKVhSVwhXScl5wLsKgYsICI8AAADICODRAjKqjbz8ev3112ufLqqYCJrx7gFAxyeYdFKx19H97JhuGoZ2lRDhJgaxu05rjoTvBgDUHMdnXVVHyOIacaSldnPZesdE4N6jChwAtByPZiatRm/fvh1ULJCQYCinJYhh4NH3eRcRAQAAABkBIl68hWSRL18q1VdlAedrj3YAAAfiziTGTcP8SpLENE70GkwAjngXAcDSpvGoZqWEIXGkvThS47MerlkjjbqSGwEg+hg0jKXV6Krr5s2bnbTuAWjwO226x0rFWQAAAGQE8GyiZ1QVQSVBQ720SWlolA8XFrxJlz1yAQA8jjtGp1n39/fTkC/D0qqT9N6TqTbiT8LJVQBwSEzoNxFHQk0+5dfly5db7xeeCXHDDMRqAOgi1uSVKf/okP9WNA5eu3Yt6FhgKKdRHQGCObSAiAAAAICMAIFWRVArg9AvJb0MJ7zft9gfl959ABDbpqGSF78oGh9VsSb0q8RJpt7CcxxYiD0zNm8AwCExYdbERjVxpJnqCAAAHceWnTLCmw6dhFrhM7/08xnKaRyGgRAqI0wRawAAAJARIMCqCDEs3vLL8JSqLTDTAYBNwzWEWlZ7+bp+/XqpdgqmpWjX9Q7nFCsAOCYmlD7ZpqouxJHqcQQAwHO5uVSrstArreXXjRs3jPageI/A831qRAQAAABkBPB0kld4qkiLmliuEqeLOJUKANDQpqESK7FcSpYZPpdtU4lwxYbNgE0bAHBsk3lYdWw6/D17xJFKcYQ4AADBH6ZZRNUCYroMD9cgJoMP+wf9TKSfZCDVAwAAICOAxxO8bRZv914q6dpgJQSdCNvl/QOAyDYTUqoirL8MT7UOSjzPWZas2+YdBIAA40pCHKkeRwAAPB7/S1UIi+lgjS7D6ghj3iUAAAAAQEaANhdyA0raVV7AISAAAFhMHMV4mjW/DE+1Tgs2YvN40+OdA4CA48kucaR+HAEACF1GiPFgjS793FTKAQAAAABkBHBpITctWqTcuXOHBRwCAgBA3XgzMh1D1S4nxuvatWvGrRqyZ7qTbcgOKVkJAMST33Lr1q0o44hhdTcq5gCAzzFgx3RN8frrr0cZC3SgiFYNAAAAAICMAK4s4rY5VbT+SpIEAQEAwG7MSTjBtP46ODigxDYAQM1KO+qXHetlWN2NBBQARFEdIbZ2PfmlA0W0agAAAAAAZARwZQHXL1qgKDES66UTVQYLuL/gRCoAgHHc+YdF46pEsJivS5cusXEIAFDjRGyMLeYWLxJQABBJPJghpq2/DCquJbxHAAAAAICMAG0s3gpLnMZ+GbRqmPAuAQDYk+BiLa3NxiEAgFEcGRBHaseRGe8SAHgeC7YR0zZfhpVydnifAAAAAAAZAZpewE03LUy0kRX7pTYVJIUAANqR4FQVIPbLcONwm/cJAIgjtPpZdRn2CieOAIDPsWAXMW3zpRYVtH8DAAAAAGQEcGEBt3Fh8vrrr5MUIikEAGAz7kyQ4KxsHO7yPgEAMvW9SCSO/TJsNdfjfQIAj2PBEMG5+DKo9LnH+wQAAAAAyAjQ5OKtsN/qzZs3SQqZJYUut1neLvvspgb3tbY0K/fb6P0m2hzpYDMm4Z3gfi3db2P3jARndmkDteBZDRnXGCe4X97hGN8JynKbXQaf15BxgnGNcY379fUdLhKcr169SiBIjdr2TNgfBQAAAABkBGhy4dgrWhzeuXOH1ZvZZl6+kG5jA3anZoKR+23nftO2NgeLToXwTnC/rtzz4Z+1hQRndmkDteBZjRjXGCe4X97h2N4Jkx7hxBHjOLLHOMG4xrjG/fr6DhdJEAjOv7n0HGg7CgAAAADICEBZuzA283KmLXxuM4uLfu632ftNWvouJ7wT3G9D92v1nk0kOFWj4UrTJEmsnWJiXGOc4H55h0N5J5CpzS+1q6gTRxjXGNcY17hfl99hquSYXQcHB4XPn/1RAAAAAEBGgM5kBMraVZIR0oY/sy3LSUbu1+P75Rlzv23cr817NkkicRmfYpowrjFOcL+8w7HdL3GknTjCO8z98oy5X9fvlyo5Zpeeg8Hz32KPFAAAAACQEQAZoePL4IQqmxTcLxuD3C8yQvH97ZJEMrt0msvGCTLGNcYJ7pd3ODAZYUBlN2sywox3mPvlGXO/yAhhX6o6Z/D8e+yRAgAAAAAyAiAjuL+ZV7ipZ/Fzm1pc9HO/zd6vjyVTeSe438buuSjuXLlyhYBT4hQT4xrjBPfLOxzbO8H6pb04wrjGuMa4xv26+g4f/vodWr+ZX8gIAAAAAICMAF3KCJNNCxL1GeUqJSNoc2anhc9tx9JGEPfb7P2KoQtiEe8E9+vKPZNE6kxGYFxjnOB+eYeDeCeII63KCIxrjGuMa9yvk+8wLXuQEcCZfWVVSekfMs72mCfZ/+/zfAAAAJARAPJJ42jTguTatWus2sxlhDfaWPAvLfxnNRb7U+630ftN2toUXNocTHgnuF9L99vIPZNE6kZGYFxjnOB+eYdDeSeII+3GEcY1xjXGNe7XxXcYGQEZAZwRETZVSEFIAAAAQEYAYDPPsoww4Z0CAKgXdy5fvkzAaUhGAACIIY7Q7ue3140bN4gjABBqLNguGt80l+ZCRoDORAQx5lkBAAAgIwAgI5S41LICGQEAoHbc4RSTPQluxjsFABHGkT5xBJkaAAAZwey6deuWiYywwzsFJb57pi1amGcAAAAgIwBwsqjMJTGjYJK9xzsFAICMQBIJAIA4QhwBAEBGcOGi2hp0JCIwzwAAAEBG4CEAJ4vKXhIzCp7VkHcKAKB+Ekmnd7jS9Nq1a2zuAAAQR4gjAACr48HGhKiELC5a9kC7e8i0aQAAAABkBKi0mXf79m1Wb6lRj70+7xQAQP1TTAcHBwSdlIo8AABrYsgWcQSZGgBAQtWmMS5JEgJBalQlZ8r7BA2ICOyTAgAAICPwEODNyeQ2m3nFl2GPvR7vFAAAp5halOBIIgEAcYQ4UieODHifAMDjWDDaNMZJ7OUyEpypkgO1vmtrGPHsAAAAkBEAjE+oYpOn6f7+vslEe4v3CQCg/ikmNg7NersiwQEAcYQ4QhwBgIhjwZC2o8XXpUuXEJwBEQEAAACQEcDtzTyV94z9Mui3OuNdAgBg4xAJDgCglTiyRxzZfBmU5SaOAIDvsaCw7ajErJgvwyqfu7xPsOY7RmsGAAAAQEaA9pJCd+7cwSTH+gUAsBV3dmkRtPky6PONBAcAbI4TR+rEEXqEA4DvsWCLSp9WxLRt3idY8x0bIyIAAAAAMgK0lhS6ceNGtIs3bWQy4QYAaHfj8Pr169HGndu3b1P6EgBgcxzZJo7UjiN7vEsAEEA8mG4a6y5fvoyYhuAMDX2/FkgO2eGZAQAAADICFE0wU1o1rL60kYlJDgDQ7saGKtLEehm2aKCcKgAQR4gjxBEAiD0W7NGqYfVl2KIBwRnqygiICAAAAICMAMYTzMLSWzphE9ul9hQGE29KnAIAlI87Q6ryrL50gos+3wAA9RNQxJH18A4BQCCxYIdKOasvtahATIOG94qnrEsBAAAAGQHKTDD7LODuvQz76w14hwAA7G8cxliVRye3DOLOmHcIAIgj/+WJovHy6tWrxBHiCACEHw9mReOeDprEdOnnVYWgohPtvD9QY68YEQEAAACQEaD0BHMrK61FdYRyizdaNAAAVI89U8qq3n0pcWYQd76fVZbo8x4BQKQy28ywhzFxhJOwAEClnPlBk5guw4M1I94fMNgrHvHuAAAAADIC2JxkjqiOUHrxNuHdAQBoripPTKdaDU+z/n8renQOOZUCAAjUxBHDOJJkz3GA2AYAgcSG7aKxTwdNYqmOUOJgzQ7vDxh+x3rZnEH0eCYAAACAjAB1TxmlVEcotXh7gncHAKDZpFIsPb/VlqJMgm1FcmlEtR4ACDxuDKqMkQcHB8SR3/InK2IvYhsA+B4fJhyu+c1leLBmynsDAAAAAMgI4OwCLobTRVqklkj+sGkHAFA97hSWVb18+XLwJ5n29/friAj3lM3kxAoABBozhlXGReLIXVxAbAOAAONDj9Y9aXrr1i3TWEBVHAAAAABARgC3F3Da7Ar1MixvusiAdwcAoHLc2TYZa5MkCTbuqOKQYTWeskzoCw4AgcWMftUxkTgy50XENgAIOEYUHq5RBZmQL8MKOTPeFwAAAABARgDnF3Da7AqxXUOJ9gyLDHlvAACaP+kaapltVRxqQES4a8OR008AEEi82MrGtErjYagnYg2TT4lJNSLENgDwOEb0YpbTDNszUBUBAAAAAJARwJ8FnDa9Qit3WjEhxEIOAKB+cimJUYTTZqhhrPkjk2dU1BuW0tsAEEDM2FkxHv7dITeJI5sFalV0Q2wDgMBjxMRkTLtx40ZQsaBEhc8J7wkAAAAAICOAKwu4kclC5vr168Es3vSzVNmU430BALASdwaxiXDaBC2RANrKEnCzuq0beN8AIBCJbZAl2PsL/0wc2RxHtiyIbfqzdngPAcDR+GDUAk5y2q1bt4KIBfo5SlT47PGeAAAAAAAyAnh1SjUUIaHERh4bcQAAHZ9kCqHXa4nTS+lyeews8VZHSiB2AUCocWRqMg6qGprvl1oXlRj3e+ndlSXqim1aJ27xzgGAo7FgGIuQILnu8uXLpmP3Hu8HAAAAACAjgGsLuF3TDSmfhYSSIsJfLJ7A4j0BALAad3ZiEOFKnl4ab3hefVOBY7lUN+8bAAQcR1LiyF2MNsSQOlLCgHcOAHyX03wWEiQiSNIuUyGHdwMAAAAAkBHAxQXcKOQNvf39fUpbAwC4FXeM+1n7WGpbJ1lLJJCMNg114lXSAjICAEC5OKIKCb7FkZIidWEcQWwDgNglZx+FBN1vCRGBymgAAAAAgIwATi/gtkyNcnHt2jVvNvQkT1CKFADAbxFOm3C3b98OMYFUetMw65Fr8uz6vGcAEHgcGYcotpUUqZMycaSC2EYsAQDXY0HfdEyTkKA2ar6ICCXkZirZAAAAAAAyAnixgNs2NcrzDT2XrXIlrUoa5AkWOQCAuyKc65uHSnKVFOBqJXmy5zdcE7tnvGMAYHm87mdjztCVOTNxpHocMRTbiCUAEJzkLF5//fWQpLS1rXoAAAAAAJARwMUF3E4ZIUEbelokuXaVLI/NqR8AgG4TSUmZ8TpJEudOtyq5dfny5bJxZ89yknCcleDWZuw27xcAWBpf1klPExfGmrJCdWBxZNjgZ4yoDQDBVsvJW/i4VnlNsUmVSEvGgimfPwAAAAAgI4BvC7h+2V6iWsS5UCVBC0ndS4VeqP0On/f2ikVzkm0K0jICABDhVqCEjQunW7VhqKRWhbjD6SUAcHlczk/NJz4kQIgj1qtfDFiHAIBvsmzZajn5ARtXqiTooE+FQzVTxmsAAAAAQEaAaIQEobKiXZjlNTbxuhYRtFieFbSO4IQrACAkbJDhukgmKe5o47LChiEiAgC4PBb3ypa6Jo4QRwAAUrOKOtOW/v5p2XFVgtqNGzc6kRD091aojIOIEO93a5LBASYAAABARoBghISkqpTQRqUEiQ8V+qo605qhpPShjeEe7yYAICSsTiapRU8bcadG8ogEEgC4Ov7uZhvbpcc14ghxBACgREWdfgv3UklIWJQSmm7loz+/hoSAiBDnd2xEiw4AAABARgASQyu4cuXKvNSczWoJ+rP0Z+rPriEh6GfadeD5Divc+8SFewcAcG3zMN9AVKUcm0JcvllYoX/rMgM+YwBwUD6e1RnbHE2IhRpH+ry3AODYmFu2os6w4+StcfsGHXyxLanpz9OfW0NIS7PWF4gIiAiIKQAAAICMAMEZ7tOaG2fzjT0turQRV6YUqn6tfo82BWsKCDnacN1x5NkOa/4cbEgCQKhCwrjueK9NPiV+JLAplpiecFICShuFFuNOgkQGAA4KxzML49uUOEIcAQAq6rgoI2T3ObAwBs+r56iqjWKB6WEb/Tr9ev0+/X4b99H28wPnRQSkdwAAAEBGgOASQ3uWFk/3LOpW0cTf5ZpBnm0EByNXAAC4uHm4qmrPqrhT84TSppMq24HOCwaZVIcYB+Df9zexNMbtEkeIIwBARZ0S7HRwzz2Lce+uAzerYkGN1gtIaVC1ugeSCgAAACAjQHD2e9KQKNAkiavJkqr9eVf8fJRlA4BQT+9OPYw7wW4KrWnhlGRiArEIIHzRy6vqXMQRZz+X7RXVK6j8BhB2RZ2J7xVzOoK2DIgIVEYAAAAAZASgSoLjjFxeuNlqg8HiAwACjz1Dj2S4SagVa7I5wKxAjhtxihfA+fG06tjWJ44QR1qIJVob9fi+AgRVUceJKi9ZlYSZJ7FgRjUERATD7xayCgAAACAjQNCnWSaOb+L1PFrc92ua+kPeSwCIYCN05PiGYT/wz6BfUgYkmQTg9/c4P5HZC2j9MiLx5M07OKEdHYD3FXWcnB87LqhRcQwRwXi9xTMD+P/bu5/cNpb1bsBb0BK4BC6BS+ASOM6ol9DDAJlomCF3ECIr4CAL4AIChAi+DzasCG4oEiQINhiVb9NH1hHJ6j8ku6ueBh7gnnN9bLrY6pd861dVAAgjkMsH5dnAQgnrMTdM353D3XS3hIX7EcgoDLcUQhjNiuq1VV0wuM+am8hA0UQdUUcGUEvsuAPj/Py3GEE9HFIoQQjBz5ogAgAgjAARTb3bK32R228LPU10TE9uI+geBDKdUCuvuNXqKrdJ9hRXxkHGn9vXuU+E1ONw7Toyy/D+a3tUiEk6GP6OOqN8rtV/x82VasGm/vM93wQRLEYCAIQRoMGH6Hn9Qbo6cwBhlcuXtnoHikNjWrrvgMzrzjQ2vNXDxFG2zcKezgze2nYbBvXsLGtZT4SoIxcf604rh/38wsU//21z2MGkDqkVFwgmbOraa9cXP183De83QQQAQBgBDjSbirrxtu04ebGqv7DNMh/TxbvGsQkdgL83ERd1U3TTccJjXT9r51Yr/VHXtz0ECo0nMPTJqD7ryMzY/jHGa8E2GN3nvyqn3XTqSeJ5HVRb93Cc6G39HUUAgff3WdHgM4W6BwAII0DDL7Kz+kN3eUBR/xqNOwD6qjuLI3Wn3NcdE+XRwbguoYTCOALqSNaBj41gG4xucr7IeTed+tk1q0MKx2rBvP51ggecuqeWgggAgDACAAAcDyW0WS1WGj+A7Cc2BdsAsDPC8SM9BO8AAGEEAACyb6TN6uOUnHcKgGAbAMQF8zaCCACAMAIAAMQ11CYR241ujRV8ukJ8f1SZxjOCbYJtAORT/z4GEjbGBQAQRgBy+2I0fXf+oaYfADGTq2V9xqkzT8HPCQi2AcDhz4SFYCoAIIwA5PqlqPyk+VfV/94XJACs+IZ2E62ViVYQ2AEAAABhBCDnBuCxFUlV3UyfGC8AgKOfq2YRq71tQQ+CbRD7MxGONVn7Tg4AAAgjAGNtciwaNMxDA2Rm3AAA/vg8Na8ni3YNlcYPgA8hhPLAzjrOmAcAAIQRgNE1O8oWjfPQbJ8bPwBAqPP/b1t8lhJGAOB9PYk53seOOgAAgDACMLqmR9Ghgb7VDAEAMp002nT4DLU3NZ4AWdeTpsf7CLEBAADCCMComh83EasvYkIJmukAQC6fn9Y9BBHWxhIg2zrieB8AAEAYAcimETLtuMXwrg403BhPAC4UpCvqo4YWxoQrfG7qGkQIuypMjCeoJWR333U93sciAAAAQBgByLYxUhhHAC4wEVx9EogrheK40D1YOuIK1BK4wgKAtbEEAACEEYBUQgm2jARgiKtYtyd26Vlacc4AwwhrIQRQS8j6nqvsqAMAAAgjAPzZNJm9WTVokGiyA3DusFxsTQoTSTPjxpXvw5X7ENQSsr/nCjvqAAAAwggAh5snk7oRd7RJYqwAGOiK9Lnx44KrqndWVYNaAj3cc0IIAACAMAKQXfO9PHC+6tQYAWBlIZnci86bh7wmhtUSutxzdtQBAACEEQAahhIWdSOv0HQH4IL1p+uZy1sBOnq8H4v689DC5yEYVZho19HG7ic0rBd21AEAAIQRAABgBJNI246TSJWJY4Csa8m6h0DC2ljS8POLHXVg2D+ns/pn0sIbAABhBAAAMm8WLjqGEgrjCJBtDZnUuxt0DSTYaYemOyTYUQeG+bO5/GwXHOMDAAgjGAQAAIQS2qxwLY0fQPaTT12DbWoJwPjrwfLEsTyCQwCAMAIAAGTeRAzbqq4aTCAtjBsAgm0Aggh2VAMAEEYArFq6/WTVkjM2AfhYMyYRTcWtsUp2hbMzfgHBNgD6CiIIngEAwggAGUwunDrPtaq/RE6MGQDv6kdZ14iPNcMZ395nAME2AEEEYQQAAGEEIPMviPOGW6WGL5QzYweAFfNZTBRWJgoBgScAzhRE2OkxAQDCCABpf0ksW5zduqvPfJ0bQwBI6nPBrGEDeWHcAME2jrynq/q7o532QBDh0wUvxg0AEEYAEEY4un2qiQgAGP3ngXk9WdT0c0Bp/AD4EEIoD+ysszFGIIggiAAAIIwA5PVlcdExjPA+lGArVQAY3+eAbYf6XxhHACKP97GjDggiCCIAAAgjABmuXNn2FEiobKkKAKOo/9Me6r+6D6CeND3epzRukFxPadPwM6RQEgCAMAJgQsIKSQBIuGlc2REJgA61xPE+QJujPwURAACEEYCMv0QuegglaC4BcM5atd8GOkyArDQ0W41h0TGEYMyBlELZZc2z7TLfGQXZIK1nwrrBjlp+/gEAhBEAfjeY1i2bS5p4AJxzRf/2QHOzdGTA2Vaw7erPBWo8kFKwbS1w1Ti40TW4vjaWkGUYQRABAEAYAeDTL5WzetVp9GpJ4wbAmcNypxqdYdeEifHqNI7vhc8BM+MGJBZs29gFpvGYdT3eZ6M+Q5LPh1XEz77AMACAMALAyZVDS0l3AEa0on9pEr3xDhMfx8+kEZB7IEsoYed4H6D1M1UQAQBAGAGg8eRF+WFVzNbW2AAMMIzw/niBufH721hOP1nl6rgLQC0xod5n/RVCgDz6RIt6h4T1O6XxAQAQRgAAgLFNoFuZ2W/zuKgnmRZCCIBV/mpJi5XPjvcBAAAQRgAAgCQmRNYdz6zeOlYIIPsgVtWxlmxyOsrG8T4AAADCCAAAkMOEyKSeBOoyiVTZBQAg61oyjZhcP3kMQYZj5ngfAAAAYQQAAEh+heai40RSYSwBsq8nZcddEqYZ1l/H+wAAAAgjAKTf/DImANSTIW2ObiiNHwD1d4zblmEEtQQAAABhBIAEmoS2BQXgWJ2YvVk1mEBaDOi173d6KGtT7ynAxZ/F4RigpTACAAAAwggA+a1W2p44+zs0DifGC8BkUsRk0nZA9e3QFuFrdQ3gauG29diCbQAAAAgjANCuIbhosDopTEDNjBuAINuBif7q2jsPvAtMnDqnfOO9BLhqKGE79GAbAAAAwggAdGsEli3Obw2rmebGD0Ao4d0RCMU1j/apJ7YabQHuPQQYRDD6YyhhZfcaAAAAhBEA0mgAFi3CCL9XLNk+FYAr17F5gy2/hREAaBK2W9U1xrF1AAAAwggAtGy0VR0CCftQwtR4AnDl1bTCCAB0/W5UHvh+5HgfAAAAYQQAWjTdpl0ndOqG3Y3xBGAENevXNuDGE4C6tkzq3Q9OhbQXxgsAAEAYAYDrrDItjCMAZ16xWvUQRNjabhuAt1owq0MIsfWjNG4AAADCCAB0DyW0OX9bcw6Ac9anoocQglWtAOrJ3PcdoOfnyqQOODnCEgBAGAGABiuFVg2acyZ4ADhnXfrXliGEtRoFQA87wZlkBD4+V24+2WFFABYAQBgBgIYJ/5PblxorAM7c6P2fhpNGIVA3M34A2deQaccQwq9gm7EEPvl8urFgAwBAGAGA/r5olwfO6y6NEQBnXs0aO2H07yFIZ9wAqL/DVB2DCBt1BWgYRPgVjDVWAADCCAC0+9K9qIMJpe1KAbhA7SkbThwtTRwB8FYLig4hhP9988/GEfjwXJlGhpzWxgsAQBgBAABIL4zwe+eeEKIzhgDqR5cjGt7MjSfQIIggjAAAIIwAAACMqPHbdhKpcpwQQLb1Y9FDGGFv6wx48DxpwDENAADCCAAAwEgawOseJpEcLQSQV+24qZ//u55DCRPjC4IIJwgvAQAIIwAAACNpAk/ebDpOIFWObQDIrn402VY91tLYQjbPkKVnBACAMAIAaX/5n3+yoqlyFjhAlitcFx1XuRbGEiDL+lHU3x9CHfmnjrVkbVxBEEEQAQBAGAGANBqHp1a5Lm2VCnDVcEBZT/LcXPDPXrQ8uqH03gHQsZY4Cx7yeD44mgEAQBgBgAx2RYhegfBmZtwALhJCKD/Z9jr88/TCr2UWJoU0iQFQS4AenwsrQQQAAGEEANJvAJRttk0NIQbjB9D7M3lSB7+Onb29vfJr2w3ttQEwujp39PuGsYIsngebyP7DxcO4AAAIIwBw3TDC70knqxMAelsxuhzDyrAh7doAwGjr3qFa4rgfEEbw+RIAQBgBgIQaAIsOYYT3oQQNAoDmz+B5y7O0ywG89pu6hoTJpCL8s/cUgA61pPSdArL6+T91TMPG50sAAGEEANJoAG57CCRUGgUAjYJgXZ69Vo0CICwGpLowQhABAEAYAYCEmgDTngIJhfEEuMjz1spRAD4LIThGBxhbcOrjZ+Ol8QEAEEYAwEpdK3UBmjdcqx6CCJ61ALyvL5MweXeixmyNFTDwwO4sPM+MBwCAMAIAeYQS2pxhvjB+AAefrUWHAMLWMxaAD3VlVocQfFYHAABAGAGAUTY4V7ETZcYM4OgztWwRQlibPPpjDG/qUEdpXICMn4XzlsHh0vgBAAAgjADA0BqekxOrrpxDC3D6WbpoMGEUgmAz4/bH+E0PnIMeggk3xgjIpI50OVKtMI5/1JRSuA0AAEAYAYBhrUgt300GVXVIYWJ8AKKeoacmkTxT242degSkPnHeJYSwf07eGMtfIev1gfERbgMAABBGAAAAq/szXA0cO+G2tKsEkFgYq+oYRNjaxez3WG4iQhvCbQAAAMIIAAAw2smQYr81tBBC1JiVLSbfwsrXufEDRv78KzqGEBbGsVWwTbgNAABAGAEAABBGMBkHeP557p2tlgi3AQAACCMAAACJTiBNO25Rvqu35p4YTyDh1fxCCMfHsujhuAvjCwAAIIwAQMKTUeV+a3NjApBVDVj3EEhYG0tgZM++mzpMZZK8n7GseqglW+E2AABAGMEgAJBO43ByYBKqqoMJzlsHyKMWbHqYRJoaTyCRz8JCCO3CzdseasnKeAIAAMIIAJDHarAQSlhaoQS0fMYs6mBTIdw0mvery0RSaSyBEU+k2yWsn7HsWkt2xhEAABBGAIA0GoVNGoMhlDAzdkDEpHb5yXbNlZXzo6oPa2EEAK5QS4QRAAAAYQQASKBBWLY9F/zN3BgCH54pkzq0dOzM6K2xGtV7OgvbZTeoD1YTA9C1lggjAAAAwggAkEBjsOh4nquzdIH9JMPShHUWQZOdoAkAZ6wlwcZ4kcnPxP6IrFUd+F/X/9tnZQAAYQSDAEAyzY+qYyBhH0qw9Trk9wyZ28o/y7rhCA4AzlFL9juwTYwTmfwsLIV3AQAQRgAg9QbItA4TdA0khGbijTGFLJ4bi47PDWGEdFbylfUuO57/AHSpJaVQG4IIf1gZJwAAYQQAMLn4p8JYQtLPibC98qaH8JLJBgCEnQBBhMPWxgoAQBgBAFINJaytdgY+eT6sewgiaKwCcCiE4BgYQBDBZ2YAAGEEgwBABk2SWdgasuEk48LYQbLPhGkPQYSNc6AB+FBfJvXkXHWkfmyNFZBREEHQHwBAGMEgAJBdg/jkJKPxgqSfBWWHEMJWWAmAT4KvS6FXQBDh0wCvI2oAAIQRACCr5smhrXN39dbtVjuDMMJnzwaTR/RZh4r6XnRfwXh/luctj/2xShjIIYiwNGYAABgEAHKfDFrUk0GlM3whm5/9RYMmajjiZWbc6PH+mx44R760chBGVUe2HXbZKYwjPdaUUrgNQQQAAIQRAABgOEGkU5NIS7ukcIV7r3LvweAnfruEEPY/54JHdL0XJwd25RBuQxABAABhBAAAsDqdTFdTRzfy7coBgwsTVR2DCFs7cdHTvbiJCL0It3Gp+00QAQAAYQQAAPikuVrstzYWQuAC91zZYvIyrHydGz+4+s9v0TGEsDCOXCHYJtzGJZ99gggAAAgjAAAAmMwELhAm8nPLUO5F4Tba3m9LQQQAAIQRAGA8zZxwvuvK1vAAWdaAPrZ539h2Gwa/Gl0IgaEG29yfnON+E0QAAEAYAQAGMgm1dbYrQNa1YHqiFkStbjWWcJXPcRuTvCQSbNvfr1NjSsdnnyACAADCCAAwkEbO3NmuALxbZd0llGACCS7/czupt7oXQiCFYNs+DG13NmLuuY0gAgAAwggAMOwGTulsVzi44mpR/4yUJlnJMJSwblEfSuMHV50I3tcsIQTGHGwLCmNJ5Of14t2zT3AeAABhBABIIIxgxR2pNzXLA1sNrx1ZQmY/D7M3K2EEAC4YbFNPAAAAYQQASKhJ6GxX/Cz8Y5vrZcR5xxvjRcY/H6fqgYAaAF2DbeoJAAAgjAAACa0Cd7YruTfIl03ud+NG5jXj0M4hW2MEQA/BNsFPAABAGAEAEmoMTnsKJDjbtd/3ZFFP+i3rLW739pOAmw///vdZqYIhUWM8b7t1sPHDz8+vUMKiXum6rp9TE2OjjgB0DLY5Eqv/AMisHu/bD8/87btd7t7/+9v618+9FwAACCMAAH02qxYdQwmlcew0aVR2OFf30PEZy/p91Ujs7z4XRgCG+GybnbmOCCcA5wq27YNQjn3rJ3xQ1GHBqqdaUNW/X+E9AgBAGAEA6Guyts1kxsL4NQ4gLHtsFJ7c8rZuIt5kPN597ACycv8CAwogXLqOCCY0m2AtjBdwgQBC2dPn3Nig2q2wMwAAwggAQB+THCurxc8yQXGpZuEhYfJqltm4Vz01XzVegWs/z4qB1BErZP/+3ny29XxlrIAzPHPmPe+G08ZaIB0AAGEEAKCP1TbLE42oW2PVaoJiN4AG4iyD8S96CCFotALqSKZ1JPJz0rH3Zus+Bnp65gwh2OyzMgAAwggAwEUmQla5T0JENgyHNnn02WTSJOH3oLTaCxh5oGrodWSV284x747JcJwVcKlnzmbgtWDruyEAAMIIAACXaRhOR9Aw/KhMOBDSdFJNIxWGF4gr6nDRQh1RR674vrTdGr30swy0rH+rkdWClaPNAAAQRgAAGN5K/CHYpHa2dd3E3USega5xCsOclP+4M0BVP2tv1BF15ILBti5boxd+nmEQYaLtWI4YqF9vNdJaUNkRBgAAYQQAgH4bhpM+V7F+/fp1d3d3t6uqavfw8PDL09PT7uXl5fc/B/f3979+Xc8NxCLB92Z9oFGa7IQmJBIm2p6Y7EgmSKSODDYMs+1hUk6dgevXk1NBqtmAXu9tX8/jL1++/HrGf//+/Y9nf6gFj4+Pv/85/P/h14Vf32MtWHr+AQAgjAAAcJ6Vu40njcKE0fPz8+7nz5+7Ntfr6+uvpmKYWNI8PPg+lfut3jVHYRSr0Zs8s2Yj/rvO1JFBTl5WPZyhPvXzDKOpJ+tr/sw22NHraPggBAtC+OzHjx+takH478J/H36fHsIJG7uPAQAgjAAAjGoSecSTZX9rFoaJozD50/cVJqJCE7HjateNCXvgis/XNscVhImkecKhC3Xkcu9L0TGEsPBzDIP5eV61CFNNrvB9p3UAKgQHQhjtHFf4fTsGE17e/IvvFQAACCMAAGOZjBrE9vptJ5DC6tUwwXOpK6xuCg1EgQTAZHAaQQR1ZLBhGCEEGObP87rl8+si3zfaBhFCOCAcsdB2N5w2IbXw53UIJfyn+xEAAGEEAGBIjcObiHOYr3JeeJsJpEtPHvU4mSSQAFyrBiS7Tb46klRQRAgB0gwj/A5BDy2IcMkQQs+hhP/yvQIAAGEEAGCMEwEXOy+8zQRS2Eb7Wg3Dj9fLy8vu27dvAgnAGOrAtJ7o3XWcSLoZcX27+sRTjnUk8ux2IQRId6eTs4fb2gQRwtE5IRg2hCu8jvv7+zZj+S/uSwAAhBEAgLE2Ds96XnjTCaSwivUcZ3n3cYWJrWtMJNUTPIv6/S2EHIDIZ2+XUEIx1iBCmPQfah0JQbvEAwmTAyuqhRBgfDvtbHoIJPQWbqufL1WTIxkeHx8HWQuen5+b7pLwMtRdiwAAEEYAAPJqHA7qvPCmq5fCSqGhrGI9trq1YfNw2bERXH4yhpWGJNBgIr/NdtvlQF5/ozoSjkQYeh1pMQm1HOF9N63rVymEAKMOJCx62G2n6Om1bFIIpe2vsEtCwx1ztgLJAAAIIwAAQ2gaDuK88Pq1bJtspz2WKzQ3GzYPi4ZjN6mP0Tj2Xm7d80CD58rszarBc2sxkJqmjgxspwpAsO3S4bb6c3H0sQxDD6Xtr/A6Q4iuyY527kcAAIQRAIAhrEa8+nnhTSa9np6edmO7QvOw4UTSNGLMZk2arVabAi2ezZOI58x2IK9VHWlYRwAGFmzr/Hm1yc5vYWJ/jFfDQELpXgQAQBgBABjKCqarnBf+9t/OU55AajmRdHBr1Xq8RruNOjDanXQGewxMk8mnjOrIxr0LjCjY1vm5Vf85VcpBhJaBBOE0AACEEQCAQYUSLjbR3eSoiDFPILWcSCqHEhgBePfMXtTBhGII51GrI0JowOiDbbv6+8ek4+8f9R3m/v5+l8LVIJAgnAYAgDACADC4ZuFFzguPPWZg7KuX3l8/fvzYffnyJXol01CO0gAYaL2KqiNVVSVTR15fX5vUkYn7BBhwsK3sY+V+/fudfCaGMFcIdaVyNQinCSUDACCMAAAMsll4tvPC68BDVNMwtevl5SW2cfgfsSt+Txz5YHtWINXg3Mnn4N3dXc51ZN1ygrAQYgNGFG44GdwNIa4QCk7pCsGKyHCaYDIAAMIIAMDgm3y9nhces5Vqik3D/fXw8LDrGDKICSEs3L9AwrUpqo6ktAq2ZR2ZXbrGA1ywFpQxz8Ln5+cka0GDcFrpfgEAQBgBABhDKKHzqsnY1aypNg33V4OtVZtYCyEAGdQjdSS+jqx3x3c/qvre/Qjggt9NqpyOfPvsCkcR2R0BAABhBACABqtZU9xW++MVzv3uMYSwOrX6FSCnOnJ/f598HWmwInb2IcixbFBfBNyAodaCIucdcvZX+Pt9/frV7ggAAAgjAADUKzFPNstSPZ7h4xVWanUMIYQJpYl7C0i4bkzrHXnKeneeqTrSuI6EWjGPCXGYvAJGVB+2p55hT09PWdSC8PeM2R3BfQMAgDACAJB60/A2961U319hsiys2Go4MVTVk3K2WgVSD699Nnn+v+rIn3XkDEf+vFe4H4EB1oj5qedX2C0gpyvsLGe3GwAAhBEAgNwbh5XVrH9ekata/+3dqmAhBCD1WhHOAd+0nUBXR3rjjHFgqHViZVeEP6/Io3tW7h8AAIQRAIBsVzDltJp1f0Wuat24h4CM6sWi7QS6OtKbsP351P0IDDSwZleET67w9454vk/cRwAACCMAACk2DpenmmOvr69ZNg7v7+81DgH+qhdl20l0daSXEMLCfQiMObD28PCQZS0Iu0E4qgEAAGEEACDXxuHWCqbPr+fnZ+d2A/xVL4o2E+nfvn3Lto5ETkAJIQBZBJxzO65nf/38+dNRDQAACCMAAFk2DaenGmOPj4+7nK8vX75oHALsfm/BXTWdUFdHvgghANkHnHMOpoUrYqecyn0EAIAwAgCQ3SrXXLfW3l/hnHONQ4A/QmzbJhPrua6EbTABJYQAjL02TATTjl+RO+VM3U8AAAgjAAApNQ6XjmjopXE4cT8BmdWPRUwoQR2JriP/TwgBGHFNmAs4H79CMM/xbwAACCMAALk1DtfHGmJhNWfuV2TjcO5+AjKtI/997PkYdpfJ/QoTcBF1ZOZ+AkZcC8pjz7hwXI1r9yugd6IW3LqfAAAQRgAAUmocHm2IPTw86Bruos77Lt1PgDpiW251BBBw/ru7uzuFYBd1bM/a/QQAgDACAJBK0/Dm1CTSy8uLruHbFRqoJ8Zq6Z4CMqwjE3WktzpiNSww5nqwEXA+fYVxOFELKvcTAADCCABAKk3D2alJpHBEgWu3q6rKKiaAFnXk58+fisjbFY6rUEeAhOuBXXIirufn55PH9rifAAAQRgAAsplEckWvYlr39J5MT60si7ANv88F76Our9nrPe/rrS69/Xt9bnTlnkj/9aojw6gj7uHBv15j7PUmX5vtkhN3hXGIGOsb31UBABBGAABSCCPMTSLFXWE117lXMdWN7V1Pqks05Xt8zV7v+e+J8kLPldI9kc/rffs9imN/zpcvXxSQ+DDC1j2c/HPYGHu9ydZmYYS4K+w6FzHOM99VAQAQRgAAUggjHG1Mfvv2TcewwSqmHt6PbY/N7WBzgXto6/WO5vVWF3quVO6JfF7vqTpyd3engJy5jriHR/V6jbHXm2RtdvRbs0sYAQAAYQQAQBjBJNJFwwhhO9aeJzvOfubsOV6z1zve12uM83y96sh164h7eHyv1xh7vSnWZkf2CCMAACCMAABgEkkYwQSC1yuM4PUKIwgjuIfVZq9XbRZGEEYAAEAYAQDgumGEr1+/6hZeKIxQvx+bnpvF2wvcQxuvdzSvd4xbQbsnBv56HfcTfz09PZ3rmAb38HherzH2epOszW//bnLqvwufpV3CCAAACCMAAHmFEaxiirweHh4uMak37bFZHH6f6QXuob5es9d7/nuiHELIyT2R1ut9+z0W6khvdWTtHk7+OWyMvd5ka7MwQtz1+voaM87Tne+qAAAIIwAAwggmkbpOIh1ocG87Noo3l2xi9vCavd7zvt7qUpMdHyY9KvdE+q9XHRlGHXEPD/71GmOvN/naLIwQd11itzUAABBGAABGE0bQOPzHdX9/f5EwAkBqdSSsAnWpI0Dy9eBo0CEEslznO7IHAACEEQCAoTYOjzbDnp+fdQ3frnDu+YmxunU/AeqIOtKhjpTuJ2DEtWB97Bn3/ft3hWAXtUvOxv0EAIAwAgBgFVNmV8TWtYX7CVBH1BF1BMi0FiyPPeNCIMu1293d3dklBwAAYQQAwCqmvdAwy/2KOds1bFXufgLUEXVEHQEyrQVlxPED2V9fvnyxSw4AAMIIAIDGocbhX1fEdqrBjfsJyLSO3Koj3euIewkYeS2YObbn+PX6+hrznWLufgIAQBgBAEipcTjXODx+RZzz7WxXQB1RR9QRIOdacHOqFlRVJZh2OowwcT8BACCMAABk1Tj8/v17tk3DHz9+xDQNl+4lQB1RRzrUkVv3EpBAPdgce9Z9/fpVMO14Ldi6jwAAEEYAALJrHIazTX/+/Jll0/Dx8dF2qgA91JFcL3UEyKgWnDy25+XlJctaEHlEg2AaAADCCABAko3D4lRz7OnpKcvGYVjBFdE4vHEfASag1JGWdaRyDwGJ1IKpnXI+v8LfWzANAABhBAAg18bh5FRzLGwrmtsVVm5FNA1X7iFAHTk9AXV3d5ddHXl+fnbUD5BbPdieeu6F42tyusIOc2GHIME0AACEEQCAnBuHG9uq/nmFiTMrmADUEXUEoL+dch4eHrKqBeHvK5gGAIAwAgCQe+NwYVXrX1fkrghWMAH8VUcKdaRxHdm6d4DEasHJHdfCLgG57I4QuStCMHX/AAAgjAAApNw4vAmT6878/scVjqWIaBqW7h2AZnUkHF2Qw/X161d1BMi1HqxPPf++f/+eRS2oqiqmFqzdNwAACCMAADk0DsuYlUxhhU/K1+PjY0zTMLhx3wD8UUdObs8dJulTryORW3JX6giQaC2YxXyWTv3ontfX19jvFAv3DQAAwggAgFWtGaxkClvGRm6lunTPAPytjkxiJl7CSlF1xK4IQN67I6QeTovcaW3rfgEAQBgBALA7QibbbEc2DUNgY+J+AVBHOtQRuyIA2e+OkGo4LXKHHLsiAAAgjAAA2B3h0HENYevRlK7IM12tZgXoqY6EXQRSusLOQeoIQPzuCMHT01NStSCE7SJrwdp9AgCAMAIAkGPjcBHTQAurP1PZWjU0QSObhlurWQFO1pFCHbElN5B9LYg6uielkHP4e0Qe1RNM3ScAAAgjAABWMiU+kdRgAimYuT8A1BF1BCCqFpS5BBJCLWsQRLh1fwAAIIwAAOS+kqlKfSLp5eWlSdNw6d4AiK4j09g6cnd3N9o60jCIYPIJyLEebFIPJIQaFr4T2WkNAABhBACA+MbhInaCZYyBhIYTSJqGAM3rSKGO/LZRRwDhtPQCCeH1fv36tUk9cDwDAADCCAAAdfNw2WQiaSzNw8fHxyYNw0rTEOAydeTHjx/qCEDGIecQSHh+fh5FLWi4y1pQuB8AABBGAAD4q3F4E7u16hiah2HV7f39fZOGYbBwLwCoI+oIQKd6cNvk2fnw8JBSKM2RbwAACCMAAPQxkRRUVTW47bbDyqWGW6gGpXsAoJc6ss20jlgFC9Bit5zg7u5ucDvmhNcTXlfDWrD2/gMAIIwAAHC4cRh91utemLAZwurWMJn1/fv3pg1Dq5cA1BF1BODKIeewY07YJWEIAbXwOhoey7Cr/7433n8AAIQRAAB6nkjar2gKq0mvMXnUsmFoAglAHVFHAAYSSNgH1J6enq4SQgh/boudcQQRAAAQRgAAaDGRtG3RiPs1mXSJBmLYOjVs791y8sgEEsAAAwkjqyO33muAk4GEVZtnbAgFPD4+nn2nhPD7dwghCCIAACCMAABwydVM77daDZM8fa5yDRNHoVnY4vzWjxbeYwB1RB0BuEg9WHZ55t7f3/96dvcVTAi/TzgeqOXRPMLNAAAIIwAA9DiRtOzYpPs1oRSaiGEb7DCpFCaDYq7wa0PjMUxGffv2rWuzcFev0p15bwHUEXUE4KL1YNHDM/hXmCzUghAmeH19jaoF4deFXx/+ux7CaHul9xUAAGEEAID+modVT427PyaXQkPwo77/nNr6zcT7CXCVOlJcqo70FDpQRwD6rwWtj4KLCSl81OEYHqE0AACEEQAALtw8nNQTMbsRsnIJYBiTUJsR1pBKHQHorRaEHXNuR/qdYhVev/cRAABhBACAka1utYoVQB1RRwCyqQWzc+2ScAZbuyEAACCMAABgRdP7huHcewWgjph4Ahh0PVgMOKBmZxwAAIQRAACu2DwMRzcsB9RADNt/L7w3AOqIOgIwqoBaMaCdEn6FEBzJAACAMAIAgAbirp7IsoIVQB1RRwDGv1PC+opH8wikAQAgjAAAMOAG4rTeentz5mbhqm5WWrEEkGYd2aojANnWgkkdUltfYEec8OdMjDsAAMIIAADjayIu6kmldcezu1f1dqlWrgKoI+oIQD61IOyeM6+f4esOR/tU9X9/W/9+wmgAAAgjAAAkOLE0q5UHLPa/xpgBoI4A8Ek92NeC4kAtKN79GsEDAACEEQAAAAAAAAAAhBEAAAAAAAAAAGEEAAAAAAAAAEAYAQAAAAAAAABAGAEAAAAAAAAAEEYAAAAAAAAAAIQRAAAAAAAAAABhBAAAAAAAAAAAYQQAAAAAAAAAQBgBAAAAAAAAABBGAAAAAAAAAAAQRgAAAAAAAAAAhBEAAAAAAAAAAGEEAAAAAAAAAABhBAAAAAAAAABAGAEAAAAAAAAAEEYAAAAAAAAAAIQRAAAAAAAAAACEEQAAAAAAAAAAYQQAAAAAAAAAQBgBAAAAAAAAAEAYAQAAAAAAAAAQRgAAAAAAAAAAhBEAAAAAAAAAAIQRAAAAAAAAAABhBAAAAAAAAABAGAEAAAAAAAAAEEYAAAAAAAAAABBGAAAAAAAAAACEEQAAAAAAAAAAYQQAAAAAAAAAAGEEAAAAAAAAAEAYAQAAAAAAAAAQRgAAAAAAAAAAEEYAAAAAAAAAAIQRAAAAAAAAAABhBAAAAAAAAABAGAEAAAAAAAAAQBgBAAAAAAAAABBGAAAAAAAAAACEEQAAAAAAAAAAhBEAAAAAAAAAAGEEAAAAAAAAAEAYAQAAAAAAAAAQRjAIAAAAAAAAAIAwAgAAAAAAAAAgjAAAAAAAAAAACCMAAAAAAAAAAAgjAAAAAAAAAADCCAAAAAAAAACAMAIAAAAAAAAAgDACAAAAAAAAACCMAAAAAAAAAAAIIwAAAAAAAAAAwggAAAAAAAAAAMIIAAAAAAAAAIAwAgAAAAAAAAAgjAAAAAAAAAAAIIwAAAAAAAAAAAgjAAAAAAAAAADCCAAAAAAAAAAAwggAAAAAAAAAgDACAAAAAAAAACCMAAAAAAAAAAAIIwAAAAAAAAAACCMAAAAAAAAAAMIIAAAAAAAAAIAwAgAAAAAAAACAMAIAAAAAAAAAIIwAAAAAAAAAAAgjAAAAAAAAAAAIIwAAAAAAAAAAwggAAAAAAAAAgDACAAAAAAAAACCMAAAAAAAAAAAgjAAAAAAAAAAACCMAAAAAAAAAAMIIAAAAAAAAAADCCAAAAAAAAACAMAIAAAAAAAAAIIwAAAAAAAAAACCMAAAAAAAAAAAIIwAAAAAAAAAAwggAAAAAAAAAgDACAAAAAAAAAIAwAgAAAAAAAAAgjAAAAAAAAAAACCMAAAAAAAAAAAgjAAAAAAAAAADCCAAAAAAAAACAMAIAAAAAAAAAgDACAAAAAAAAACCMAAAAAAAAAAAIIwAAAAAAAAAAwggAAAAAAAAAAMIIAAAAAAAAAIAwAgAAAAAAAAAgjAAAAAAAAAAAIIwAAAAAAAAAAAgjAAAAAAAAAADCCAAAAAAAAAAABgEAAAAAAAAAEEYAAAAAAAAAAIQRAAAAAAAAAABhBAAAAAAAAAAAYQQAAAAAAAAAQBgBAAAAAAAAABBGAAAAAAAAAAAQRgAAAAAAAAAAhBEAAAAAAAAAAGEEAAAAAAAAAEAYAQAAAAAAAABAGAEAAAAAAAAAEEYAAAAAAAAAAIQRAAAAAAAAAACEEQAAAAAAAAAAYQQAAAAAAAAAQBgBAAAAAAAAAEAYAQAAAAAAAAAQRgAAAAAAAAAAhBEAAAAAAAAAAGEEAAAAAAAAAABhBAAAAAAAAABAGAEAAAAAAAAAEEYAAAAAAAAAABBGAAAAAAAAAACEEQAAAAAAAAAAYQQAAAAAAAAAAGEEAAAAAAAAAEAYAQAAAAAAAAAQRgAAAAAAAAAAhBEAAAAAAAAAAIQRAAAAAAAAAABhBAAAAAAAAABAGAEAAAAAAAAAQBgBAAAAAAAAABBGAAAAAAAAAACEEQAAAAAAAAAAhBEAAAAAAAAAgHP5P8QP3WcXkDeCAAAAAElFTkSuQmCC;strokeColor=#DADADA;fillColor=#FF0000;imageBackground=none;aspect=fixed;clipPath=inset(20.48% 6.67% 9.52% 4.33%);" parent="1" vertex="1">
          <mxGeometry x="140" width="800.06" height="440.48247191011234" as="geometry" />
        </mxCell>
        <mxCell id="46P4NmY_MCMuAy0jAjQl-1783" value="&lt;b style=&quot;font-size: 20px;&quot;&gt;&lt;i style=&quot;font-size: 20px;&quot;&gt;Script Eval&lt;/i&gt;&lt;/b&gt;&lt;div style=&quot;font-size: 20px;&quot;&gt;&lt;b style=&quot;font-size: 20px;&quot;&gt;&lt;i style=&quot;font-size: 20px;&quot;&gt;Engine&lt;/i&gt;&lt;/b&gt;&lt;/div&gt;" style="rounded=0;whiteSpace=wrap;html=1;rotation=347;strokeColor=none;fontSize=20;" parent="1" vertex="1">
          <mxGeometry x="686.05" y="174.00000000000003" width="75" height="50" as="geometry" />
        </mxCell>
        <mxCell id="46P4NmY_MCMuAy0jAjQl-1785" value="" style="edgeStyle=elbowEdgeStyle;elbow=horizontal;endArrow=classic;html=1;curved=0;rounded=0;fillColor=#DADADA;dashed=1;dashPattern=1 4;strokeWidth=2;" parent="1" edge="1">
          <mxGeometry width="50" height="50" relative="1" as="geometry">
            <mxPoint x="75" y="93" as="sourcePoint" />
            <mxPoint x="155" y="93" as="targetPoint" />
            <Array as="points">
              <mxPoint x="90" y="80" />
            </Array>
          </mxGeometry>
        </mxCell>
        <mxCell id="46P4NmY_MCMuAy0jAjQl-1786" value="" style="edgeStyle=elbowEdgeStyle;elbow=horizontal;endArrow=classic;html=1;curved=0;rounded=0;fillColor=#DADADA;dashed=1;dashPattern=1 4;strokeWidth=2;" parent="1" edge="1">
          <mxGeometry width="50" height="50" relative="1" as="geometry">
            <mxPoint x="76" y="154.57" as="sourcePoint" />
            <mxPoint x="156" y="154.57" as="targetPoint" />
          </mxGeometry>
        </mxCell>
        <mxCell id="46P4NmY_MCMuAy0jAjQl-1788" value="" style="edgeStyle=elbowEdgeStyle;elbow=horizontal;endArrow=classic;html=1;curved=0;rounded=0;fillColor=#DADADA;dashed=1;dashPattern=1 4;strokeWidth=2;" parent="1" edge="1">
          <mxGeometry width="50" height="50" relative="1" as="geometry">
            <mxPoint x="73" y="217.13" as="sourcePoint" />
            <mxPoint x="153" y="217.13" as="targetPoint" />
          </mxGeometry>
        </mxCell>
        <mxCell id="46P4NmY_MCMuAy0jAjQl-1789" value="" style="edgeStyle=elbowEdgeStyle;elbow=horizontal;endArrow=classic;html=1;curved=0;rounded=0;fillColor=#DADADA;dashed=1;dashPattern=1 4;strokeWidth=2;" parent="1" edge="1">
          <mxGeometry width="50" height="50" relative="1" as="geometry">
            <mxPoint x="73" y="279" as="sourcePoint" />
            <mxPoint x="153" y="279" as="targetPoint" />
          </mxGeometry>
        </mxCell>
        <mxCell id="46P4NmY_MCMuAy0jAjQl-1790" value="" style="edgeStyle=elbowEdgeStyle;elbow=horizontal;endArrow=classic;html=1;curved=0;rounded=0;fillColor=#DADADA;dashed=1;dashPattern=1 4;strokeWidth=2;" parent="1" edge="1">
          <mxGeometry width="50" height="50" relative="1" as="geometry">
            <mxPoint x="73" y="344" as="sourcePoint" />
            <mxPoint x="153" y="344" as="targetPoint" />
          </mxGeometry>
        </mxCell>
        <mxCell id="46P4NmY_MCMuAy0jAjQl-1791" value="&lt;b style=&quot;font-size: 20px;&quot;&gt;&lt;i style=&quot;font-size: 20px;&quot;&gt;&amp;nbsp;Sc En&lt;/i&gt;&lt;/b&gt;&lt;div style=&quot;font-size: 20px;&quot;&gt;&lt;b style=&quot;font-size: 20px;&quot;&gt;&lt;i style=&quot;font-size: 20px;&quot;&gt;E&lt;/i&gt;&lt;/b&gt;&lt;/div&gt;" style="rounded=0;whiteSpace=wrap;html=1;rotation=347;fontSize=20;fillColor=none;strokeColor=none;" parent="1" vertex="1">
          <mxGeometry x="548.6700000000001" y="176.89999999999998" width="22.55" height="50" as="geometry" />
        </mxCell>
        <mxCell id="46P4NmY_MCMuAy0jAjQl-1792" value="&lt;b style=&quot;font-size: 20px;&quot;&gt;&lt;i style=&quot;font-size: 20px;&quot;&gt;&amp;nbsp;S E&lt;/i&gt;&lt;/b&gt;&lt;div style=&quot;font-size: 20px;&quot;&gt;&lt;b&gt;&lt;i&gt;I&lt;/i&gt;&lt;/b&gt;&lt;/div&gt;" style="rounded=0;whiteSpace=wrap;html=1;rotation=347;fontSize=20;fillColor=none;strokeColor=none;" parent="1" vertex="1">
          <mxGeometry x="420.67" y="167.89999999999998" width="22.55" height="50" as="geometry" />
        </mxCell>
        <mxCell id="46P4NmY_MCMuAy0jAjQl-1793" value="&lt;b style=&quot;font-size: 20px;&quot;&gt;&lt;i style=&quot;font-size: 20px;&quot;&gt;&amp;nbsp;S E&lt;/i&gt;&lt;/b&gt;&lt;div style=&quot;font-size: 20px;&quot;&gt;&lt;b&gt;&lt;i&gt;I&lt;/i&gt;&lt;/b&gt;&lt;/div&gt;" style="rounded=0;whiteSpace=wrap;html=1;rotation=347;fontSize=20;fillColor=none;strokeColor=none;" parent="1" vertex="1">
          <mxGeometry x="293" y="160.5" width="22.55" height="50" as="geometry" />
        </mxCell>
        <mxCell id="46P4NmY_MCMuAy0jAjQl-1795" value="" style="edgeStyle=elbowEdgeStyle;elbow=vertical;endArrow=classic;html=1;curved=0;rounded=0;endSize=8;startSize=8;dashed=1;dashPattern=1 4;strokeWidth=2;" parent="1" edge="1">
          <mxGeometry width="50" height="50" relative="1" as="geometry">
            <mxPoint x="940" y="92" as="sourcePoint" />
            <mxPoint x="1020" y="92" as="targetPoint" />
          </mxGeometry>
        </mxCell>
        <mxCell id="46P4NmY_MCMuAy0jAjQl-1796" value="" style="edgeStyle=elbowEdgeStyle;elbow=horizontal;endArrow=classic;html=1;curved=0;rounded=0;endSize=8;startSize=8;dashed=1;dashPattern=1 4;strokeWidth=2;" parent="1" edge="1">
          <mxGeometry width="50" height="50" relative="1" as="geometry">
            <mxPoint x="940" y="154" as="sourcePoint" />
            <mxPoint x="1020" y="154" as="targetPoint" />
          </mxGeometry>
        </mxCell>
        <mxCell id="46P4NmY_MCMuAy0jAjQl-1797" value="" style="edgeStyle=elbowEdgeStyle;elbow=horizontal;endArrow=classic;html=1;curved=0;rounded=0;endSize=8;startSize=8;dashed=1;dashPattern=1 4;strokeWidth=2;" parent="1" edge="1">
          <mxGeometry width="50" height="50" relative="1" as="geometry">
            <mxPoint x="941" y="215.57" as="sourcePoint" />
            <mxPoint x="1021" y="215.57" as="targetPoint" />
          </mxGeometry>
        </mxCell>
        <mxCell id="46P4NmY_MCMuAy0jAjQl-1798" value="" style="edgeStyle=elbowEdgeStyle;elbow=horizontal;endArrow=classic;html=1;curved=0;rounded=0;endSize=8;startSize=8;dashed=1;dashPattern=1 4;strokeWidth=2;" parent="1" edge="1">
          <mxGeometry width="50" height="50" relative="1" as="geometry">
            <mxPoint x="940" y="280.13" as="sourcePoint" />
            <mxPoint x="1020" y="280.13" as="targetPoint" />
          </mxGeometry>
        </mxCell>
        <mxCell id="46P4NmY_MCMuAy0jAjQl-1801" value="Input Pins" style="text;html=1;align=center;verticalAlign=middle;whiteSpace=wrap;rounded=0;fontStyle=1;fontSize=25;rotation=-90;" parent="1" vertex="1">
          <mxGeometry x="-50" y="235" width="140" height="30" as="geometry" />
        </mxCell>
        <mxCell id="46P4NmY_MCMuAy0jAjQl-1802" value="Output Pins" style="text;html=1;align=center;verticalAlign=middle;whiteSpace=wrap;rounded=0;fontStyle=1;fontSize=25;rotation=90;" parent="1" vertex="1">
          <mxGeometry x="993.06" y="167.9" width="150" height="30" as="geometry" />
        </mxCell>
        <mxCell id="46P4NmY_MCMuAy0jAjQl-1815" value="" style="endArrow=none;dashed=1;html=1;rounded=0;exitX=0.5;exitY=0;exitDx=0;exitDy=0;" parent="1" edge="1">
          <mxGeometry width="50" height="50" relative="1" as="geometry">
            <mxPoint x="837.06" y="442" as="sourcePoint" />
            <mxPoint x="847" y="297" as="targetPoint" />
          </mxGeometry>
        </mxCell>
        <mxCell id="46P4NmY_MCMuAy0jAjQl-1816" value="" style="shape=curlyBracket;whiteSpace=wrap;html=1;rounded=1;labelPosition=left;verticalLabelPosition=middle;align=right;verticalAlign=middle;" parent="1" vertex="1">
          <mxGeometry x="43" y="150" width="20" height="200" as="geometry" />
        </mxCell>
        <mxCell id="46P4NmY_MCMuAy0jAjQl-1817" value="" style="shape=curlyBracket;whiteSpace=wrap;html=1;rounded=1;labelPosition=left;verticalLabelPosition=middle;align=right;verticalAlign=middle;rotation=-180;" parent="1" vertex="1">
          <mxGeometry x="1026" y="75" width="20" height="221" as="geometry" />
        </mxCell>
        <mxCell id="46P4NmY_MCMuAy0jAjQl-1824" value="" style="rounded=0;whiteSpace=wrap;html=1;strokeColor=none;" parent="1" vertex="1">
          <mxGeometry x="370.95" width="132.05" height="20" as="geometry" />
        </mxCell>
        <mxCell id="46P4NmY_MCMuAy0jAjQl-1825" value="" style="rounded=0;whiteSpace=wrap;html=1;strokeColor=none;" parent="1" vertex="1">
          <mxGeometry x="544.91" width="128.09" height="20" as="geometry" />
        </mxCell>
        <mxCell id="46P4NmY_MCMuAy0jAjQl-1826" value="" style="rounded=0;whiteSpace=wrap;html=1;strokeColor=none;rotation=25;" parent="1" vertex="1">
          <mxGeometry x="732.44" y="32.52" width="100" height="20" as="geometry" />
        </mxCell>
        <mxCell id="46P4NmY_MCMuAy0jAjQl-1827" value="" style="rounded=0;whiteSpace=wrap;html=1;strokeColor=none;" parent="1" vertex="1">
          <mxGeometry x="585.22" width="93.78" height="20" as="geometry" />
        </mxCell>
        <mxCell id="46P4NmY_MCMuAy0jAjQl-1828" value="" style="rounded=0;whiteSpace=wrap;html=1;strokeColor=none;rotation=25;" parent="1" vertex="1">
          <mxGeometry x="726.04" y="22.95" width="116.2" height="30" as="geometry" />
        </mxCell>
        <mxCell id="46P4NmY_MCMuAy0jAjQl-1832" value="" style="rounded=0;whiteSpace=wrap;html=1;strokeColor=none;rotation=25;" parent="1" vertex="1">
          <mxGeometry x="724.3399999999999" y="32.52" width="116.2" height="30" as="geometry" />
        </mxCell>
        <mxCell id="46P4NmY_MCMuAy0jAjQl-1833" value="" style="rounded=0;whiteSpace=wrap;html=1;strokeColor=none;rotation=25;" parent="1" vertex="1">
          <mxGeometry x="572.85" y="33.31" width="116.2" height="34.48" as="geometry" />
        </mxCell>
        <mxCell id="46P4NmY_MCMuAy0jAjQl-1834" value="" style="rounded=0;whiteSpace=wrap;html=1;strokeColor=none;rotation=-18;" parent="1" vertex="1">
          <mxGeometry x="364.99999999999994" y="39.790000000000006" width="116.2" height="30" as="geometry" />
        </mxCell>
        <mxCell id="46P4NmY_MCMuAy0jAjQl-1835" value="" style="rounded=0;whiteSpace=wrap;html=1;strokeColor=none;rotation=30;" parent="1" vertex="1">
          <mxGeometry x="226.74999999999994" y="31.52000000000001" width="116.2" height="30" as="geometry" />
        </mxCell>
        <mxCell id="46P4NmY_MCMuAy0jAjQl-1823" value="&lt;span style=&quot;font-size: 36px;&quot;&gt;&lt;b&gt;&amp;nbsp; &amp;nbsp; &amp;nbsp; &amp;nbsp; &amp;nbsp; &amp;nbsp; &amp;nbsp; &amp;nbsp; &amp;nbsp; &amp;nbsp; &amp;nbsp; &amp;nbsp; &amp;nbsp; &amp;nbsp;&lt;/b&gt;&lt;/span&gt;" style="rounded=0;whiteSpace=wrap;html=1;strokeColor=none;" parent="1" vertex="1">
          <mxGeometry x="140" width="740" height="70" as="geometry" />
        </mxCell>
        <mxCell id="46P4NmY_MCMuAy0jAjQl-1836" value="" style="rounded=0;whiteSpace=wrap;html=1;strokeColor=none;rotation=30;" parent="1" vertex="1">
          <mxGeometry x="189.99999999999994" y="375" width="116.2" height="30" as="geometry" />
        </mxCell>
        <mxCell id="46P4NmY_MCMuAy0jAjQl-1837" value="" style="rounded=0;whiteSpace=wrap;html=1;strokeColor=none;rotation=0;" parent="1" vertex="1">
          <mxGeometry x="230" y="361" width="560" height="80" as="geometry" />
        </mxCell>
        <mxCell id="46P4NmY_MCMuAy0jAjQl-1838" value="" style="rounded=0;whiteSpace=wrap;html=1;strokeColor=none;rotation=30;" parent="1" vertex="1">
          <mxGeometry x="481.19999999999993" y="375" width="116.2" height="30" as="geometry" />
        </mxCell>
        <mxCell id="46P4NmY_MCMuAy0jAjQl-1839" value="" style="rounded=0;whiteSpace=wrap;html=1;strokeColor=none;rotation=30;" parent="1" vertex="1">
          <mxGeometry x="530.9999999999999" y="375" width="116.2" height="30" as="geometry" />
        </mxCell>
        <mxCell id="46P4NmY_MCMuAy0jAjQl-1840" value="" style="rounded=0;whiteSpace=wrap;html=1;strokeColor=none;rotation=30;" parent="1" vertex="1">
          <mxGeometry x="357.9999999999999" y="374" width="116.2" height="30" as="geometry" />
        </mxCell>
        <mxCell id="46P4NmY_MCMuAy0jAjQl-1841" value="" style="rounded=0;whiteSpace=wrap;html=1;strokeColor=none;rotation=30;" parent="1" vertex="1">
          <mxGeometry x="647.1999999999998" y="375" width="116.2" height="30" as="geometry" />
        </mxCell>
        <mxCell id="46P4NmY_MCMuAy0jAjQl-1842" value="" style="rounded=0;whiteSpace=wrap;html=1;strokeColor=none;rotation=-225;" parent="1" vertex="1">
          <mxGeometry x="732.37" y="327.92" width="118.64" height="11" as="geometry" />
        </mxCell>
        <mxCell id="46P4NmY_MCMuAy0jAjQl-1803" value="Script Stage 1" style="text;html=1;align=center;verticalAlign=middle;whiteSpace=wrap;rounded=0;fontStyle=1;fontSize=20;" parent="1" vertex="1">
          <mxGeometry x="110" y="416" width="180" height="30" as="geometry" />
        </mxCell>
        <mxCell id="46P4NmY_MCMuAy0jAjQl-1805" value="Script Stage 2" style="text;html=1;align=center;verticalAlign=middle;whiteSpace=wrap;rounded=0;fontStyle=1;fontSize=20;" parent="1" vertex="1">
          <mxGeometry x="250" y="456" width="180" height="30" as="geometry" />
        </mxCell>
        <mxCell id="46P4NmY_MCMuAy0jAjQl-1806" value="Script Stage 3" style="text;html=1;align=center;verticalAlign=middle;whiteSpace=wrap;rounded=0;fontStyle=1;fontSize=20;" parent="1" vertex="1">
          <mxGeometry x="400" y="416" width="180" height="30" as="geometry" />
        </mxCell>
        <mxCell id="46P4NmY_MCMuAy0jAjQl-1807" value="Script Stage 4" style="text;html=1;align=center;verticalAlign=middle;whiteSpace=wrap;rounded=0;fontStyle=1;fontSize=20;" parent="1" vertex="1">
          <mxGeometry x="544.9100000000001" y="456" width="180" height="30" as="geometry" />
        </mxCell>
        <mxCell id="46P4NmY_MCMuAy0jAjQl-1808" value="Output Policy Stage" style="text;html=1;align=center;verticalAlign=middle;whiteSpace=wrap;rounded=0;fontStyle=1;fontSize=20;" parent="1" vertex="1">
          <mxGeometry x="740.06" y="445" width="200" height="30" as="geometry" />
        </mxCell>
        <mxCell id="46P4NmY_MCMuAy0jAjQl-1843" value="&lt;font style=&quot;font-size: 18px;&quot;&gt;Stage Configuration&amp;nbsp;&lt;/font&gt;" style="text;html=1;align=center;verticalAlign=middle;whiteSpace=wrap;rounded=0;fontStyle=1;fontSize=18;rotation=0;" parent="1" vertex="1">
          <mxGeometry y="44.95" width="140" height="30" as="geometry" />
        </mxCell>
        <mxCell id="46P4NmY_MCMuAy0jAjQl-1846" value="" style="endArrow=none;dashed=1;html=1;rounded=0;exitX=0.5;exitY=0;exitDx=0;exitDy=0;" parent="1" source="46P4NmY_MCMuAy0jAjQl-1807" edge="1">
          <mxGeometry width="50" height="50" relative="1" as="geometry">
            <mxPoint x="683.1099999999999" y="508" as="sourcePoint" />
            <mxPoint x="693.05" y="363" as="targetPoint" />
          </mxGeometry>
        </mxCell>
        <mxCell id="46P4NmY_MCMuAy0jAjQl-1847" value="" style="endArrow=none;dashed=1;html=1;rounded=0;exitX=0.5;exitY=0;exitDx=0;exitDy=0;" parent="1" source="46P4NmY_MCMuAy0jAjQl-1806" edge="1">
          <mxGeometry width="50" height="50" relative="1" as="geometry">
            <mxPoint x="470" y="454" as="sourcePoint" />
            <mxPoint x="528.05" y="361" as="targetPoint" />
          </mxGeometry>
        </mxCell>
        <mxCell id="46P4NmY_MCMuAy0jAjQl-1848" value="" style="endArrow=none;dashed=1;html=1;rounded=0;exitX=0.5;exitY=0;exitDx=0;exitDy=0;" parent="1" source="46P4NmY_MCMuAy0jAjQl-1805" edge="1">
          <mxGeometry width="50" height="50" relative="1" as="geometry">
            <mxPoint x="315.55" y="416" as="sourcePoint" />
            <mxPoint x="353.59999999999997" y="361" as="targetPoint" />
          </mxGeometry>
        </mxCell>
        <mxCell id="46P4NmY_MCMuAy0jAjQl-1849" value="" style="endArrow=none;dashed=1;html=1;rounded=0;exitX=0.5;exitY=0;exitDx=0;exitDy=0;" parent="1" source="46P4NmY_MCMuAy0jAjQl-1803" edge="1">
          <mxGeometry width="50" height="50" relative="1" as="geometry">
            <mxPoint x="160" y="456" as="sourcePoint" />
            <mxPoint x="173.59999999999997" y="361" as="targetPoint" />
          </mxGeometry>
        </mxCell>
      </root>
    </mxGraphModel>
  </diagram>
</mxfile>
